<ttFont>
<head>
    <!-- Most of this table will be recalculated by the compiler -->
    <tableVersion value="1.0"/>
    <fontRevision value="2.004"/>
    <checkSumAdjustment value="0x69d05c20"/>
    <magicNumber value="0x5f0f3cf5"/>
    <flags value="00000000 00000011"/>
    <unitsPerEm value="1000"/>
    <created value="Thu Oct  8 10:01:16 2009"/>
    <modified value="Thu Oct  8 10:01:16 2009"/>
    <xMin value="-614"/>
    <yMin value="-313"/>
    <xMax value="2008"/>
    <yMax value="1104"/>
    <macStyle value="00000000 00000010"/>
    <lowestRecPPEM value="3"/>
    <fontDirectionHint value="2"/>
    <indexToLocFormat value="0"/>
    <glyphDataFormat value="0"/>
  </head>
          <CharString index="0">
            843 23 rmoveto
            1 6 -1 7 -1 4 -139 618 rcurveline
            36 -8 -26 0 -19 hhcurveto
            -116 hlineto
            -19 -26 0 -36 -24 hvcurveto
            -400 -616 -3 -5 -6 -8 -1 -6 rlinecurve
            -23 -5 21 0 15 hhcurveto
            61 hlineto
            45 11 17 30 19 hvcurveto
            52 81 rlineto
            374 hlineto
            19 -81 rlineto
            -31 6 5 -16 44 hhcurveto
            80 hlineto
            15 21 0 23 5 hvcurveto
            -218 209 rmoveto
            -283 hlineto
            210 324 rlineto
            return
          </CharString>
          <CharString index="1">
            656 320 rmoveto
            97 21 -28 136 -197 hhcurveto
            -171 -154 -133 -148 -31 hvcurveto
            -153 -33 109 -129 178 hhcurveto
            80 84 23 45 75 hvcurveto
            3 3 2 7 1 3 2 10 3 27 1 11 rrcurveto
            178 callsubr
            -70 -89 -86 -5 -27 hhcurveto
            -82 -79 68 147 32 hvcurveto
            365 hlineto
            20 24 0 39 8 hvcurveto
            -127 18 rmoveto
            -270 hlineto
            74 34 69 65 72 hhcurveto
            87 18 -67 -72 -10 hvcurveto
            return
          </CharString>
          <CharString index="2">
            12 callgsubr
            259 229 19 callsubr
            -157 15 rmoveto
            -183 -39 -151 -111 -165 hhcurveto
            -165 -105 111 183 39 hvcurveto
            175 37 153 97 161 hhcurveto
            161 111 -97 -175 -37 hvcurveto
            return
          </CharString>
          <CharString index="3">
            -103 callgsubr
            endchar
          </CharString>
          <CharString index="4">
            -86 -405 -4 -20 -13 -58 -64 -38 rlinecurve
            -33 -57 -60 -3 -29 hhcurveto
            -26 -59 2 30 -40 hvcurveto
            -31 24 -15 35 13 60 86 406 rcurveline
            -53 callgsubr
            -87 -408 rlineto
            -147 -31 137 -106 190 hhcurveto
            187 177 106 147 31 hvcurveto
            return
          </CharString>
          <CharString index="5">
            805 43 rmoveto
            38 8 -13 5 -30 hhcurveto
            -491 hlineto
            49 227 rlineto
            433 47 callgsubr
            40 8 hvcurveto
            40 9 -23 0 -21 hhcurveto
            -433 hlineto
            43 206 rlineto
            472 hlineto
            21 23 0 41 9 -22 callgsubr
            -588 -58 callsubr
            607 -45 callgsubr
            return
          </CharString>
          <CharString index="6">
            rmoveto
            2 8 -4 2 -11 6 -131 74 rcurveline
            -101 hlineto
            -163 -74 -13 -6 -4 -2 56 callsubr
            13 91 callsubr
            159 54 138 -54 rlineto
            37 hlineto
            15 13 0 14 3 hvcurveto
            return
          </CharString>
          <CharString index="7">
            1054 339 rmoveto
            193 41 -155 173 -261 -105 callsubr
            return
          </CharString>
          <CharString index="8">
            -10 -30 0 -28 -6 hvcurveto
            -29 -6 29 0 11 hhcurveto
            65 hlineto
            10 30 0 28 6 hvcurveto
            return
          </CharString>
          <CharString index="9">
            43 callgsubr
            156 33 -107 131 -170 -102 callgsubr
            return
          </CharString>
          <CharString index="10">
            -101 callgsubr
            hintmask 00110000
            return
          </CharString>
          <CharString index="11">
            hintmask 10000000
            -98 callsubr
            return
          </CharString>
          <CharString index="12">
            834 51 rmoveto
            70 329 rlineto
            8 1 -4 6 -8 hhcurveto
            -262 hlineto
            -8 -8 -6 -8 -1 hvcurveto
            -11 -52 rlineto
            -8 -2 5 -6 8 hhcurveto
            130 hlineto
            -47 -218 rlineto
            -15 -49 -50 -8 -49 hhcurveto
            -77 -71 27 52 -46 hvcurveto
            -43 49 -19 68 16 73 15 73 48 68 64 49 rrcurveto
            52 68 82 27 77 hhcurveto
            45 43 -6 -19 37 hvcurveto
            36 -19 27 -30 22 -34 rrcurveto
            -3 1 4 -2 4 hhcurveto
            7 7 5 7 2 hvcurveto
            47 120 2 9 -2 5 -6 2 rlinecurve
            -39 16 -42 13 -43 8 rrcurveto
            9 -43 -45 2 -46 hhcurveto
            -115 -122 -31 -71 -107 hvcurveto
            -92 -60 -75 -90 -21 -100 -22 -100 37 -90 67 -60 rrcurveto
            -71 76 109 -31 115 hhcurveto
            96 98 16 32 97 hvcurveto
            6 2 5 5 1 6 rrcurveto
            return
          </CharString>
          <CharString index="13">
            hstemhm
            -95 callgsubr
            return
          </CharString>
          <CharString index="14">
            rlineto
            34 7 -6 -48 callgsubr
            return
          </CharString>
          <CharString index="15">
            hstemhm
            -96 callsubr
            return
          </CharString>
          <CharString index="16">
            -4 vlineto
            5 -34 rlineto
            0 0 -3 2 -1 vhcurveto
            9 -5 9 -6 4 6 rrcurveto
            34 18 54 callgsubr
            -10 -49 -5 -22 rcurveline
            -7 -1 5 -7 7 hhcurveto
            5 hlineto
            8 8 7 7 1 hvcurveto
            5 22 26 3 28 8 27 12 rlinecurve
            24 11 20 21 6 24 rrcurveto
            endchar
          </CharString>
          <CharString index="17">
            -29 callgsubr
            -149 -73 -15 -8 -2 -1 -2 -8 rlinecurve
            111 callgsubr
            36 hlineto
            217 73 12 4 9 3 2 10 rlinecurve
            endchar
          </CharString>
          <CharString index="18">
            530 167 rmoveto
            12 54 -17 41 -34 32 -38 36 -33 6 -88 16 -38 7 -58 11 9 44 rrcurveto
            47 10 59 13 49 hhcurveto
            87 39 -32 -24 28 hvcurveto
            -7 6 2 -1 5 hhcurveto
            12 4 10 11 5 hvcurveto
            22 56 rlineto
            1 3 3 7 3 vvcurveto
            3 11 -7 3 -19 8 rrcurveto
            26 -63 -51 5 -50 hhcurveto
            -195 -55 -110 -59 -12 hvcurveto
            -11 -51 17 -39 25 -25 42 -39 33 -7 86 -15 42 -8 62 -12 -10 -49 rrcurveto
            -20 -5 -20 -46 -101 hhcurveto
            -67 -63 26 55 -38 hvcurveto
            9 -6 -4 4 -6 hhcurveto
            -12 -4 -10 -7 -2 hvcurveto
            -6 -15 -27 -65 -2 -11 -3 -10 1 -1 24 -13 rrcurveto
            -40 80 73 -5 42 hhcurveto
            188 60 108 69 14 hvcurveto
            return
          </CharString>
          <CharString index="19">
            -20 -94 callsubr
            hintmask 00110000
            return
          </CharString>
          <CharString index="20">
            731 205 rmoveto
            12 57 -16 47 -30 35 -54 62 -54 10 -150 28 -51 9 -84 15 13 57 rrcurveto
            47 10 88 38 97 hhcurveto
            115 41 -49 -42 31 hvcurveto
            -8 7 1 -2 6 75 callsubr
            -5 3 -50 24 -62 12 rrcurveto
            3 -16 -37 8 -66 hhcurveto
            -189 -143 -103 -110 -23 hvcurveto
            -10 -45 10 -49 37 -39 54 -54 62 -11 78 -15 93 -17 rcurveline
            46 -10 55 -27 -11 -51 rrcurveto
            -33 callsubr
            return
          </CharString>
          <CharString index="21">
            -50 callgsubr
            -37 hlineto
            -159 -54 -138 54 rlineto
            -37 -34 callgsubr
            -8 3 -2 11 -6 131 -74 rcurveline
            101 hlineto
            163 74 13 6 5 2 1 8 rlinecurve
            endchar
          </CharString>
          <CharString index="22">
            rmoveto
            99 467 -65 callsubr
            -7 -32 rlineto
            33 -16 -34 43 -73 hhcurveto
            -146 -153 -122 -156 -34 hvcurveto
            -142 -30 106 -103 139 hhcurveto
            95 54 80 28 17 hvcurveto
            1 -1 -26 -121 rlineto
            -72 -15 -66 -24 -60 hhcurveto
            -74 -63 15 32 -58 hvcurveto
            6 -11 -4 3 -5 hhcurveto
            hintmask 01000000
            -14 -3 -14 -15 -3 hvcurveto
            -9 -43 -6 -25 1 -1 28 -7 rlinecurve
            hintmask 10110011
            -10 36 63 -17 105 hhcurveto
            165 122 90 108 23 hvcurveto
            -82 293 rmoveto
            -3 -19 -89 -35 -59 vhcurveto
            -42 -25 -36 -36 -50 hhcurveto
            -79 -56 71 98 20 hvcurveto
            115 25 97 87 87 hhcurveto
            40 27 -22 -34 12 hvcurveto
            7 -16 0 -1 -4 -18 rrcurveto
            return
          </CharString>
          <CharString index="23">
            798 2 callgsubr
            -38 -88 callgsubr
            -114 -537 -217 545 rlineto
            36 -15 -26 0 -21 hhcurveto
            -108 -49 callsubr
            114 537 218 -545 rlineto
            -36 14 26 0 21 hhcurveto
            108 -93 callgsubr
            return
          </CharString>
          <CharString index="24">
            rmoveto
            -90 callgsubr
            266 -91 callgsubr
            return
          </CharString>
          <CharString index="25">
            -51 callsubr
            hintmask 00100000
            -27 callgsubr
            hintmask 00010000
            -36 -8 40 -67 hhcurveto
            -81 -54 -48 callsubr
            7 hvcurveto
            hintmask 00010000
            -23 callgsubr
            hintmask 00100000
            -1 56 -7 -34 callsubr
          </CharString>
          <CharString index="26">
            269 43 rmoveto
            127 599 rlineto
            -39 callgsubr
            -72 77 callgsubr
            -41 -8 hvcurveto
            -128 -600 rlineto
            29 callgsubr
            72 -45 callgsubr
            return
          </CharString>
          <CharString index="27">
            820 59 rmoveto
            12 97 rlineto
            7 1 -5 6 -7 hhcurveto
            -3 -4 -1 -3 -3 hvcurveto
            -40 -29 -41 -29 -46 -16 rrcurveto
            -16 -45 -45 -2 -45 hhcurveto
            -77 -71 27 52 -47 hvcurveto
            -42 49 -19 68 16 73 15 73 48 68 63 49 rrcurveto
            52 69 82 27 77 hhcurveto
            41 39 -6 -16 33 hvcurveto
            34 -16 26 -26 21 -30 rrcurveto
            -3 1 4 -2 4 hhcurveto
            7 7 5 7 2 hvcurveto
            47 120 2 9 -3 5 -6 2 rlinecurve
            -37 11 -39 10 -41 6 rrcurveto
            5 -41 -41 2 -42 hhcurveto
            -115 -122 -31 -71 -107 hvcurveto
            -92 -60 -75 -90 -21 -100 -22 -100 37 -90 67 -60 rrcurveto
            -71 76 109 -31 115 hhcurveto
            46 46 1 9 47 hvcurveto
            47 10 46 17 46 18 5 3 4 5 2 6 rrcurveto
            return
          </CharString>
          <CharString index="28">
            193 callsubr
            -441 154 callgsubr
            440 hlineto
            26 2 2 26 6 hvcurveto
            endchar
          </CharString>
          <CharString index="29">
            -101 callsubr
            endchar
          </CharString>
          <CharString index="30">
            -67 callgsubr
            -32 callgsubr
            return
          </CharString>
          <CharString index="31">
            rmoveto
            2 6 -3 52 callgsubr
            -5 -1 0 -21 hhcurveto
            -90 -34 callgsubr
            -4 0 -6 10 -7 95 -73 rcurveline
            37 hlineto
            15 14 0 14 3 hvcurveto
            -229 hmoveto
            2 6 -3 52 callgsubr
            -5 -1 0 -21 hhcurveto
            -90 -34 callgsubr
            -4 0 -6 10 -7 95 -73 rcurveline
            37 hlineto
            15 14 0 14 3 hvcurveto
            endchar
          </CharString>
          <CharString index="32">
            -54 callsubr
            -19 -86 rlineto
            -28 -6 1 0 36 hhcurveto
            return
          </CharString>
          <CharString index="33">
            1381 660 86 callsubr
            -36 hlineto
            -19 -26 0 -37 -20 hvcurveto
            -297 -530 -72 529 rlineto
            38 -5 -24 0 -21 hhcurveto
            -87 hlineto
            -20 -25 0 -37 -20 hvcurveto
            -294 -525 -71 525 rlineto
            37 -6 -23 0 -21 hhcurveto
            -51 hlineto
            -15 -22 0 -24 -5 hvcurveto
            -1 -4 0 -2 2 -13 83 -610 rcurveline
            -38 5 25 0 20 hhcurveto
            87 hlineto
            21 24 0 40 22 hvcurveto
            295 528 72 -531 rlineto
            -37 6 23 0 21 hhcurveto
            91 hlineto
            20 25 0 38 21 hvcurveto
            341 610 8 13 0 2 1 4 rlinecurve
            return
          </CharString>
          <CharString index="34">
            842 25 rmoveto
            -177 291 71 15 166 48 21 102 rlinecurve
            113 24 -148 90 -185 hhcurveto
            -324 -74 callgsubr
            70 -93 callgsubr
            56 260 rlineto
            193 hlineto
            return
          </CharString>
          <CharString index="35">
            -100 callgsubr
            80 235 rmoveto
            6 -21 callgsubr
            -23 -30 4 -36 hhcurveto
            -43 -44 -19 -33 -34 hvcurveto
            -2 -2 -2 -3 -1 -4 rrcurveto
            -4 vlineto
            5 -34 rlineto
            0 1 -3 1 117 callsubr
            19 54 callgsubr
            -11 -49 -4 -22 rcurveline
            -7 -2 6 -7 7 hhcurveto
            5 hlineto
            8 7 7 7 2 hvcurveto
            4 22 27 3 28 8 26 12 rlinecurve
            25 11 20 83 callsubr
          </CharString>
          <CharString index="36">
            29 6 -29 0 -11 hhcurveto
            -65 hlineto
            return
          </CharString>
          <CharString index="37">
            rmoveto
            105 493 -93 callsubr
            -70 -88 callgsubr
            -103 -486 rlineto
            -32 -7 -8 -36 -109 hhcurveto
            -26 hlineto
            -6 -2 -21 3 -6 1 -56 11 -23 34 -11 14 rrcurveto
            4 -3 -3 5 -6 hhcurveto
            -11 -4 -11 -5 -3 hvcurveto
            -5 -13 -34 -85 -2 -7 -2 -11 6 -2 21 -8 rrcurveto
            -13 32 74 -22 95 hhcurveto
            123 123 36 132 28 hvcurveto
            return
          </CharString>
          <CharString index="38">
            -73 callsubr
            hintmask 11100010
            170 -285 rlineto
            -19 11 14 0 19 hhcurveto
            74 hlineto
            20 12 0 25 5 hvcurveto
            -74 455 rmoveto
            -100 -21 -157 0 -37 hhcurveto
            -213 hlineto
            42 200 rlineto
            215 hlineto
            return
          </CharString>
          <CharString index="39">
            109 callsubr
            hintmask 01000100
            1002 665 rmoveto
            19 4 -17 0 -15 hhcurveto
            -84 hlineto
            -18 -33 0 -33 -36 hvcurveto
            -261 -240 -160 240 rlineto
            33 -22 -34 0 -17 hhcurveto
            -105 hlineto
            -15 -17 0 -19 -4 hvcurveto
            -1 -6 1 -4 6 -9 249 -372 rcurveline
            hintmask 10001000
            -49 -230 27 callsubr
            35 7 hvcurveto
            hintmask 00000100
            49 230 406 373 14 11 0 2 1 6 rlinecurve
            return
          </CharString>
          <CharString index="40">
            rmoveto
            -25 -6 -39 0 -37 hhcurveto
            -37 -39 0 25 6 hvcurveto
            25 5 39 0 37 hhcurveto
            37 39 0 -25 -5 hvcurveto
            77 hmoveto
            37 7 -88 15 -61 hhcurveto
            -62 -95 -15 -37 -7 hvcurveto
            -37 -8 return
          </CharString>
          <CharString index="41">
            -18 -4 10 0 19 hhcurveto
            19 hlineto
            21 4 0 16 return
          </CharString>
          <CharString index="42">
            rlineto
            145 callgsubr
            -34 -11 -8 -36 -8 hvcurveto
            return
          </CharString>
          <CharString index="43">
            -127 -596 -97 callgsubr
            return
          </CharString>
          <CharString index="44">
            779 42 rmoveto
            41 9 -23 0 -21 hhcurveto
            -444 hlineto
            580 522 14 13 1 5 4 18 rlinecurve
            38 8 -13 5 -30 hhcurveto
            -580 175 callgsubr
            -8 hvcurveto
            -40 -9 23 0 21 hhcurveto
            418 hlineto
            -580 -523 -15 -13 -1 -5 -4 -19 rlinecurve
            -94 callgsubr
            606 hlineto
            24 20 1 41 9 hvcurveto
            return
          </CharString>
          <CharString index="45">
            19 86 rlineto
            28 6 -1 0 -36 hhcurveto
            51 91 6 11 2 2 1 4 rlinecurve
            -60 callgsubr
            -15 96 callsubr
            -93 -117 -22 -104 rlineto
            -26 -5 0 -2 27 hhcurveto
            86 19 callgsubr
            return
          </CharString>
          <CharString index="46">
            -9 0 -19 hhcurveto
            -20 hlineto
            -21 -4 0 -16 return
          </CharString>
          <CharString index="47">
            rmoveto
            18 4 -61 callsubr
            return
          </CharString>
          <CharString index="48">
            rmoveto
            8 34 60 callsubr
            -441 152 callsubr
            440 46 callgsubr
          </CharString>
          <CharString index="49">
            26 callgsubr
            -7 hvcurveto
            -127 -594 -97 callgsubr
            return
          </CharString>
          <CharString index="50">
            rlineto
            34 7 -5 -48 callgsubr
            -56 26 callgsubr
            -8 hvcurveto
            return
          </CharString>
          <CharString index="51">
            -51 callsubr
            hintmask 00010000
            -27 callgsubr
            hintmask 00001000
            15 callgsubr
            hintmask 00010000
            -7 callsubr
            hintmask 00001000
            -23 callgsubr
            hintmask 00010000
            -1 56 -7 -34 callsubr
          </CharString>
          <CharString index="52">
            561 38 28 callsubr
            -304 hlineto
            415 388 12 12 3 2 4 20 rlinecurve
            40 8 -23 0 -21 hhcurveto
            -404 hlineto
            -17 -27 0 -36 -7 hvcurveto
            -37 -8 26 0 18 hhcurveto
            282 hlineto
            -416 -389 -13 -12 -2 -3 -4 -20 rlinecurve
            -41 -9 23 0 21 hhcurveto
            427 -22 callsubr
            return
          </CharString>
          <CharString index="53">
            -42 callsubr
            -86 -52 callsubr
            return
          </CharString>
          <CharString index="54">
            -97 callgsubr
            72 -93 callgsubr
            return
          </CharString>
          <CharString index="55">
            hlineto
            -26 -3 -2 -26 -5 hvcurveto
            return
          </CharString>
          <CharString index="56">
            -60 callsubr
            -7 hvcurveto
            return
          </CharString>
          <CharString index="57">
            -10 36 hhcurveto
            return
          </CharString>
          <CharString index="58">
            -74 callgsubr
            38 -93 callgsubr
            return
          </CharString>
          <CharString index="59">
            118 callgsubr
            hintmask 00100000
            -66 callsubr
            return
          </CharString>
          <CharString index="60">
            -4 -21 -1 -4 -30 -10 rrcurveto
            -7 -24 -20 0 -16 hhcurveto
            -15 -26 0 9 -40 hvcurveto
            -9 2 rlineto
            -10 -3 -5 -22 -14 hvcurveto
            -7 -11 -14 -20 -4 vvcurveto
            -4 -15 32 -6 40 -9 rrcurveto
            -8 41 39 -1 18 hhcurveto
            99 95 52 89 19 hvcurveto
            return
          </CharString>
          <CharString index="61">
            -20 hstemhm
            hintmask 10000000
            -1 callgsubr
            hintmask 01100000
            return
          </CharString>
          <CharString index="62">
            429 -1 callsubr
            return
          </CharString>
          <CharString index="63">
            hhcurveto
            -261 -229 -173 -193 -41 hvcurveto
            return
          </CharString>
          <CharString index="64">
            1024 2 callgsubr
            -102 hlineto
            -22 -24 0 -37 -25 hvcurveto
            -346 -494 -137 494 rlineto
            37 -11 -24 0 -22 hhcurveto
            -102 -49 callsubr
            109 509 rlineto
            1 hlineto
            136 -495 rlineto
            -37 10 24 0 22 hhcurveto
            30 hlineto
            22 24 0 37 26 hvcurveto
            350 499 rlineto
            1 hlineto
            -109 -513 -97 callgsubr
            43 -93 callgsubr
            return
          </CharString>
          <CharString index="65">
            26 5 0 2 -27 hhcurveto
            return
          </CharString>
          <CharString index="66">
            1068 639 rmoveto
            40 8 -18 2 -25 hhcurveto
            -794 77 callgsubr
            -41 -9 hvcurveto
            -40 -8 18 -2 25 hhcurveto
            317 hlineto
            return
          </CharString>
          <CharString index="67">
            -31 callsubr
            257 62 8 2 return
          </CharString>
          <CharString index="68">
            40 9 -23 0 -21 hhcurveto
            -289 hlineto
            44 207 rlineto
            328 -25 callgsubr
            8 -22 callgsubr
            -617 hlineto
            -33 -17 -7 -31 -23 hvcurveto
            -436 -605 -7 -10 -3 -3 -1 -6 rlinecurve
            -22 -5 20 0 15 hhcurveto
            63 hlineto
            22 24 0 36 26 hvcurveto
            97 134 rlineto
            279 hlineto
            -27 -126 -97 callgsubr
            462 -45 callgsubr
            -501 231 rmoveto
            -227 hlineto
            237 327 rlineto
            60 hlineto
            return
          </CharString>
          <CharString index="69">
            -8 -7 -7 -8 -2 hvcurveto
            -24 -115 rlineto
            -9 -2 8 -3 8 hhcurveto
            22 hlineto
            -58 -102 rlineto
            -12 -6 5 -7 12 hhcurveto
            43 hlineto
            5 3 2 6 4 hvcurveto
            return
          </CharString>
          <CharString index="70">
            66 callsubr
            -13 hvcurveto
            -46 -58 -4 -4 -5 -7 -2 -6 rlinecurve
            -14 -3 14 91 callsubr
            127 73 12 7 4 6 1 4 rlinecurve
            return
          </CharString>
          <CharString index="71">
            117 24 -71 91 -108 hhcurveto
            -111 -110 -92 -116 -24 hvcurveto
            -116 -25 71 -92 110 hhcurveto
            108 111 91 117 25 hvcurveto
            return
          </CharString>
          <CharString index="72">
            rmoveto
            -49 callgsubr
            7 34 42 40 37 21 rrcurveto
            return
          </CharString>
          <CharString index="73">
            46 callsubr
            10 hvcurveto
            endchar
          </CharString>
          <CharString index="74">
            -51 -11 -85 -46 -102 hhcurveto
            -61 -108 15 96 -79 hvcurveto
            3 -2 -4 4 -6 hhcurveto
            -11 -3 -9 -12 -5 hvcurveto
            return
          </CharString>
          <CharString index="75">
            28 callsubr
            -278 -26 callgsubr
            278 64 callgsubr
          </CharString>
          <CharString index="76">
            -7 6 -7 hhcurveto
            -174 hlineto
            -8 -2 -154 -62 -6 -2 -3 -5 -1 -7 rlinecurve
            -9 -2 8 -3 8 hhcurveto
            72 hlineto
            return
          </CharString>
          <CharString index="77">
            564 147 -70 callsubr
            return
          </CharString>
          <CharString index="78">
            1323 -21 76 -55 86 228 80 207 83 -55 76 hstemhm
            hintmask 01110000
            1274 43 rmoveto
            38 8 -13 5 -30 hhcurveto
            -429 hlineto
            49 228 rlineto
            371 47 callgsubr
            40 8 hvcurveto
            40 9 -23 0 -21 hhcurveto
            -371 hlineto
            44 207 rlineto
            410 -25 callgsubr
            8 -22 callgsubr
            -492 hlineto
            -38 -47 7 4 -25 hvcurveto
            hintmask 10001000
            10 -70 -32 0 -12 hhcurveto
            -261 -233 -172 -194 -41 hvcurveto
            -195 -41 166 -165 255 hhcurveto
            18 30 0 11 72 hvcurveto
            hintmask 01000000
            5 42 44 5 28 hhcurveto
            511 -45 callgsubr
            -595 162 rmoveto
            hintmask 10001000
            -132 -28 -45 -18 -103 hhcurveto
            -200 -76 158 141 30 hvcurveto
            137 29 143 138 196 hhcurveto
            103 37 -18 -132 -28 hvcurveto
            endchar
          </CharString>
          <CharString index="79">
            105 callsubr
            128 104 462 -20 return
          </CharString>
          <CharString index="80">
            979 0 104 196 84 196 104 hstemhm
            123 158 -116 158 -140 158 475 158 cntrmask 11100000
            hintmask 11100100
            115 callsubr
            -54 -256 rlineto
            -42 hlineto
            -17 -17 -14 -17 -4 hvcurveto
            -5 -22 rlineto
            hintmask 11110000
            -17 -3 11 -14 17 hhcurveto
            hintmask 11101010
            42 hlineto
            -55 -256 93 callgsubr
            hintmask 11110000
            -194 hlineto
            hintmask 11101000
            42 196 rlineto
            127 151 callsubr
            3 hvcurveto
            5 144 callsubr
            hintmask 11100110
            -127 hlineto
            41 196 158 callsubr
          </CharString>
          <CharString index="81">
            -43 -44 -19 -33 -34 hvcurveto
            -3 -2 return
          </CharString>
          <CharString index="82">
            58 rmoveto
            21 96 -89 59 -70 20 29 11 122 52 24 114 rrcurveto
            95 20 -103 71 -140 hhcurveto
            -98 -94 -35 -60 -83 hvcurveto
            0 -4 -4 -1 -6 vhcurveto
            -1 -6 4 -5 3 -6 27 -40 rcurveline
            -4 3 4 -7 8 hhcurveto
            6 5 4 4 4 hvcurveto
            22 23 71 67 104 hhcurveto
            54 50 -19 -71 -15 hvcurveto
            -16 -78 -79 -50 -53 -3 rrcurveto
            hintmask 10100100
            -67 -4 -24 -1 -1 -6 -5 -22 rlinecurve
            -4 -20 rlineto
            -26 -5 0 -2 27 hhcurveto
            69 hlineto
            94 38 -55 -84 -17 hvcurveto
            -97 -21 -72 -42 -78 hhcurveto
            hintmask 01000000
            -53 -88 14 67 -69 hvcurveto
            13 -11 -2 0 -4 hhcurveto
            -11 -4 -9 -19 -8 hvcurveto
            -6 -12 -9 -22 -1 -3 rrcurveto
            -1 -5 2 -5 0 vvcurveto
            hintmask 10000000
            -76 78 91 -23 82 hhcurveto
            176 145 106 112 23 hvcurveto
            endchar
          </CharString>
          <CharString index="83">
            rmoveto
            5 -21 callgsubr
            -22 -30 4 -36 hhcurveto
            return
          </CharString>
          <CharString index="84">
            140 rmoveto
            1 vlineto
            13 -13 1 -10 vhcurveto
            -101 hlineto
            hintmask 10000000
            -29 21 -43 -100 hhcurveto
            hintmask 00111000
            -64 -63 6 -64 hhcurveto
            107 45 125 18 82 88 rrcurveto
            28 31 22 58 42 vvcurveto
            134 1 -171 42 -95 hhcurveto
            -17 hlineto
            -98 -5 -104 -55 -38 -90 rrcurveto
            -6 -11 -6 -15 -13 vvcurveto
            -13 1 13 -1 11 hhcurveto
            75 hlineto
            6 7 -1 7 hhcurveto
            29 -4 19 19 8 hvcurveto
            45 19 36 44 51 hhcurveto
            51 81 -12 -75 hvcurveto
            -1 -36 -14 -29 -31 -16 -74 -44 -86 -21 -78 -34 -92 -39 -90 -68 -35 -97 rrcurveto
            -4 -11 -4 -13 -10 vvcurveto
            hintmask 01000000
            -12 10 -2 10 vhcurveto
            104 hlineto
            hintmask 00100000
            30 -3 64 29 hhcurveto
            hintmask 01000000
            -4 96 81 -60 101 hhcurveto
            88 108 36 83 44 hvcurveto
            6 12 7 15 14 vvcurveto
            endchar
          </CharString>
          <CharString index="85">
            hlineto
            19 25 0 38 8 hvcurveto
            return
          </CharString>
          <CharString index="86">
            197 rmoveto
            20 96 -88 59 -71 20 29 11 122 52 25 114 rrcurveto
            95 20 -103 71 -140 hhcurveto
            -98 -94 -35 -60 -83 hvcurveto
            0 -4 -4 -1 -6 vhcurveto
            -2 -6 4 -5 4 -6 27 -40 rcurveline
            -4 3 3 -7 8 hhcurveto
            6 5 4 4 5 hvcurveto
            22 23 71 67 104 hhcurveto
            54 50 -19 -71 -15 hvcurveto
            -17 -78 -79 -50 -52 -3 -67 -4 rcurveline
            -24 -1 -1 -6 -5 -22 -4 -20 rcurveline
            -26 -6 1 -2 27 hhcurveto
            69 hlineto
            94 38 -55 -84 -18 hvcurveto
            -97 -21 -71 -42 -78 hhcurveto
            -53 -88 14 67 -69 hvcurveto
            13 -11 -2 0 -4 hhcurveto
            -11 -4 -9 -19 -8 hvcurveto
            -6 -12 -10 -22 -3 vvcurveto
            -1 -5 2 -5 0 vvcurveto
            -76 77 92 -23 82 hhcurveto
            176 144 106 112 24 hvcurveto
            endchar
          </CharString>
          <CharString index="87">
            -20 hstemhm
            248 99 callgsubr
            hintmask 10011000
            -2 callgsubr
            hintmask 01100000
            return
          </CharString>
          <CharString index="88">
            rmoveto
            77 16 -91 10 -112 hhcurveto
            -112 -95 -10 -77 -16 hvcurveto
            -18 -4 10 -14 19 hhcurveto
            11 7 82 callsubr
            12 25 callgsubr
          </CharString>
          <CharString index="89">
            12 56 -93 callsubr
            -55 -88 callgsubr
            return
          </CharString>
          <CharString index="90">
            214 rmoveto
            251 54 -99 111 -160 hhcurveto
            -108 -62 -38 -36 -50 hvcurveto
            hintmask 11001000
            -79 -55 -31 -57 -14 -65 -13 -62 2 -58 46 -58 rrcurveto
            -31 24 36 -40 90 hhcurveto
            73 73 35 82 63 hvcurveto
            -14 -62 -15 -61 -44 -59 rrcurveto
            -46 -34 -65 -45 -81 hhcurveto
            -47 -38 11 28 -36 hvcurveto
            4 -5 -2 3 -5 hhcurveto
            -7 -1 -1 -27 -22 hvcurveto
            -10 -12 -15 -18 -1 -5 rrcurveto
            hintmask 11010000
            -2 -9 7 -4 16 -10 rrcurveto
            -26 43 43 -14 65 hhcurveto
            185 194 154 220 46 hvcurveto
            -131 105 rmoveto
            -121 -26 -89 -46 -64 hhcurveto
            hintmask 00101000
            -125 20 92 80 17 hvcurveto
            71 15 22 105 139 hhcurveto
            126 -23 -125 -56 -12 hvcurveto
            endchar
          </CharString>
          <CharString index="91">
            854 0 86 227 80 206 85 return
          </CharString>
          <CharString index="92">
            hstemhm
            hintmask 01111000
            805 43 rmoveto
            38 8 -13 5 -30 hhcurveto
            -491 hlineto
            49 227 rlineto
            433 47 callgsubr
            40 8 hvcurveto
            40 9 -23 0 -21 hhcurveto
            -433 hlineto
            43 206 rlineto
            472 hlineto
            21 23 0 41 9 -22 callgsubr
            -588 -58 callsubr
            460 hlineto
            -39 -28 -51 -46 -9 -44 56 callgsubr
            hintmask 10100000
            85 callsubr
            66 -45 callgsubr
            return
          </CharString>
          <CharString index="93">
            hstemhm
            -10 callsubr
            return
          </CharString>
          <CharString index="94">
            197 rmoveto
            17 80 -60 68 -99 30 66 16 109 50 18 86 rrcurveto
            96 20 -90 92 -157 hhcurveto
            -160 -128 -94 -94 -20 hvcurveto
            -18 -86 87 -50 58 -16 -1 -1 rcurveline
            hintmask 00010000
            -111 -29 -87 -68 -17 -80 rrcurveto
            hintmask 11000110
            -113 -24 99 -105 165 hhcurveto
            169 140 106 112 24 hvcurveto
            -90 330 rmoveto
            -47 -10 -17 -67 -123 hhcurveto
            hintmask 10101001
            -122 8 64 50 11 hvcurveto
            64 14 25 48 111 hhcurveto
            110 7 -45 -67 -14 hvcurveto
            -61 -330 rmoveto
            -54 -12 -17 -84 -135 hhcurveto
            hintmask 01010010
            -134 15 80 58 12 hvcurveto
            48 10 20 92 135 hhcurveto
            136 -20 -92 -48 -10 hvcurveto
            endchar
          </CharString>
          <CharString index="95">
            353 rmoveto
            251 53 -98 111 -160 hhcurveto
            -108 -62 -38 -36 -51 hvcurveto
            -78 -55 -32 -57 -13 -65 -14 -62 2 -58 47 -58 rrcurveto
            -31 23 37 -40 90 hhcurveto
            73 72 35 82 64 hvcurveto
            -15 -62 -15 -61 -43 -59 rrcurveto
            -46 -35 -64 -45 -81 hhcurveto
            -47 -38 11 28 -36 hvcurveto
            4 -5 -3 3 -5 hhcurveto
            -7 -1 -1 -27 -22 hvcurveto
            -9 -12 -15 -18 -1 -5 -2 -9 6 -4 17 -10 rrcurveto
            -26 43 43 -14 65 hhcurveto
            185 193 154 220 47 hvcurveto
            -132 105 rmoveto
            -121 -25 -89 -46 -64 hhcurveto
            -125 19 92 80 17 hvcurveto
            71 16 22 105 139 hhcurveto
            126 -24 -125 -56 -12 hvcurveto
            endchar
          </CharString>
          <CharString index="96">
            889 0 26 658 -20 hstem
            47 801 vstem
            848 19 rmoveto
            2 7 -1 0 -10 13 -241 324 rcurveline
            316 282 rlineto
            14 12 1 8 0 vvcurveto
            19 4 -18 0 -14 hhcurveto
            -106 hlineto
            -16 -17 0 -18 -19 hvcurveto
            -208 -192 -127 192 rlineto
            18 -13 -17 0 -16 hhcurveto
            -121 hlineto
            -15 -18 0 -19 -4 hvcurveto
            -1 -5 1 -5 10 -13 210 -279 rcurveline
            -362 -325 -13 -11 -1 -2 -1 -6 rlinecurve
            -19 -4 16 0 16 hhcurveto
            106 hlineto
            31 5 5 16 17 hvcurveto
            256 243 154 -244 rlineto
            -20 13 14 0 19 hhcurveto
            122 hlineto
            15 17 0 19 4 hvcurveto
            endchar
          </CharString>
          <CharString index="97">
            92 callgsubr
            72 146 167 146 return
          </CharString>
          <CharString index="98">
            903 0 104 214 76 186 104 hstem
            713 155 vstem
            868 196 rmoveto
            20 94 -130 53 -107 16 84 15 141 43 18 85 rrcurveto
            105 22 -148 77 -169 hhcurveto
            -309 -74 callgsubr
            346 hlineto
            175 178 85 111 24 hvcurveto
            -128 304 rmoveto
            -62 -13 -122 -44 -102 hhcurveto
            -161 hlineto
            39 186 rlineto
            159 hlineto
            58 156 -17 -63 -14 hvcurveto
            -27 -303 rmoveto
            -64 -14 -138 -29 -86 hhcurveto
            -195 hlineto
            46 214 rlineto
            165 hlineto
            141 95 -55 -66 -14 hvcurveto
            endchar
          </CharString>
          <CharString index="99">
            -104 callgsubr
            -45 177 -24 callsubr
            return
          </CharString>
          <CharString index="100">
            -66 callsubr
            7 hvcurveto
            return
          </CharString>
          <CharString index="101">
            43 callgsubr
            156 33 -107 131 -170 hhcurveto
            -174 -161 -133 -154 -32 hvcurveto
            -30 -138 88 -117 147 -18 -39 -29 -42 -41 -9 -41 56 callgsubr
            -11 -30 -27 -6 -24 hhcurveto
            -20 -26 3 27 6 hvcurveto
            6 30 34 35 33 22 159 16 140 119 30 139 rrcurveto
            -144 12 rmoveto
            -60 -13 -31 -149 -159 hhcurveto
            -160 31 148 61 13 hvcurveto
            57 12 30 142 159 hhcurveto
            160 -30 -141 -58 -12 hvcurveto
            return
          </CharString>
          <CharString index="102">
            77 rmoveto
            126 27 -90 108 -149 hhcurveto
            -37 -39 -7 -14 -38 hvcurveto
            40 192 rlineto
            282 hlineto
            21 23 0 41 9 -22 callgsubr
            -381 hlineto
            -31 -14 -6 -39 -8 hvcurveto
            -69 -322 rlineto
            -37 -8 9 -8 34 hhcurveto
            22 hlineto
            21 7 0 16 15 hvcurveto
            18 17 47 48 94 hhcurveto
            105 -22 -101 -49 -10 hvcurveto
            -51 -11 -24 -114 -151 hhcurveto
            -39 -83 11 85 -45 hvcurveto
            8 -4 -2 4 -7 hhcurveto
            -7 -5 -5 -7 -8 hvcurveto
            -19 -19 -32 -32 -2 -7 -3 -15 50 -44 39 -22 rrcurveto
            -22 38 51 -15 62 hhcurveto
            175 158 108 129 27 hvcurveto
            endchar
          </CharString>
          <CharString index="103">
            -61 callsubr
            -6 hvcurveto
            hintmask 01000000
            -27 callgsubr
            hintmask 00100000
            28 callgsubr
            hintmask 01000000
            5 callsubr
            hintmask 00100000
            -23 callgsubr
            hintmask 01000000
            38 callgsubr
            return
          </CharString>
          <CharString index="104">
            -100 callgsubr
            29 257 -51 callsubr
            return
          </CharString>
          <CharString index="105">
            -314 541 rmoveto
            -90 callgsubr
            314 -91 callgsubr
            return
          </CharString>
          <CharString index="106">
            682 -83 callsubr
            return
          </CharString>
          <CharString index="107">
            43 rmoveto
            38 8 -13 5 -30 hhcurveto
            -364 hlineto
            85 56 85 56 88 51 106 61 105 60 24 114 rrcurveto
            136 29 -101 95 -172 hhcurveto
            -64 -56 -11 -33 -59 hvcurveto
            -58 -32 -60 -58 -2 -12 -1 -6 1 -2 9 -11 41 -53 rcurveline
            -10 8 3 -1 3 hhcurveto
            10 4 6 16 8 hvcurveto
            60 33 50 64 93 hhcurveto
            85 64 -54 -96 -21 hvcurveto
            -7 -36 -20 -53 -83 -65 -53 -43 -62 -38 -32 -23 -215 -153 rcurveline
            -13 -10 -1 -1 -4 -18 rrcurveto
            -40 -9 19 -2 25 hhcurveto
            461 101 callsubr
          </CharString>
          <CharString index="108">
            26 6 -1 2 -27 hhcurveto
            -86 hlineto
            80 callgsubr
            return
          </CharString>
          <CharString index="109">
            278 rmoveto
            18 82 0 83 -43 59 rrcurveto
            57 -44 -78 18 -80 hhcurveto
            -80 -86 -18 -57 -68 hvcurveto
            -69 -59 -34 -83 -18 -82 -17 -82 -1 -83 43 -59 rrcurveto
            -57 44 79 -18 80 hhcurveto
            80 85 18 57 68 hvcurveto
            69 59 35 83 17 82 rrcurveto
            -147 hmoveto
            -12 -58 -18 -60 -41 -49 rrcurveto
            -36 -32 -45 -20 -43 hhcurveto
            -43 -37 20 36 -16 hvcurveto
            -21 49 8 60 12 58 12 58 18 60 42 49 rrcurveto
            36 31 45 20 43 hhcurveto
            43 37 -20 -36 17 hvcurveto
            20 -49 -8 -60 -12 -58 rrcurveto
            endchar
          </CharString>
          <CharString index="110">
            865 21 -21 252 90 238 104 163 callsubr
            461 155 vstem
            886 461 rmoveto
            123 26 -126 100 -173 hhcurveto
            -323 -74 callgsubr
            72 hlineto
            34 12 8 36 7 hvcurveto
            45 208 rlineto
            208 hlineto
            170 168 92 117 25 hvcurveto
            -155 hmoveto
            -95 -20 -91 -24 -99 hhcurveto
            -189 hlineto
            50 238 rlineto
            191 hlineto
            101 77 -24 -95 -20 hvcurveto
            endchar
          </CharString>
          <CharString index="111">
            -21 104 -20 175 callsubr
            hintmask 11100100
            -107 callsubr
            hintmask 00011000
            return
          </CharString>
          <CharString index="112">
            -66 callsubr
            6 hvcurveto
            return
          </CharString>
          <CharString index="113">
            40 rmoveto
            40 8 -23 0 -21 hhcurveto
            -83 hlineto
            96 452 -93 callsubr
            -92 hlineto
            -30 -5 -5 -15 -13 hvcurveto
            -392 -461 -13 -15 -1 -3 -4 -19 rlinecurve
            -3 -14 -97 callgsubr
            hintmask 01001000
            311 hlineto
            hintmask 10010000
            -20 -95 rlineto
            -34 -7 5 -50 callsubr
            41 hlineto
            34 12 8 36 8 hvcurveto
            hintmask 01001000
            20 95 rlineto
            83 47 callgsubr
            40 9 hvcurveto
            -245 40 rmoveto
            -243 hlineto
            325 387 rlineto
            hintmask 01000100
            endchar
          </CharString>
          <CharString index="114">
            -60 callsubr
            -6 hvcurveto
            return
          </CharString>
          <CharString index="115">
            135 306 -101 callsubr
            return
          </CharString>
          <CharString index="116">
            611 37 rmoveto
            99 467 -65 callsubr
            -7 -32 rlineto
            33 -16 -34 43 -73 hhcurveto
            -146 -153 -122 -156 -34 hvcurveto
            -142 -30 106 -103 139 hhcurveto
            95 54 80 28 17 hvcurveto
            1 -1 -26 -121 rlineto
            -72 -15 -66 -24 -60 hhcurveto
            -74 -63 15 32 -58 hvcurveto
            6 -11 -4 3 -5 hhcurveto
            hintmask 01000000
            -14 -3 -14 -15 -3 hvcurveto
            -9 -43 -6 -25 1 -1 28 -7 rlinecurve
            return
          </CharString>
          <CharString index="117">
            -292 -21 110 127 return
          </CharString>
          <CharString index="118">
            716 -100 callgsubr
            return
          </CharString>
          <CharString index="119">
            848 -47 rmoveto
            40 33 -26 32 -6 8 -198 252 rcurveline
            305 252 20 16 24 28 -21 27 rlinecurve
            -25 33 -40 -33 -9 -7 -305 -252 rcurveline
            -198 252 -5 7 -27 33 -39 -32 rlinecurve
            -39 -32 25 -33 7 -7 198 -252 rcurveline
            -306 -253 -20 -16 -24 -28 21 -27 rlinecurve
            25 -33 40 33 9 7 305 253 rcurveline
            199 -252 5 -7 26 -34 39 32 rlinecurve
            return
          </CharString>
          <CharString index="120">
            rmoveto
            10 5 -6 10 -11 hhcurveto
            -48 hlineto
            -4 -5 -2 -4 -2 hvcurveto
            -217 -298 -3 -4 0 -5 1 -4 rlinecurve
            90 -298 rlineto
            -6 1 5 -4 7 hhcurveto
            48 hlineto
            8 6 7 8 hvcurveto
            -19 295 rlineto
            return
          </CharString>
          <CharString index="121">
            66 callsubr
            -12 hvcurveto
            return
          </CharString>
          <CharString index="122">
            -25 callgsubr
            9 hvcurveto
            return
          </CharString>
          <CharString index="123">
            1059 -21 81 566 79 return
          </CharString>
          <CharString index="124">
            38 rmoveto
            38 8 -27 0 -17 hhcurveto
            -114 hlineto
            127 595 rlineto
            24 5 3 20 -41 hhcurveto
            -17 -4 0 -9 -14 hvcurveto
            -25 -17 -62 -42 -132 -1 rrcurveto
            -22 -27 0 -38 93 callsubr
            24 0 25 hhcurveto
            36 47 4 12 52 hvcurveto
            hintmask 10010000
            -109 -510 rlineto
            -125 hlineto
            -20 -24 0 -38 93 callsubr
            24 0 20 hhcurveto
            389 hlineto
            hintmask 00001000
            17 27 0 38 8 hvcurveto
            endchar
          </CharString>
          <CharString index="125">
            40 rmoveto
            23 4 -23 14 -33 hhcurveto
            -99 hlineto
            95 447 rlineto
            29 7 -23 23 -25 hhcurveto
            -23 -18 -14 -9 -20 hvcurveto
            -59 -24 -58 -3 -63 -4 rrcurveto
            -20 hlineto
            -28 -8 -22 -21 -1 hvcurveto
            -1 -2 rlineto
            -21 21 -11 20 45 45 5 6 44 vhcurveto
            hintmask 10010000
            -81 -379 rlineto
            -127 hlineto
            -23 -21 -17 -21 -5 hvcurveto
            -17 -3 17 -22 17 hhcurveto
            380 hlineto
            hintmask 00001000
            41 21 18 22 5 hvcurveto
            endchar
          </CharString>
          <CharString index="126">
            168 192 41 hvcurveto
            return
          </CharString>
          <CharString index="127">
            58 callsubr
            -469 417 rmoveto
            hintmask 00111110
            -77 -16 -50 -56 -41 hhcurveto
            -76 19 89 43 9 hvcurveto
            45 10 18 88 76 hhcurveto
            43 24 -59 -73 -16 hvcurveto
            endchar
          </CharString>
          <CharString index="128">
            rmoveto
            7 1 -31 callsubr
            return
          </CharString>
          <CharString index="129">
            841 232 rmoveto
            87 408 -93 callsubr
            -58 -88 callgsubr
            return
          </CharString>
          <CharString index="130">
            181 50 callgsubr
            return
          </CharString>
          <CharString index="131">
            42 callgsubr
            109 callgsubr
            return
          </CharString>
          <CharString index="132">
            -36 -9 40 -67 hhcurveto
            -81 -53 -49 -48 return
          </CharString>
          <CharString index="133">
            382 143 callgsubr
            239 65 callgsubr
            hintmask 10100000
            48 callsubr
            endchar
          </CharString>
          <CharString index="134">
            -97 callgsubr
            70 hlineto
            34 12 8 return
          </CharString>
          <CharString index="135">
            rmoveto
            -13 callgsubr
            return
          </CharString>
          <CharString index="136">
            rmoveto
            22 callgsubr
            return
          </CharString>
          <CharString index="137">
            14 -6 0 14 -23 hhcurveto
            hintmask 10000000
            -6 -5 -1 -5 hhcurveto
            -65 hlineto
            hintmask 01000000
            -6 -6 1 -6 hhcurveto
            -5 -5 197 callsubr
            -5 -1 -4 -6 -1 -6 rrcurveto
            -13 21 -10 11 -9 vhcurveto
            50 -39 rlineto
            hintmask 10000000
            -9 13 9 -11 19 hhcurveto
            hintmask 01000000
            7 5 1 6 hhcurveto
            hintmask 10000000
            5 6 -1 5 hhcurveto
            10 9 5 11 -1 hvcurveto
            return
          </CharString>
          <CharString index="138">
            35 161 180 116 222 -301 rlineto
            -16 12 6 -4 29 hhcurveto
            91 hlineto
            15 17 0 19 4 hvcurveto
            return
          </CharString>
          <CharString index="139">
            -36 callsubr
            -470 hmoveto
            -36 callsubr
            return
          </CharString>
          <CharString index="140">
            523 rmoveto
            -39 callgsubr
            -485 hlineto
            -29 -16 -4 -39 -8 123 callsubr
            12 -5 30 hhcurveto
            65 hlineto
            14 30 0 32 7 hvcurveto
            69 324 219 189 106 77 19 15 2 3 5 22 rrcurveto
            endchar
          </CharString>
          <CharString index="141">
            110 515 rlineto
            32 -25 callgsubr
            8 -22 callgsubr
            -224 77 callgsubr
            -41 -8 hvcurveto
            -40 -9 19 -2 25 hhcurveto
            32 hlineto
            return
          </CharString>
          <CharString index="142">
            611 -143 120 hstem
            166 188 vstem
            373 -37 119 callgsubr
            -20 hvcurveto
            -53 137 callsubr
            -1 -1 -1 -6 rrcurveto
            111 callgsubr
            54 hlineto
            20 1 1 13 15 hvcurveto
            73 69 18 16 0 2 1 5 rlinecurve
            endchar
          </CharString>
          <CharString index="143">
            hstemhm
            690 159 hintmask 10010000
            1121 43 rmoveto
            38 8 -13 5 -30 hhcurveto
            -347 hlineto
            49 228 rlineto
            289 hlineto
            hintmask 00100000
            21 23 0 40 8 hvcurveto
            return
          </CharString>
          <CharString index="144">
            894 -21 104 601 -20 return
          </CharString>
          <CharString index="145">
            32 0 12 hhcurveto
            73 hlineto
            11 33 0 31 6 hvcurveto
            return
          </CharString>
          <CharString index="146">
            194 912 rlineto
            14 3 6 30 -30 hhcurveto
            -31 -6 -29 -15 -3 hvcurveto
            -194 -912 rlineto
            66 callgsubr
            return
          </CharString>
          <CharString index="147">
            -101 callsubr
            29 257 rmoveto
            18 3 -61 callsubr
            -6 hvcurveto
            return
          </CharString>
          <CharString index="148">
            26 34 2 8 36 hvcurveto
            -65 -306 rlineto
            -90 hlineto
            -14 -17 0 -23 -4 hvcurveto
            -23 -5 17 0 14 hhcurveto
            281 hlineto
            12 19 0 23 5 hvcurveto
            return
          </CharString>
          <CharString index="149">
            hstemhm
            85 146 -53 146 return
          </CharString>
          <CharString index="150">
            593 85 hstem
            848 611 rmoveto
            62 -214 5 -106 vhcurveto
            -37 hlineto
            -6 -1 -280 -1 -68 vvcurveto
            -12 13 -3 10 vhcurveto
            25 23 2 26 hhcurveto
            16 16 -1 -3 16 hvcurveto
            -4 52 53 0 53 hhcurveto
            72 70 1 6 71 hvcurveto
            104 hlineto
            15 8 5 12 hvcurveto
            endchar
          </CharString>
          <CharString index="151">
            47 callsubr
            endchar
          </CharString>
          <CharString index="152">
            hvcurveto
            30 19 77 -10 59 hhcurveto
            71 65 -10 -11 return
          </CharString>
          <CharString index="153">
            72 callgsubr
            52 50 47 return
          </CharString>
          <CharString index="154">
            688 651 -21 104 57 callsubr
            return
          </CharString>
          <CharString index="155">
            -14 -3 13 0 15 hhcurveto
            15 hlineto
            21 1 0 15 13 hvcurveto
            return
          </CharString>
          <CharString index="156">
            14 3 3 12 -30 hhcurveto
            -12 -3 0 -5 -10 hvcurveto
            -11 -18 -44 -25 -94 hhcurveto
            -16 -19 0 -23 -5 hvcurveto
            -23 -5 17 0 18 hhcurveto
            return
          </CharString>
          <CharString index="157">
            39 37 -11 -43 -9 hvcurveto
            -10 -46 -56 -30 -37 -2 -49 -3 rcurveline
            -17 0 -4 -13 -3 hvcurveto
            -3 -12 rlineto
            -16 -3 1 -1 19 hhcurveto
            50 hlineto
            67 29 -33 -50 -11 hvcurveto
            -58 -12 -51 -26 -56 hhcurveto
            -38 -64 9 40 -51 hvcurveto
            8 -9 -1 0 -3 hhcurveto
            return
          </CharString>
          <CharString index="158">
            hlineto
            -12 -11 -9 -12 -3 191 callsubr
            -12 -2 7 -9 12 hhcurveto
            return
          </CharString>
          <CharString index="159">
            182 callsubr
            -48 144 return
          </CharString>
          <CharString index="160">
            656 320 rmoveto
            97 21 -28 136 -197 hhcurveto
            -171 -154 -133 -148 -31 hvcurveto
            -153 -33 109 -129 178 hhcurveto
            11 hlineto
            -37 -28 -41 -40 -8 -40 rrcurveto
            -56 -12 38 -30 49 hhcurveto
            56 35 11 23 56 hvcurveto
            return
          </CharString>
          <CharString index="161">
            89 418 rlineto
            88 -22 callsubr
            -13 callgsubr
            -90 hlineto
            10 46 5 21 0 4 35 11 rlinecurve
            7 23 26 1 11 hhcurveto
            38 28 -8 -28 23 hvcurveto
            -4 2 4 -5 7 hhcurveto
            67 callgsubr
            return
          </CharString>
          <CharString index="162">
            -99 callsubr
            314 -91 callgsubr
            endchar
          </CharString>
          <CharString index="163">
            -2 -8 rlinecurve
            -14 -3 return
          </CharString>
          <CharString index="164">
            -20 hstem
            61 callsubr
            return
          </CharString>
          <CharString index="165">
            -7 callgsubr
            -470 68 callgsubr
            return
          </CharString>
          <CharString index="166">
            hstemhm
            110 160 -33 160 249 160 -33 160 return
          </CharString>
          <CharString index="167">
            rlineto
            -42 callsubr
            return
          </CharString>
          <CharString index="168">
            694 644 -101 callsubr
            return
          </CharString>
          <CharString index="169">
            267 203 -100 callgsubr
            return
          </CharString>
          <CharString index="170">
            7 405 -100 callgsubr
            return
          </CharString>
          <CharString index="171">
            hlineto
            -21 -1 0 -15 return
          </CharString>
          <CharString index="172">
            26 callgsubr
            -8 hvcurveto
            23 callgsubr
            return
          </CharString>
          <CharString index="173">
            -60 callgsubr
            -90 64 callsubr
            return
          </CharString>
          <CharString index="174">
            1054 35 callgsubr
            -155 173 -261 -44 callsubr
            return
          </CharString>
          <CharString index="175">
            rrcurveto
            hintmask 00001000
            6 27 rlineto
            hintmask 00000010
            27 5 -1 1 -26 hhcurveto
            -58 hlineto
            hintmask 10001000
            -26 -3 -1 -27 -5 hvcurveto
            -5 -22 -18 -84 -61 -52 -64 -36 rlinecurve
            -36 -21 -41 -33 -12 -56 -8 -39 9 -46 48 -29 rrcurveto
            return
          </CharString>
          <CharString index="176">
            96 52 -33 -57 42 hvcurveto
            -6 3 2 -3 7 75 callsubr
            -4 3 -62 18 -61 8 rrcurveto
            2 -11 -40 5 -60 hhcurveto
            return
          </CharString>
          <CharString index="177">
            78 65 19 57 76 hvcurveto
            59 45 42 49 17 82 rrcurveto
            -151 1 rmoveto
            return
          </CharString>
          <CharString index="178">
            145 121 145 return
          </CharString>
          <CharString index="179">
            -18 -13 -14 -20 -5 -22 rrcurveto
            -40 -8 26 -33 40 hhcurveto
            18 18 7 11 15 hvcurveto
            56 41 113 -24 85 -19 rrcurveto
            -9 41 42 -7 44 hhcurveto
            113 111 89 111 24 hvcurveto
            endchar
          </CharString>
          <CharString index="180">
            753 208 rmoveto
            45 210 rlineto
            64 13 0 5 -67 hhcurveto
            -210 hlineto
            -64 -7 -5 -64 -13 hvcurveto
            -44 -208 rlineto
            -66 -14 4 -5 66 hhcurveto
            208 hlineto
            64 6 5 64 13 hvcurveto
            return
          </CharString>
          <CharString index="181">
            -77 callsubr
            hintmask 00001000
            return
          </CharString>
          <CharString index="182">
            hhcurveto
            11 4 9 12 5 hvcurveto
            39 100 rlineto
            4 8 0 4 0 vvcurveto
            2 9 -6 4 0 vvcurveto
            return
          </CharString>
          <CharString index="183">
            5 -22 0 -15 hhcurveto
            return
          </CharString>
          <CharString index="184">
            rmoveto
            8 34 60 callsubr
            -211 152 callsubr
            210 46 callgsubr
          </CharString>
          <CharString index="185">
            hstemhm
            110 158 419 155 -74 155 return
          </CharString>
          <CharString index="186">
            74 117 -8 -92 -20 hvcurveto
            return
          </CharString>
          <CharString index="187">
            12 -12 2 -9 vhcurveto
            -80 hlineto
            hintmask 10100000
            -6 -7 1 -7 hhcurveto
            -5 -5 197 callsubr
            return
          </CharString>
          <CharString index="188">
            10 0 19 hhcurveto
            19 hlineto
            21 4 0 16 6 hvcurveto
            hintmask 00001000
            -23 callgsubr
            hintmask 00010000
            73 callgsubr
          </CharString>
          <CharString index="189">
            5 5 6 45 callsubr
            return
          </CharString>
          <CharString index="190">
            21 5 24 rrcurveto
            endchar
          </CharString>
          <CharString index="191">
            rmoveto
            -36 callsubr
            return
          </CharString>
          <CharString index="192">
            -11 -30 -27 -6 -24 hhcurveto
            -20 -26 3 27 6 hvcurveto
            7 34 42 40 37 21 rrcurveto
            return
          </CharString>
          <CharString index="193">
            rmoveto
            24 76 callsubr
            return
          </CharString>
          <CharString index="194">
            -40 callsubr
            5 3 return
          </CharString>
          <CharString index="195">
            159 callsubr
            hintmask 00010000
            -15 callgsubr
            -7 hvcurveto
            -32 -7 32 0 12 hhcurveto
            73 hlineto
            11 33 0 31 7 hvcurveto
            hintmask 00100000
            return
          </CharString>
          <CharString index="196">
            13 61 -93 callsubr
            return
          </CharString>
          <CharString index="197">
            764 -21 95 -95 98 533 95 return
          </CharString>
          <CharString index="198">
            0 15 hhcurveto
            37 hlineto
            return
          </CharString>
          <CharString index="199">
            -21 684 -20 return
          </CharString>
          <CharString index="200">
            -8 hvcurveto
            -38 -8 return
          </CharString>
          <CharString index="201">
            490 299 rmoveto
            23 4 -19 0 -12 hhcurveto
            -83 hlineto
            76 357 rlineto
            return
          </CharString>
          <CharString index="202">
            917 -10 97 callgsubr
            return
          </CharString>
          <CharString index="203">
            64 callsubr
            -13 hvcurveto
            return
          </CharString>
          <CharString index="204">
            rmoveto
            14 3 -12 0 -16 hhcurveto
            return
          </CharString>
          <CharString index="205">
            -16 callsubr
            82 -21 return
          </CharString>
          <CharString index="206">
            vstem
            819 51 rmoveto
            3 13 7 64 1 15 rrcurveto
            5 2 11 -12 -5 -1 -1 -11 -15 vhcurveto
            -63 -85 -53 -22 -108 hhcurveto
            return
          </CharString>
          <CharString index="207">
            89 418 rlineto
            97 -22 callsubr
            -13 callgsubr
            -99 hlineto
            10 46 4 19 2 7 23 9 rlinecurve
            return
          </CharString>
          <CharString index="208">
            -45 callgsubr
            endchar
          </CharString>
          <CharString index="209">
            hlineto
            -87 -143 -10 -15 -14 -23 -2 -10 rlinecurve
            -22 -5 13 -23 28 hhcurveto
            30 16 24 11 6 hvcurveto
            123 201 rlineto
            return
          </CharString>
          <CharString index="210">
            -6 -34 callsubr
          </CharString>
          <CharString index="211">
            455 21 163 callgsubr
            return
          </CharString>
          <CharString index="212">
            889 21 -21 return
          </CharString>
          <CharString index="213">
            12 55 5 26 -1 1 -39 6 rlinecurve
            5 -35 -33 0 -9 hhcurveto
            -28 -71 0 -35 -76 hvcurveto
            -78 -36 -9 -42 -5 -22 return
          </CharString>
          <CharString index="214">
            hstemhm
            23 callsubr
            hintmask 11001100
            return
          </CharString>
          <CharString index="215">
            -21 76 -76 80 344 76 160 76 hstemhm
            return
          </CharString>
          <CharString index="216">
            hstemhm
            374 158 -109 158 return
          </CharString>
          <CharString index="217">
            299 150 callsubr
            return
          </CharString>
          <CharString index="218">
            142 -124 142 return
          </CharString>
          <CharString index="219">
            48 38 -29 -44 -9 hvcurveto
            -40 -9 26 -33 40 hhcurveto
            40 40 33 40 9 hvcurveto
            125 26 -90 94 -128 hhcurveto
            return
          </CharString>
          <CharString index="220">
            -94 callgsubr
            56 -93 callgsubr
            return
          </CharString>
          <CharString index="221">
            -3 -8 hhcurveto
            -72 hlineto
            return
          </CharString>
          <CharString index="222">
            974 337 rmoveto
            191 40 -157 156 -225 hhcurveto
            -342 -88 callgsubr
            return
          </CharString>
          <CharString index="223">
            684 0 77 530 77 hstem
            73 77 return
          </CharString>
          <CharString index="224">
            -1 vhcurveto
            9 -5 10 -6 3 6 rrcurveto
            34 return
          </CharString>
          <CharString index="225">
            9 -4 13 vhcurveto
            hintmask 01000000
            6 5 1 5 hhcurveto
            64 hlineto
            hintmask 10000000
            6 6 -1 6 hhcurveto
            24 3 11 return
          </CharString>
          <CharString index="226">
            76 0 76 330 76 146 -20 176 callsubr
            return
          </CharString>
          <CharString index="227">
            688 83 callgsubr
            return
          </CharString>
          <CharString index="228">
            894 -21 104 497 104 return
          </CharString>
          <CharString index="229">
            840 0 83 521 80 return
          </CharString>
          <CharString index="230">
            hvcurveto
            29 callgsubr
            374 hlineto
            -306 -212 -81 -273 -19 -90 rrcurveto
            -38 -8 return
          </CharString>
          <CharString index="231">
            rlineto
            1 hlineto
            82 -297 rlineto
            -22 6 14 0 13 hhcurveto
            18 hlineto
            13 15 0 22 16 hvcurveto
            return
          </CharString>
          <CharString index="232">
            86 515 83 hstemhm
            68 160 -110 160 return
          </CharString>
          <CharString index="233">
            191 callgsubr
            104 callgsubr
            return
          </CharString>
          <CharString index="234">
            16 callsubr
            71 -21 return
          </CharString>
          <CharString index="235">
            4 144 callsubr
            return
          </CharString>
          <CharString index="236">
            -6 72 callgsubr
            return
          </CharString>
          <CharString index="237">
            hhcurveto
            -72 -74 callgsubr
            return
          </CharString>
          <CharString index="238">
            394 rmoveto
            12 58 -65 35 -52 12 21 7 86 31 15 68 rrcurveto
            57 12 -76 43 return
          </CharString>
          <CharString index="239">
            rmoveto
            -80 hlineto
            165 775 5 13 rlineto
            77 hlineto
            -161 -755 rlineto
            endchar
          </CharString>
          <CharString index="240">
            688 -83 -21 94 76 411 76 90 -20 return
          </CharString>
          <CharString index="241">
            hlineto
            -23 -34 144 callgsubr
            return
          </CharString>
          <CharString index="242">
            879 -10 83 538 83 return
          </CharString>
          <CharString index="243">
            899 21 -21 316 80 return
          </CharString>
          <CharString index="244">
            151 callgsubr
            -15 -11 return
          </CharString>
          <CharString index="245">
            899 74 callgsubr
            return
          </CharString>
          <CharString index="246">
            151 -62 141 -141 151 182 151 -90 141 hintmask 00101001
            return
          </CharString>
          <CharString index="247">
            -18 -86 rlineto
            -28 -6 1 0 36 hhcurveto
            -31 -56 -23 -40 -5 -8 -1 -4 rlinecurve
            return
          </CharString>
          <CharString index="248">
            hlineto
            -3 -4 0 -1 -3 hvcurveto
            -19 -2 -10 -23 -18 vvcurveto
            -18 11 -15 26 vhcurveto
            return
          </CharString>
          <CharString index="249">
            34 24 34 hhcurveto
            28 18 -3 -9 return
          </CharString>
          <CharString index="250">
            -21 80 278 76 226 76 return
          </CharString>
          <CharString index="251">
            22 rlineto
            129 callgsubr
            return
          </CharString>
          <CharString index="252">
            1 7 hhcurveto
            hintmask 10000000
            -1 return
          </CharString>
          <CharString index="253">
            1 6 -2 7 return
          </CharString>
          <CharString index="254">
            144 callgsubr
            10 hhcurveto
            hintmask 01001000
            357 hlineto
            hintmask 10010000
            return
          </CharString>
          <CharString index="255">
            109 callgsubr
            34 12 8 36 7 hvcurveto
            return
          </CharString>
          <CharString index="256">
            96 450 -93 callsubr
            return
          </CharString>
          <CharString index="257">
            21 167 callsubr
            return
          </CharString>
          <CharString index="258">
            hlineto
            17 17 14 17 return
          </CharString>
          <CharString index="259">
            -52 callsubr
            -7 -33 rlineto
            -27 -6 1 -2 27 hhcurveto
            return
          </CharString>
          <CharString index="260">
            854 -204 79 -79 86 118 86 227 80 206 85 return
          </CharString>
          <CharString index="261">
            -2 -26 -6 hvcurveto
            return
          </CharString>
          <CharString index="262">
            1375 18 -21 236 91 236 -20 hstem
            1357 return
          </CharString>
          <CharString index="263">
            hlineto
            28 4 -7 8 -33 hhcurveto
            -56 hlineto
            -31 -13 -7 -29 -8 hvcurveto
            return
          </CharString>
          <CharString index="264">
            -27 -6 2 -1 26 hhcurveto
            58 hlineto
            26 2 1 27 6 hvcurveto
            4 return
          </CharString>
          <CharString index="265">
            rlineto
            192 hlineto
            162 117 -66 -177 -37 hvcurveto
            endchar
          </CharString>
          <CharString index="266">
            rmoveto
            -70 callgsubr
            return
          </CharString>
          <CharString index="267">
            182 callsubr
            -15 144 return
          </CharString>
          <CharString index="268">
            151 callsubr
            4 hvcurveto
            return
          </CharString>
          <CharString index="269">
            1054 339 rmoveto
            return
          </CharString>
          <CharString index="270">
            hstem
            110 160 return
          </CharString>
          <CharString index="271">
            -4 -17 -3 hvcurveto
            -60 -282 rlineto
            -16 -4 3 -5 17 hhcurveto
            return
          </CharString>
          <CharString index="272">
            230 127 callgsubr
            return
          </CharString>
          <CharString index="273">
            -1 56 103 callsubr
          </CharString>
          <CharString index="274">
            -21 538 -20 return
          </CharString>
          <CharString index="275">
            535 -187 -21 972 -20 21 -20 hstemhm
            hintmask 00100000
            return
          </CharString>
          <CharString index="276">
            139 callgsubr
            -8 hvcurveto
            29 callgsubr
            return
          </CharString>
          <CharString index="277">
            rmoveto
            29 6 -14 27 -37 hhcurveto
            -21 -26 -9 -10 -22 hvcurveto
            return
          </CharString>
          <CharString index="278">
            hlineto
            -19 -25 0 -38 -8 hvcurveto
            -38 -9 25 0 19 hhcurveto
            return
          </CharString>
          <CharString index="279">
            hlineto
            10 47 rlineto
            15 4 5 28 return
          </CharString>
          <CharString index="280">
            -20 160 callsubr
            return
          </CharString>
          <CharString index="281">
            1271 14 -21 return
          </CharString>
          <CharString index="282">
            hstemhm
            55 788 return
          </CharString>
          <CharString index="283">
            hstemhm
            103 146 return
          </CharString>
          <CharString index="284">
            -11 -46 0 -46 -10 hvcurveto
            -29 -6 17 -16 36 hhcurveto
            return
          </CharString>
          <CharString index="285">
            28 3 1 7 -12 hhcurveto
            -6 -5 -4 -9 -12 hvcurveto
            return
          </CharString>
          <CharString index="286">
            11 60 callgsubr
            return
          </CharString>
          <CharString index="287">
            -160 80 157 76 82 76 171 83 hstem
            return
          </CharString>
          <CharString index="288">
            5 3 3 2 3 hvcurveto
            13 16 49 40 75 hhcurveto
            return
          </CharString>
          <CharString index="289">
            hstemhm
            86 144 return
          </CharString>
          <CharString index="290">
            575 -250 36 446 36 446 36 return
          </CharString>
          <CharString index="291">
            25 callsubr
            -11 hvcurveto
            return
          </CharString>
          <CharString index="292">
            rlineto
            12 2 -7 9 -11 hhcurveto
            return
          </CharString>
          <CharString index="293">
            635 -21 107 598 -20 return
          </CharString>
          <CharString index="294">
            611 -10 79 405 79 return
          </CharString>
          <CharString index="295">
            92 callsubr
            hstemhm
            118 return
          </CharString>
          <CharString index="296">
            688 620 -21 return
          </CharString>
          <CharString index="297">
            0 83 601 -20 return
          </CharString>
          <CharString index="298">
            hvcurveto
            -9 -42 rlineto
            return
          </CharString>
          <CharString index="299">
            vhcurveto
            39 hlineto
            21 0 17 14 6 hvcurveto
            67 return
          </CharString>
          <CharString index="300">
            rmoveto
            7 34 60 callsubr
            return
          </CharString>
          <CharString index="301">
            rmoveto
            18 86 rlineto
            26 6 -1 2 -27 hhcurveto
            return
          </CharString>
          <CharString index="302">
            90 callsubr
            hstemhm
            return
          </CharString>
          <CharString index="303">
            37 callsubr
            112 -21 return
          </CharString>
          <CharString index="304">
            -1 -1 -4 hvcurveto
            return
          </CharString>
        <CharString name=".notdef">
          280 endchar
        </CharString>
        <CharString name="A">
          -28 callsubr
          hstem
          55 788 vstem
          -107 callsubr
          endchar
        </CharString>
        <CharString name="AE">
          114 callgsubr
          36 callsubr
          hintmask 11011100
          -39 callsubr
          endchar
        </CharString>
        <CharString name="AE.dup">
          114 callgsubr
          36 callsubr
          hintmask 11011100
          -39 callsubr
          endchar
        </CharString>
        <CharString name="AEacute">
          114 callgsubr
          92 -21 90 -20 36 callsubr
          hintmask 11011001
          -39 callsubr
          hintmask 00000110
          302 231 -96 callgsubr
        </CharString>
        <CharString name="Aacute">
          -28 callsubr
          102 -21 90 -20 175 callsubr
          hintmask 11100100
          -107 callsubr
          hintmask 00011000
          300 276 -96 callgsubr
        </CharString>
        <CharString name="Abreve">
          -28 callsubr
          81 89 30 -20 175 callsubr
          hintmask 11100100
          -107 callsubr
          hintmask 00011000
          277 286 -83 callgsubr
        </CharString>
        <CharString name="Abreveacute">
          -28 callsubr
          81 89 170 -20 175 callsubr
          hintmask 11100100
          -107 callsubr
          hintmask 00011000
          277 286 -104 callgsubr
          2 159 21 callsubr
          258 62 7 2 6 3 2 10 rlinecurve
          endchar
        </CharString>
        <CharString name="Abrevedotbelow">
          -28 callsubr
          81 89 30 -20 175 callsubr
          -516 161 hintmask 11111100
          -107 callsubr
          277 286 -104 callgsubr
          hintmask 00000010
          -341 -1011 -104 callsubr
        </CharString>
        <CharString name="Abrevegrave">
          -28 callsubr
          81 89 30 -20 175 callsubr
          hintmask 11100100
          -107 callsubr
          hintmask 00011000
          277 286 -104 callgsubr
          -12 94 rmoveto
          -9 -2 -10 114 callsubr
          -230 62 -7 2 -4 3 2 10 rlinecurve
          7 1 -3 callgsubr
        </CharString>
        <CharString name="Abrevehookabove">
          -28 callsubr
          81 89 30 89 0 89 52 -20 175 callsubr
          hintmask 11100001
          -107 callsubr
          hintmask 00011010
          277 286 -8 callsubr
          hintmask 00000100
          17 callgsubr
        </CharString>
        <CharString name="Abrevetilde">
          -28 callsubr
          81 89 100 75 -35 75 175 callsubr
          hintmask 11100010
          -107 callsubr
          hintmask 00010100
          277 286 -104 callgsubr
          25 199 7 callsubr
          hintmask 00001000
          -27 callgsubr
          hintmask 00000100
          184 callsubr
          hintmask 00001000
          -18 -3 10 0 19 hhcurveto
          19 hlineto
          21 4 0 16 6 hvcurveto
          hintmask 00000100
          -23 callgsubr
          hintmask 00001000
          73 callgsubr
        </CharString>
        <CharString name="Acaron">
          889 21 -21 128 104 462 -20 92 4 callsubr
          283 279 -86 callsubr
        </CharString>
        <CharString name="Acircumflex">
          889 21 -21 128 104 462 -20 92 4 callsubr
          62 callsubr
          endchar
        </CharString>
        <CharString name="Acircumflexacute">
          126 callgsubr
          244 -20 175 callsubr
          hintmask 11100100
          -107 callsubr
          hintmask 00011000
          62 callsubr
          5 217 rmoveto
          7 2 87 callsubr
          2 10 rlinecurve
          endchar
        </CharString>
        <CharString name="Acircumflexdotbelow">
          126 callgsubr
          104 -20 175 callsubr
          -516 161 hintmask 11111100
          -107 callsubr
          62 callsubr
          hintmask 00000010
          -331 -928 -104 callsubr
        </CharString>
        <CharString name="Acircumflexgrave">
          889 21 -21 128 104 462 -20 92 4 callsubr
          62 callsubr
          -7 152 rmoveto
          -9 -2 -10 114 callsubr
          -231 62 -6 2 -5 3 2 10 rlinecurve
          7 2 -3 callgsubr
        </CharString>
        <CharString name="Acircumflexhookabove">
          126 callgsubr
          334 -20 175 callsubr
          hintmask 11100100
          -107 callsubr
          hintmask 00011000
          267 203 -72 callsubr
        </CharString>
        <CharString name="Acircumflextilde">
          126 callgsubr
          174 75 -35 75 175 callsubr
          hintmask 11100010
          -107 callsubr
          hintmask 00010100
          267 203 -3 callsubr
          hintmask 00001000
          -27 callgsubr
          hintmask 00000100
          15 callgsubr
          hintmask 00001000
          -7 callsubr
          hintmask 00000100
          -23 callgsubr
          hintmask 00001000
          -1 56 -7 -34 callsubr
        </CharString>
        <CharString name="Adblgrave">
          -28 callsubr
          102 4 callsubr
          208 213 -76 callsubr
        </CharString>
        <CharString name="Adieresis">
          -28 callsubr
          71 57 175 callsubr
          -463 99 callgsubr
          hintmask 11101000
          -107 callsubr
          hintmask 00010110
          -27 217 rmoveto
          29 6 -29 0 -11 hhcurveto
          -65 hlineto
          55 callsubr
        </CharString>
        <CharString name="Adotbelow">
          -28 callsubr
          175 callsubr
          -516 161 hintmask 11110000
          -107 callsubr
          hintmask 00001000
          -64 -725 -104 callsubr
        </CharString>
        <CharString name="Agrave">
          -28 callsubr
          102 -21 90 -20 175 callsubr
          hintmask 11100100
          -107 callsubr
          hintmask 00011000
          171 211 -76 callgsubr
        </CharString>
        <CharString name="Ahookabove">
          -28 callsubr
          82 -21 200 -20 175 callsubr
          hintmask 11100100
          -107 callsubr
          hintmask 00011000
          195 294 -87 callgsubr
        </CharString>
        <CharString name="Alpha">
          -28 callsubr
          hstem
          55 788 vstem
          -107 callsubr
          endchar
        </CharString>
        <CharString name="Amacron">
          -28 callsubr
          91 90 175 callsubr
          hintmask 11101000
          -107 callsubr
          hintmask 00010000
          310 237 -79 callsubr
        </CharString>
        <CharString name="Aogonek">
          889 -204 79 hstem
          578 89 vstem
          815 -152 -35 callsubr
          44 hlineto
          15 21 0 23 5 hvcurveto
          1 6 -1 7 -1 4 -139 618 rcurveline
          36 -8 -26 0 -19 hhcurveto
          -116 hlineto
          -19 -26 0 -36 -24 hvcurveto
          -400 -616 -3 -5 -6 -8 -1 -6 rlinecurve
          -23 -5 21 0 15 hhcurveto
          61 hlineto
          45 11 17 30 19 hvcurveto
          52 81 rlineto
          374 hlineto
          19 -81 4 -19 3 -14 12 -7 rlinecurve
          -39 -27 -59 -50 -10 -48 -55 callgsubr
          -190 384 rmoveto
          -283 hlineto
          210 324 rlineto
          endchar
        </CharString>
        <CharString name="Aogonekacute">
          889 -204 79 901 -21 90 -20 hstemhm
          578 89 hintmask 10010000
          815 -152 -35 callsubr
          44 hlineto
          15 21 0 23 5 hvcurveto
          1 6 -1 7 -1 4 -139 618 rcurveline
          36 -8 -26 0 -19 hhcurveto
          -116 hlineto
          -19 -26 0 -36 -24 hvcurveto
          -400 -616 -3 -5 -6 -8 -1 -6 rlinecurve
          -23 -5 21 0 15 hhcurveto
          61 hlineto
          45 11 17 30 19 hvcurveto
          52 81 rlineto
          374 hlineto
          19 -81 4 -19 3 -14 12 -7 rlinecurve
          -39 -27 -59 -50 -10 -48 -55 callgsubr
          -190 384 rmoveto
          -283 hlineto
          210 324 rlineto
          hintmask 01100000
          300 276 -96 callgsubr
        </CharString>
        <CharString name="Aring">
          105 callsubr
          128 104 462 27 50 27 175 callsubr
          hintmask 11101000
          -107 callsubr
          hintmask 00110000
          127 190 -67 callsubr
          88 168 callgsubr
          95 167 callgsubr
          endchar
        </CharString>
        <CharString name="Aringacute">
          105 callsubr
          128 104 462 27 50 27 140 -20 175 callsubr
          hintmask 11100100
          -107 callsubr
          hintmask 00111000
          127 190 -67 callsubr
          88 168 callgsubr
          95 167 callgsubr
          58 179 rmoveto
          7 1 87 callsubr
          3 10 rlinecurve
          endchar
        </CharString>
        <CharString name="Atilde">
          -28 callsubr
          71 75 -35 75 175 callsubr
          hintmask 11100100
          -107 callsubr
          hintmask 00001000
          259 286 -56 callsubr
        </CharString>
        <CharString name="B">
          -9 callsubr
        </CharString>
        <CharString name="Beta">
          -9 callsubr
        </CharString>
        <CharString name="C">
          135 callsubr
          hstem
          -80 callsubr
          endchar
        </CharString>
        <CharString name="Cacute">
          135 callsubr
          82 -21 90 -20 hstemhm
          hintmask 11000000
          -80 callsubr
          hintmask 00110000
          70 773 -96 callgsubr
        </CharString>
        <CharString name="Ccaron">
          135 callsubr
          72 -21 104 -20 hstemhm
          hintmask 11000000
          -80 callsubr
          hintmask 00110000
          53 776 -86 callsubr
        </CharString>
        <CharString name="Ccedilla">
          879 -164 83 60 83 560 83 hstem
          149 160 99 callsubr
          -187 -87 139 141 30 hvcurveto
          151 32 156 129 170 hhcurveto
          69 callsubr
          -284 -218 -180 -183 -39 hvcurveto
          -181 -39 140 -182 287 hhcurveto
          164 callgsubr
          -288 -109 rmoveto
          14 3 -12 0 -16 hhcurveto
          -28 callgsubr
        </CharString>
        <CharString name="Ccircumflex">
          135 callsubr
          72 -21 104 -20 hstemhm
          hintmask 11000000
          -80 callsubr
          hintmask 00110000
          37 700 -77 callgsubr
        </CharString>
        <CharString name="Cdotaccent">
          135 callsubr
          66 63 hstemhm
          570 161 hintmask 11000000
          -80 callsubr
          hintmask 00110000
          -89 732 -37 callgsubr
        </CharString>
        <CharString name="Chi">
          -11 callsubr
        </CharString>
        <CharString name="D">
          188 callgsubr
          hstem
          816 158 vstem
          -43 callgsubr
          endchar
        </CharString>
        <CharString name="Dcaron">
          188 callgsubr
          82 -21 104 -20 hstemhm
          816 158 hintmask 11001000
          -43 callgsubr
          hintmask 00110000
          -71 498 -86 callsubr
        </CharString>
        <CharString name="Dcroat">
          -27 callsubr
        </CharString>
        <CharString name="Ddotbelow">
          188 callgsubr
          hstemhm
          238 161 417 158 hintmask 11010000
          -43 callgsubr
          hintmask 00100000
          -417 -506 -104 callsubr
        </CharString>
        <CharString name="Delta">
          1146 0 143 551 -20 hstem
          77 999 vstem
          1076 21 rmoveto
          2 7 -2 5 -2 5 -233 621 rcurveline
          35 -13 -28 0 -18 hhcurveto
          -123 hlineto
          -18 -28 0 -35 -29 hvcurveto
          -495 -619 -5 -5 -5 -6 -2 -8 rlinecurve
          -21 -4 20 0 14 hhcurveto
          931 hlineto
          14 20 0 21 4 hvcurveto
          -228 122 rmoveto
          -513 hlineto
          349 437 rlineto
          endchar
        </CharString>
        <CharString name="Dlinebelow">
          979 -213 90 123 104 476 104 hstemhm
          816 158 hintmask 01110000
          -43 callgsubr
          hintmask 10000000
          -252 -522 -79 callsubr
        </CharString>
        <CharString name="E">
          -16 callsubr
          hstem
          -102 callsubr
          endchar
        </CharString>
        <CharString name="Eacute">
          179 callgsubr
          90 -20 hstemhm
          hintmask 11100000
          -102 callsubr
          hintmask 00011000
          29 789 -96 callgsubr
        </CharString>
        <CharString name="Ebreve">
          -16 callsubr
          71 89 30 -20 hstemhm
          hintmask 11100000
          -102 callsubr
          hintmask 00011000
          6 799 -83 callgsubr
        </CharString>
        <CharString name="Ecaron">
          854 0 86 227 80 206 85 82 13 callgsubr
          13 792 -86 callsubr
        </CharString>
        <CharString name="Ecircumflex">
          854 0 86 227 80 206 85 82 -21 104 -11 callgsubr
          endchar
        </CharString>
        <CharString name="Ecircumflexacute">
          98 callsubr
          244 -11 callgsubr
          5 217 rmoveto
          7 2 87 callsubr
          2 10 rlinecurve
          endchar
        </CharString>
        <CharString name="Ecircumflexdotbelow">
          98 callsubr
          104 -20 hstemhm
          310 161 hintmask 11111000
          -102 callsubr
          -14 callgsubr
          hintmask 00000100
          -330 -928 -104 callsubr
        </CharString>
        <CharString name="Ecircumflexgrave">
          854 0 86 227 80 206 85 82 -21 104 -11 callgsubr
          -7 152 rmoveto
          -9 -2 -10 114 callsubr
          -231 62 -6 2 -5 3 2 10 rlinecurve
          7 2 -3 callgsubr
        </CharString>
        <CharString name="Ecircumflexhookabove">
          98 callsubr
          334 -20 hstemhm
          hintmask 11100000
          805 43 rmoveto
          38 8 -13 5 -30 hhcurveto
          -491 hlineto
          49 227 rlineto
          433 hlineto
          21 23 0 40 8 hvcurveto
          40 9 -23 0 -21 hhcurveto
          -433 hlineto
          43 206 rlineto
          472 hlineto
          21 23 0 41 9 hvcurveto
          40 9 -19 2 -25 hhcurveto
          -588 hlineto
          -34 -12 -8 -36 -7 hvcurveto
          -127 -594 rlineto
          -34 -7 6 -10 36 hhcurveto
          607 hlineto
          29 16 4 39 8 hvcurveto
          hintmask 00011000
          -4 716 -72 callsubr
        </CharString>
        <CharString name="Ecircumflextilde">
          98 callsubr
          174 112 callgsubr
          hintmask 11100000
          -102 callsubr
          hintmask 00010100
          -4 716 -3 callsubr
          hintmask 00001000
          -27 callgsubr
          hintmask 00000100
          15 callgsubr
          hintmask 00001000
          -7 callsubr
          hintmask 00000100
          -23 callgsubr
          hintmask 00001000
          -1 56 -7 -34 callsubr
        </CharString>
        <CharString name="Edblgrave">
          854 0 86 227 80 206 85 92 13 callgsubr
          -24 726 -76 callsubr
        </CharString>
        <CharString name="Edieresis">
          -16 callsubr
          61 57 hstemhm
          362 99 callgsubr
          hintmask 11100000
          -102 callsubr
          hintmask 00011100
          -298 730 rmoveto
          29 6 -29 0 -11 hhcurveto
          -65 hlineto
          55 callsubr
        </CharString>
        <CharString name="Edotaccent">
          -16 callsubr
          76 63 hstemhm
          514 161 hintmask 11100000
          -102 callsubr
          hintmask 00011000
          -130 748 -37 callgsubr
        </CharString>
        <CharString name="Edotbelow">
          -16 callsubr
          hstemhm
          310 161 hintmask 11100000
          -102 callsubr
          hintmask 00010000
          -334 -212 -104 callsubr
        </CharString>
        <CharString name="Egrave">
          179 callgsubr
          90 -20 hstemhm
          hintmask 11100000
          -102 callsubr
          hintmask 00011000
          -100 724 -76 callgsubr
        </CharString>
        <CharString name="Ehookabove">
          -16 callsubr
          72 -21 200 -20 hstemhm
          hintmask 11100000
          -102 callsubr
          hintmask 00011000
          -76 807 -87 callgsubr
        </CharString>
        <CharString name="Emacron">
          -16 callsubr
          81 90 hstemhm
          hintmask 11100000
          -102 callsubr
          hintmask 00010000
          39 750 -79 callsubr
        </CharString>
        <CharString name="Eng">
          899 559 146 163 callsubr
          440 160 vstem
          870 342 rmoveto
          190 40 -86 173 -179 hhcurveto
          -85 -86 -20 -38 -75 hvcurveto
          28 4 -8 9 -33 103 callgsubr
          87 407 rlineto
          75 43 112 33 102 hhcurveto
          96 23 -109 -108 -23 hvcurveto
          -19 -89 -50 -88 -70 -30 -28 -11 -26 -21 -6 -27 -10 -48 rcurveline
          -6 -28 18 -21 26 4 159 28 135 158 37 173 rrcurveto
          endchar
        </CharString>
        <CharString name="Eogonek">
          153 callsubr
          -15 callsubr
          endchar
        </CharString>
        <CharString name="Eogonekacute">
          153 callsubr
          92 -21 90 -20 -15 callsubr
          hintmask 00000110
          29 789 -96 callgsubr
        </CharString>
        <CharString name="Epsilon">
          -16 callsubr
          hstem
          -102 callsubr
          endchar
        </CharString>
        <CharString name="Ereversed">
          854 0 86 227 80 hstem
          805 44 rmoveto
          127 594 rlineto
          36 7 -8 8 -34 hhcurveto
          -588 hlineto
          -25 -19 -2 -40 -9 hvcurveto
          -41 -9 23 0 21 hhcurveto
          472 hlineto
          -43 -206 rlineto
          -433 175 callgsubr
          -9 hvcurveto
          -40 -8 23 0 21 hhcurveto
          433 hlineto
          -49 -227 rlineto
          -491 hlineto
          -30 -15 -5 -38 -8 hvcurveto
          -39 -8 14 -4 29 hhcurveto
          607 hlineto
          36 10 10 34 7 hvcurveto
          endchar
        </CharString>
        <CharString name="Eta">
          899 21 76 callgsubr
          hintmask 01101010
          -52 callgsubr
          hintmask 11010100
          -127 -596 -53 callsubr
          58 272 rlineto
          376 hlineto
          -58 -272 -53 callsubr
          endchar
        </CharString>
        <CharString name="Eth">
          -27 callsubr
        </CharString>
        <CharString name="Etilde">
          -16 callsubr
          61 112 callgsubr
          hintmask 11100000
          -102 callsubr
          hintmask 00001000
          -12 799 -56 callsubr
        </CharString>
        <CharString name="Euro">
          823 290 104 -100 84 -72 84 hstem
          225 160 cntrmask 11100000
          764 49 rmoveto
          13 98 rlineto
          7 1 -5 6 -8 hhcurveto
          -4 -5 -3 -3 -3 hvcurveto
          -57 -53 -72 -34 -70 hhcurveto
          -64 -52 32 49 -30 hvcurveto
          -12 18 -8 19 -6 21 rrcurveto
          290 hlineto
          7 7 5 7 2 hvcurveto
          30 76 rlineto
          10 2 -5 6 -7 hhcurveto
          -333 hlineto
          1 12 2 12 3 12 2 12 3 12 4 12 rrcurveto
          351 hlineto
          7 6 5 7 3 hvcurveto
          29 76 rlineto
          10 3 -5 6 -8 hhcurveto
          -334 hlineto
          14 21 17 19 19 18 rrcurveto
          49 51 66 32 64 hhcurveto
          62 49 -36 -55 16 hvcurveto
          -5 1 4 -3 5 hhcurveto
          7 7 5 6 3 hvcurveto
          47 122 2 8 -3 5 -4 2 rlinecurve
          23 -55 -60 12 -63 hhcurveto
          -103 -107 -36 -70 -90 hvcurveto
          -43 -33 -38 -40 -29 -44 rrcurveto
          -86 hlineto
          -7 -7 -5 -7 -2 hvcurveto
          -30 -76 rlineto
          -10 -2 5 -6 8 hhcurveto
          70 hlineto
          -4 -12 -3 -12 -2 -12 -3 -12 -2 -12 -1 -12 rrcurveto
          -57 hlineto
          -7 -7 -5 -7 -3 hvcurveto
          -29 -76 rlineto
          -10 -2 5 -6 7 hhcurveto
          99 hlineto
          11 -44 20 -40 30 -33 rrcurveto
          -70 60 92 -36 102 hhcurveto
          72 74 20 37 69 hvcurveto
          5 3 4 5 5 vvcurveto
          endchar
        </CharString>
        <CharString name="F">
          816 21 -21 301 80 218 85 163 callsubr
          vstem
          894 640 rmoveto
          -39 callgsubr
          -569 -58 callsubr
          72 hlineto
          34 12 8 36 7 hvcurveto
          55 257 rlineto
          395 47 callgsubr
          40 8 hvcurveto
          40 9 -23 0 -21 hhcurveto
          -395 hlineto
          46 218 rlineto
          453 15 callsubr
          endchar
        </CharString>
        <CharString name="G">
          95 callsubr
          hstem
          -95 callsubr
          endchar
        </CharString>
        <CharString name="Gacute">
          95 callsubr
          82 -21 90 -20 hstemhm
          hintmask 11100000
          -95 callsubr
          hintmask 00011000
          32 781 -96 callgsubr
        </CharString>
        <CharString name="Gamma">
          778 21 -21 599 83 163 callsubr
          vstem
          856 640 rmoveto
          -39 callgsubr
          -531 -58 callsubr
          72 hlineto
          34 12 8 36 7 hvcurveto
          118 555 rlineto
          415 15 callsubr
          endchar
        </CharString>
        <CharString name="Gbreve">
          95 callsubr
          61 89 30 -20 hstemhm
          hintmask 11100000
          -95 callsubr
          hintmask 00011000
          9 791 -83 callgsubr
        </CharString>
        <CharString name="Gcaron">
          95 callsubr
          72 -21 104 -20 hstemhm
          hintmask 11100000
          -95 callsubr
          hintmask 00011000
          15 784 -86 callsubr
        </CharString>
        <CharString name="Gcedilla">
          917 10 callsubr
          66 97 callgsubr
          hstem
          -95 callsubr
          -349 -229 -99 callgsubr
        </CharString>
        <CharString name="Gcircumflex">
          95 callsubr
          72 -21 104 -20 hstemhm
          hintmask 11100000
          -95 callsubr
          hintmask 00011000
          -1 708 -77 callgsubr
        </CharString>
        <CharString name="Gcommaaccent">
          917 10 callsubr
          66 97 callgsubr
          hstemhm
          hintmask 00111000
          -95 callsubr
          hintmask 11000000
          -349 -229 -99 callgsubr
        </CharString>
        <CharString name="Gdotaccent">
          95 callsubr
          66 63 hstemhm
          545 161 hintmask 11100000
          -95 callsubr
          hintmask 00011000
          -128 740 -37 callgsubr
        </CharString>
        <CharString name="H">
          899 21 76 callgsubr
          hintmask 01101010
          -52 callgsubr
          hintmask 11010100
          -127 -596 -53 callsubr
          58 272 rlineto
          376 hlineto
          -58 -272 -53 callsubr
          endchar
        </CharString>
        <CharString name="H_uni0303">
          150 callgsubr
          81 75 -35 75 59 callsubr
          hintmask 0110001010000000
          -52 callgsubr
          hintmask 1100010100000000
          -127 -596 -53 callsubr
          58 272 rlineto
          376 hlineto
          -58 -272 -53 callsubr
          hintmask 0000100000000000
          10 798 -51 callsubr
          hintmask 0001000000000000
          -27 callgsubr
          hintmask 0000100000000000
          15 callgsubr
          hintmask 0001000000000000
          -7 callsubr
          hintmask 0000100000000000
          -23 callgsubr
          hintmask 0001000000000000
          -1 56 -7 -34 callsubr
        </CharString>
        <CharString name="Hbar">
          136 callsubr
          75 84 129 -20 hstem
          201 160 -142 160 -142 160 cntrmask 00001110
          1001 502 rmoveto
          128 callsubr
          -66 hlineto
          18 85 -58 callgsubr
          -18 -85 rlineto
          -376 hlineto
          18 85 -58 callgsubr
          -18 -85 rlineto
          -66 75 callgsubr
          66 hlineto
          -91 -427 -53 callsubr
          58 272 rlineto
          376 hlineto
          -58 -272 -53 callsubr
          91 427 rlineto
          66 161 callsubr
          -280 -106 rmoveto
          -376 hlineto
          16 75 rlineto
          376 hlineto
          endchar
        </CharString>
        <CharString name="Hbrevebelow">
          899 -227 89 30 -20 149 76 callgsubr
          hintmask 0001101010000000
          -52 callgsubr
          hintmask 0011010100000000
          -127 -596 -53 callsubr
          58 272 rlineto
          376 hlineto
          -58 -272 -53 callsubr
          hintmask 1100000000000000
          -181 -184 -18 callgsubr
        </CharString>
        <CharString name="Hcircumflex">
          150 callgsubr
          102 -21 104 101 callgsubr
          hintmask 0110001010000000
          -52 callgsubr
          hintmask 1100010100000000
          -127 -596 -53 callsubr
          58 272 rlineto
          376 hlineto
          -58 -272 -53 callsubr
          hintmask 0001101000000000
          18 715 -77 callgsubr
        </CharString>
        <CharString name="Hdieresis">
          150 callgsubr
          81 57 hstemhm
          110 160 -33 160 -12 145 116 160 -107 145 -71 160 hintmask 0110010001000000
          -52 callgsubr
          hintmask 1100100100000000
          -127 -596 -53 callsubr
          58 272 rlineto
          376 hlineto
          -58 -272 -53 callsubr
          hintmask 0001001010000000
          -276 729 rmoveto
          29 6 -29 0 -11 hhcurveto
          -65 hlineto
          55 callsubr
        </CharString>
        <CharString name="Hdotbelow">
          150 callgsubr
          hstemhm
          110 160 -33 160 -64 161 152 160 -33 160 hintmask 01101001
          -52 callgsubr
          hintmask 11010010
          -127 -596 -53 callsubr
          58 272 rlineto
          376 hlineto
          -58 -272 -53 callsubr
          hintmask 00000100
          -312 -213 -104 callsubr
        </CharString>
        <CharString name="I">
          61 callgsubr
          hstem
          147 callgsubr
          vstem
          -81 callsubr
          endchar
        </CharString>
        <CharString name="I.alt">
          361 0 125 callsubr
          -50 160 36 callgsubr
          hintmask 10100000
          29 callgsubr
          224 101 callsubr
        </CharString>
        <CharString name="I_J">
          960 -21 107 598 -20 hstem
          147 callgsubr
          567 158 vstem
          -81 callsubr
          620 104 -70 callsubr
          endchar
        </CharString>
        <CharString name="I_J.alt">
          960 0 125 callsubr
          -50 160 448 158 36 callgsubr
          hintmask 11100100
          29 callgsubr
          224 -45 callgsubr
          544 104 -70 callsubr
          endchar
        </CharString>
        <CharString name="Iacute">
          61 callgsubr
          112 -21 90 -20 hstemhm
          147 callgsubr
          hintmask 11001000
          -81 callsubr
          hintmask 00110000
          353 789 -96 callgsubr
        </CharString>
        <CharString name="Ibreve">
          61 callgsubr
          91 89 30 -20 hstemhm
          147 callgsubr
          hintmask 11001000
          -81 callsubr
          hintmask 00110000
          296 799 -83 callgsubr
        </CharString>
        <CharString name="Icaron">
          61 callgsubr
          102 -21 104 -20 hstemhm
          147 callgsubr
          hintmask 11001000
          -81 callsubr
          hintmask 00110000
          302 792 -86 callsubr
        </CharString>
        <CharString name="Icircumflex">
          61 callgsubr
          102 -21 104 -20 hstemhm
          147 callgsubr
          hintmask 11001000
          -81 callsubr
          hintmask 00110000
          286 11 callsubr
          endchar
        </CharString>
        <CharString name="Idblgrave">
          61 callgsubr
          112 -21 104 -20 hstemhm
          147 callgsubr
          hintmask 11001000
          -81 callsubr
          hintmask 00110000
          266 726 -76 callsubr
        </CharString>
        <CharString name="Idieresis">
          61 callgsubr
          81 57 hstemhm
          147 callgsubr
          -153 99 callgsubr
          hintmask 11010000
          -81 callsubr
          hintmask 00101100
          -8 730 rmoveto
          29 6 -29 0 -11 hhcurveto
          -65 hlineto
          55 callsubr
        </CharString>
        <CharString name="Idieresisacute">
          61 callgsubr
          81 57 92 -21 90 -20 hstemhm
          147 callgsubr
          -153 99 callgsubr
          hintmask 11000100
          -81 callsubr
          hintmask 00111011
          -8 730 rmoveto
          -90 callgsubr
          314 -91 callgsubr
          38 177 -96 callgsubr
        </CharString>
        <CharString name="Idotaccent">
          61 callgsubr
          96 63 hstemhm
          147 callgsubr
          -1 161 hintmask 11010000
          -81 callsubr
          hintmask 00101000
          160 748 -37 callgsubr
        </CharString>
        <CharString name="Idotbelow">
          61 callgsubr
          hstemhm
          64 161 -116 160 hintmask 11010000
          -81 callsubr
          hintmask 00100000
          -44 -212 -104 callsubr
        </CharString>
        <CharString name="Igrave">
          61 callgsubr
          112 -21 90 -20 hstemhm
          147 callgsubr
          hintmask 11001000
          -81 callsubr
          hintmask 00110000
          154 724 -76 callgsubr
        </CharString>
        <CharString name="Ihookabove">
          61 callgsubr
          92 -21 200 -20 hstemhm
          147 callgsubr
          hintmask 11001000
          -81 callsubr
          hintmask 00110000
          214 807 -87 callgsubr
        </CharString>
        <CharString name="Imacron">
          61 callgsubr
          101 90 hstemhm
          147 callgsubr
          hintmask 11010000
          -81 callsubr
          hintmask 00100000
          329 750 -79 callsubr
        </CharString>
        <CharString name="Imacron.alt">
          61 callgsubr
          101 90 hstemhm
          147 callgsubr
          hintmask 11010000
          -81 callsubr
          hintmask 00100000
          214 750 78 callgsubr
        </CharString>
        <CharString name="Iogonek">
          361 -204 79 146 92 callsubr
          hstem
          147 callgsubr
          vstem
          270 -152 -35 callsubr
          3 -45 callgsubr
          127 599 rlineto
          -39 callgsubr
          -72 77 callgsubr
          -41 -8 hvcurveto
          -128 -600 -7 -33 8 -8 23 -2 rlinecurve
          -40 -28 -51 -45 -9 -45 -55 callgsubr
          endchar
        </CharString>
        <CharString name="Iogonek.alt">
          361 -204 79 -79 86 118 125 callsubr
          -146 160 -64 160 hintmask 00100100
          345 43 rmoveto
          38 8 -13 5 -30 hhcurveto
          -32 hlineto
          hintmask 00010001
          34 callsubr
          hintmask 00100100
          -110 -515 rlineto
          -32 139 callgsubr
          -8 hvcurveto
          hintmask 00101000
          29 callgsubr
          hintmask 01100010
          64 hlineto
          -39 -28 -51 -46 -9 -44 56 callgsubr
          hintmask 10100010
          85 callsubr
          79 101 callsubr
        </CharString>
        <CharString name="Iogonekacute">
          361 -204 79 146 92 callsubr
          112 -21 90 -20 hstemhm
          147 callgsubr
          hintmask 11100100
          270 -152 -35 callsubr
          3 -45 callgsubr
          127 599 rlineto
          -39 callgsubr
          -72 77 callgsubr
          -41 -8 hvcurveto
          -128 -600 -7 -33 8 -8 23 -2 rlinecurve
          -40 -28 -51 -45 -9 -45 -55 callgsubr
          hintmask 00011000
          352 984 -96 callgsubr
        </CharString>
        <CharString name="Iota">
          61 callgsubr
          hstem
          147 callgsubr
          vstem
          -81 callsubr
          endchar
        </CharString>
        <CharString name="Itilde">
          61 callgsubr
          81 112 callgsubr
          147 callgsubr
          hintmask 11001000
          -81 callsubr
          hintmask 00010000
          278 799 -82 callsubr
        </CharString>
        <CharString name="J">
          186 callsubr
          hstem
          511 158 vstem
          -30 callsubr
          endchar
        </CharString>
        <CharString name="J_uni030C.cap">
          635.42105 -21 107 382 -21 110 127 hstem
          511 158 vstem
          -30 callsubr
          272 435 44 callgsubr
        </CharString>
        <CharString name="Jacute">
          186 callsubr
          112 -21 90 -20 hstemhm
          511 158 hintmask 11001000
          -30 callsubr
          hintmask 00110000
          333 685 -96 callgsubr
        </CharString>
        <CharString name="Jcircumflex">
          186 callsubr
          102 -21 104 -20 hstemhm
          511 158 hintmask 11001000
          -30 callsubr
          hintmask 00110000
          264 612 -77 callgsubr
        </CharString>
        <CharString name="K">
          -10 callgsubr
        </CharString>
        <CharString name="Kappa">
          -10 callgsubr
        </CharString>
        <CharString name="Kcedilla">
          927 79 callgsubr
          684 -20 hstemhm
          118 136 -101 136 -44 136 hintmask 00010010
          -31 callgsubr
          hintmask 00001000
          -127 -596 rlineto
          hintmask 00100100
          -94 callgsubr
          48 hlineto
          hintmask 00001000
          34 12 8 36 7 hvcurveto
          hintmask 11100100
          31 callsubr
          -375 -197 -99 callgsubr
        </CharString>
        <CharString name="Kcommaaccent">
          927 79 callgsubr
          684 -20 hstemhm
          118 136 -101 136 -44 136 hintmask 00010010
          -31 callgsubr
          hintmask 00001000
          -127 -596 rlineto
          hintmask 00100100
          -94 callgsubr
          48 hlineto
          hintmask 00001000
          34 12 8 36 7 hvcurveto
          hintmask 00100100
          31 callsubr
          hintmask 11000000
          -375 -197 -99 callgsubr
        </CharString>
        <CharString name="L">
          160 callgsubr
          hstem
          92 callgsubr
          vstem
          -68 callgsubr
          endchar
        </CharString>
        <CharString name="L_uni0303">
          160 callgsubr
          81 112 callgsubr
          92 callgsubr
          hintmask 11001000
          -68 callgsubr
          hintmask 00010000
          -182 801 -82 callsubr
        </CharString>
        <CharString name="Lacute">
          160 callgsubr
          112 -21 90 -20 hstemhm
          92 callgsubr
          hintmask 11001000
          -68 callgsubr
          hintmask 00110000
          -106 791 -96 callgsubr
        </CharString>
        <CharString name="Lambda">
          813 21 -21 694 -20 hstem
          54 714 vstem
          768 23 rmoveto
          1 3 0 3 -2 13 -106 613 rcurveline
          26 -4 -6 13 -40 hhcurveto
          -114 77 callgsubr
          -38 -24 hvcurveto
          -366 -614 -8 -13 0 -3 -1 -3 rlinecurve
          -23 -5 22 0 14 hhcurveto
          59 hlineto
          25 21 1 38 22 hvcurveto
          299 500 85 -500 rlineto
          -21 4 3 -18 44 hhcurveto
          80 hlineto
          14 22 0 23 5 hvcurveto
          endchar
        </CharString>
        <CharString name="Lcaron">
          778 0 83 385 -21 110 127 hstem
          92 callgsubr
          vstem
          -68 callgsubr
          -140 541 44 callgsubr
        </CharString>
        <CharString name="Lcedilla">
          778 10 callsubr
          76 83 601 -20 hstem
          92 callgsubr
          vstem
          -68 callgsubr
          -314 -219 -99 callgsubr
        </CharString>
        <CharString name="Lcommaaccent">
          778 10 callsubr
          76 83 601 -20 hstemhm
          92 callgsubr
          hintmask 00111000
          -68 callgsubr
          hintmask 11000000
          -314 -219 -99 callgsubr
        </CharString>
        <CharString name="Ldot">
          778 0 83 253 63 285 -20 hstem
          92 callgsubr
          170 161 vstem
          -68 callgsubr
          -1 326 -104 callsubr
        </CharString>
        <CharString name="Ldotbelow">
          160 callgsubr
          hstemhm
          92 callgsubr
          -125 161 hintmask 11100000
          -68 callgsubr
          hintmask 00010000
          -296 -210 -104 callsubr
        </CharString>
        <CharString name="Ldotbelowmacron">
          160 callgsubr
          101 90 hstemhm
          92 callgsubr
          -125 161 hintmask 11010000
          -68 callgsubr
          -296 -210 159 callsubr
          hintmask 00001000
          -15 callgsubr
          -7 hvcurveto
          -32 -7 32 0 12 hhcurveto
          73 hlineto
          11 33 0 31 7 hvcurveto
          hintmask 00100000
          165 962 -79 callsubr
        </CharString>
        <CharString name="Lslash">
          892 190 callsubr
          hstem
          350 160 vstem
          842 41 rmoveto
          40 8 -18 2 -25 hhcurveto
          -415 hlineto
          58 275 252 152 13 7 7 15 -5 10 rlinecurve
          -14 29 -5 10 -17 -1 -13 -7 rlinecurve
          -198 -119 40 186 -58 callgsubr
          -62 -292 -140 -84 -17 -10 -9 -22 8 -14 rlinecurve
          8 -13 8 -15 20 1 17 10 rlinecurve
          85 51 -45 -208 -97 callgsubr
          531 15 callsubr
          endchar
        </CharString>
        <CharString name="M">
          1129 74 callgsubr
          hstem
          121 126 646 131 vstem
          -43 callsubr
          endchar
        </CharString>
        <CharString name="Mdotbelow">
          1129 74 callgsubr
          hstemhm
          121 126 200 161 285 131 hintmask 11101000
          -43 callsubr
          hintmask 00010000
          -416 -213 -104 callsubr
        </CharString>
        <CharString name="Mu">
          1129 74 callgsubr
          hstem
          121 126 646 131 vstem
          -43 callsubr
          endchar
        </CharString>
        <CharString name="N">
          138 callsubr
          hstem
          105 callgsubr
          vstem
          -84 callsubr
          endchar
        </CharString>
        <CharString name="Nacute">
          138 callsubr
          112 -21 90 -20 159 callgsubr
          hintmask 11001100
          -84 callsubr
          hintmask 00110000
          59 788 -96 callgsubr
        </CharString>
        <CharString name="Ncaron">
          138 callsubr
          102 -21 104 -20 159 callgsubr
          hintmask 11001100
          -84 callsubr
          hintmask 00110000
          42 791 -86 callsubr
        </CharString>
        <CharString name="Ncedilla">
          899 79 callgsubr
          684 -20 hstem
          105 callgsubr
          vstem
          -84 callsubr
          -322 -222 -99 callgsubr
        </CharString>
        <CharString name="Ncommaaccent">
          899 79 callgsubr
          684 -20 159 callgsubr
          hintmask 00111100
          -84 callsubr
          hintmask 11000000
          -322 -222 -99 callgsubr
        </CharString>
        <CharString name="Ndotaccent">
          138 callsubr
          96 63 hstemhm
          118 126 293 161 101 126 hintmask 11010100
          -84 callsubr
          hintmask 00101000
          -100 747 -37 callgsubr
        </CharString>
        <CharString name="Ndotbelow">
          899 21 188 callsubr
          126 89 161 305 126 hintmask 11101000
          -84 callsubr
          hintmask 00010000
          -304 -213 -104 callsubr
        </CharString>
        <CharString name="Ntilde">
          138 callsubr
          81 75 -35 75 159 callgsubr
          hintmask 11001100
          -84 callsubr
          hintmask 00010000
          18 798 -82 callsubr
        </CharString>
        <CharString name="Nu">
          138 callsubr
          hstem
          105 callgsubr
          vstem
          -84 callsubr
          endchar
        </CharString>
        <CharString name="O">
          16 callsubr
          hstem
          -100 callsubr
          endchar
        </CharString>
        <CharString name="OE">
          -29 callsubr
        </CharString>
        <CharString name="OE.dup">
          -29 callsubr
        </CharString>
        <CharString name="Oacute">
          127 callsubr
          90 -88 callsubr
          40 478 -96 callgsubr
        </CharString>
        <CharString name="Obreve">
          16 callsubr
          50 89 30 -88 callsubr
          17 488 -83 callgsubr
        </CharString>
        <CharString name="Ocaron">
          1059 -21 81 566 79 61 -33 callgsubr
          23 481 -86 callsubr
        </CharString>
        <CharString name="Ocircumflex">
          1059 -21 81 566 79 61 -33 callgsubr
          63 callsubr
          endchar
        </CharString>
        <CharString name="Ocircumflexacute">
          128 callgsubr
          244 -88 callsubr
          63 callsubr
          5 217 rmoveto
          7 2 87 callsubr
          2 10 rlinecurve
          endchar
        </CharString>
        <CharString name="Ocircumflexdotbelow">
          128 callgsubr
          104 -20 hstemhm
          413 161 hintmask 11110000
          -100 callsubr
          63 callsubr
          hintmask 00001000
          -330 -928 -104 callsubr
        </CharString>
        <CharString name="Ocircumflexgrave">
          1059 -21 81 566 79 61 -33 callgsubr
          63 callsubr
          -7 152 rmoveto
          -9 -2 -10 114 callsubr
          -231 62 -6 2 -5 3 2 10 rlinecurve
          7 2 -3 callgsubr
        </CharString>
        <CharString name="Ocircumflexhookabove">
          128 callgsubr
          334 -88 callsubr
          7 405 -72 callsubr
        </CharString>
        <CharString name="Ocircumflextilde">
          128 callgsubr
          174 75 -35 75 -94 callsubr
          hintmask 00101000
          7 405 rmoveto
          2 8 -4 2 -10 6 -132 74 rcurveline
          -101 hlineto
          -162 -74 -14 -6 -4 -2 -2 -8 rlinecurve
          -14 -3 13 0 15 hhcurveto
          37 hlineto
          160 54 137 -54 rlineto
          37 hlineto
          15 13 0 14 3 hvcurveto
          29 257 -56 callsubr
        </CharString>
        <CharString name="Odblgrave">
          1059 -21 81 566 79 71 -33 callgsubr
          -13 415 -76 callsubr
        </CharString>
        <CharString name="Odieresis">
          16 callsubr
          40 57 hstemhm
          465 99 callgsubr
          -95 callgsubr
          hintmask 00111000
          -287 419 rmoveto
          29 6 -29 0 -11 hhcurveto
          -65 hlineto
          55 callsubr
        </CharString>
        <CharString name="Odotbelow">
          16 callsubr
          hstemhm
          413 161 -95 callgsubr
          hintmask 00100000
          -323 -523 -104 callsubr
        </CharString>
        <CharString name="Ograve">
          127 callsubr
          90 -88 callsubr
          -89 413 -76 callgsubr
        </CharString>
        <CharString name="Ohookabove">
          16 callsubr
          51 -21 200 -88 callsubr
          -65 496 -87 callgsubr
        </CharString>
        <CharString name="Ohorn">
          16 callsubr
          hstem
          978 160 vstem
          162 callsubr
          14 66 -9 64 -28 56 70 87 rcurveline
          32 callgsubr
          18 86 rcurveline
          1 callsubr
          -18 -86 rlineto
          -28 -6 1 0 36 hhcurveto
          -1 -3 -9 -16 -11 -18 rrcurveto
          73 -65 -107 47 -137 -105 callsubr
          endchar
        </CharString>
        <CharString name="Ohornacute">
          127 callsubr
          90 -20 hstemhm
          978 160 hintmask 11001000
          162 callsubr
          14 66 -9 64 -28 56 70 87 rcurveline
          32 callgsubr
          18 86 rcurveline
          1 callsubr
          -18 -86 rlineto
          -28 -6 1 0 36 hhcurveto
          -1 -3 -9 -16 -11 -18 rrcurveto
          73 -65 -107 47 -137 -105 callsubr
          hintmask 00110000
          2 478 -96 callgsubr
        </CharString>
        <CharString name="Ohorndotbelow">
          16 callsubr
          hstemhm
          413 161 404 160 hintmask 11010000
          162 callsubr
          14 66 -9 64 -28 56 70 87 rcurveline
          32 callgsubr
          18 86 rcurveline
          1 callsubr
          -18 -86 rlineto
          -28 -6 1 0 36 hhcurveto
          -1 -3 -9 -16 -11 -18 rrcurveto
          73 -65 -107 47 -137 -105 callsubr
          hintmask 00100000
          -323 -523 -104 callsubr
        </CharString>
        <CharString name="Ohorngrave">
          127 callsubr
          90 -20 hstemhm
          978 160 hintmask 11001000
          162 callsubr
          14 66 -9 64 -28 56 70 87 rcurveline
          32 callgsubr
          18 86 rcurveline
          1 callsubr
          -18 -86 rlineto
          -28 -6 1 0 36 hhcurveto
          -1 -3 -9 -16 -11 -18 rrcurveto
          73 -65 -107 47 -137 -105 callsubr
          hintmask 00110000
          -89 413 -76 callgsubr
        </CharString>
        <CharString name="Ohornhookabove">
          16 callsubr
          51 -21 200 -20 hstemhm
          978 160 hintmask 11001000
          162 callsubr
          14 66 -9 64 -28 56 70 87 rcurveline
          32 callgsubr
          18 86 rcurveline
          1 callsubr
          -18 -86 rlineto
          -28 -6 1 0 36 hhcurveto
          -1 -3 -9 -16 -11 -18 rrcurveto
          73 -65 -107 47 -137 -105 callsubr
          hintmask 00110000
          -65 496 -87 callgsubr
        </CharString>
        <CharString name="Ohorntilde">
          16 callsubr
          40 112 callgsubr
          978 160 hintmask 11001000
          162 callsubr
          14 66 -9 64 -28 56 70 87 rcurveline
          32 callgsubr
          18 86 rcurveline
          1 callsubr
          -18 -86 rlineto
          -28 -6 1 0 36 hhcurveto
          -1 -3 -9 -16 -11 -18 rrcurveto
          73 -65 -107 47 -137 -105 callsubr
          hintmask 00010000
          -39 488 -82 callsubr
        </CharString>
        <CharString name="Ohungarumlaut">
          1059 -21 81 566 79 71 -33 callgsubr
          -188 491 rmoveto
          -37 callsubr
          229 hmoveto
          -37 callsubr
          endchar
        </CharString>
        <CharString name="Omacron">
          16 callsubr
          60 90 -94 callsubr
          hintmask 00100000
          50 439 -79 callsubr
        </CharString>
        <CharString name="Omega">
          -20 callgsubr
        </CharString>
        <CharString name="Omicron">
          16 callsubr
          hstem
          -100 callsubr
          endchar
        </CharString>
        <CharString name="Oogonek">
          1059 -204 79 104 81 566 79 hstem
          -12 callgsubr
          endchar
        </CharString>
        <CharString name="Oogonekacute">
          1059 -204 79 104 81 566 79 71 -21 90 -20 hstemhm
          hintmask 11100000
          -12 callgsubr
          hintmask 00011000
          40 478 -96 callgsubr
        </CharString>
        <CharString name="Orogate">
          1059 162 callsubr
          39 183 -138 166 -238 16 18 81 rcurveline
          24 -14 14 -31 -15 -12 -11 -14 -3 vhcurveto
          -20 -94 -245 -16 -208 -166 -39 -183 rlinecurve
          -39 -182 141 -161 236 -16 -17 -81 170 callgsubr
          21 94 242 16 209 161 39 182 rlinecurve
          -157 15 rmoveto
          -183 -39 -151 -111 -165 hhcurveto
          -165 -105 111 183 39 hvcurveto
          175 37 153 97 161 hhcurveto
          161 111 -97 -175 -37 hvcurveto
          endchar
        </CharString>
        <CharString name="Oslash">
          -36 callgsubr
        </CharString>
        <CharString name="Oslash.dup">
          -36 callgsubr
        </CharString>
        <CharString name="Oslashacute">
          1069 -72 19 32 76 574 76 51 -20 40 -21 90 -20 hstemhm
          148 136 -91 136 599 136 hintmask 0011001000000000
          1064 339 rmoveto
          24 115 -47 106 -87 64 66 64 rcurveline
          9 8 7 8 2 10 rrcurveto
          22 4 -24 20 -15 hhcurveto
          -14 -8 -8 -9 -10 hvcurveto
          -80 -77 rlineto
          29 -63 -68 14 -76 hhcurveto
          -264 -231 -173 -193 -41 hvcurveto
          -24 -114 44 -95 90 -72 rrcurveto
          hintmask 1100000110000000
          -65 -62 -9 -9 -6 -6 -2 -11 rlinecurve
          -22 -5 25 -20 15 hhcurveto
          15 6 7 17 19 hvcurveto
          71 69 rlineto
          -28 63 70 -14 75 hhcurveto
          262 231 19 callsubr
          -241 260 rmoveto
          -494 -473 rlineto
          hintmask 0110001010000000
          -27 29 -44 60 26 124 rrcurveto
          190 40 155 100 189 hhcurveto
          71 53 -15 -15 31 hvcurveto
          105 -260 rmoveto
          -183 -39 -149 -101 -194 hhcurveto
          -44 -64 6 24 -48 hvcurveto
          492 472 66 -66 -8 -95 -12 -57 rlinecurve
          hintmask 0000110000000000
          14 493 -96 callgsubr
        </CharString>
        <CharString name="Otilde">
          16 callsubr
          40 75 -35 75 -94 callsubr
          hintmask 00010000
          -1 488 -82 callsubr
        </CharString>
        <CharString name="P">
          3 callsubr
        </CharString>
        <CharString name="Phi">
          993 21 -21 106 77 318 77 106 -20 hstemhm
          149 158 118 157 -143 157 -141 157 -90 157 -140 157 -144 157 -35 157 0 158 hintmask 0000000001000000
          989 342 rmoveto
          24 115 -122 99 -195 21 rrcurveto
          hintmask 0000000000100000
          13 63 rlineto
          hintmask 0001000000010000
          34 7 -6 -48 callgsubr
          -69 hlineto
          hintmask 0000000000100000
          -92 callgsubr
          hintmask 0000100001000000
          -13 -63 -198 -21 -167 -97 -25 -117 rlinecurve
          hintmask 0000001000000000
          -25 -117 126 -97 189 -21 rrcurveto
          hintmask 1000010000000000
          -14 -63 -97 callgsubr
          69 -93 callgsubr
          hintmask 0000101000001000
          14 63 204 21 164 99 25 115 rlinecurve
          -534 -159 rmoveto
          -34 4 -143 19 29 136 rrcurveto
          hintmask 0010000010000000
          29 136 151 19 35 4 rrcurveto
          hintmask 0100000100000000
          309 -159 rmoveto
          -30 -139 -156 -17 -33 -3 rrcurveto
          hintmask 0010000010001000
          67 318 55 -6 124 -25 -27 -128 rlinecurve
          endchar
        </CharString>
        <CharString name="Pi">
          899 21 -21 602 80 163 callsubr
          376 160 vstem
          806 44 rmoveto
          127 594 -93 callsubr
          -608 -58 callsubr
          72 hlineto
          34 12 8 36 7 hvcurveto
          119 558 rlineto
          376 hlineto
          -119 -558 -53 callsubr
          endchar
        </CharString>
        <CharString name="Psi">
          1069 21 -21 107 82 346 78 71 -20 hstemhm
          463 157 -143 157 -140 157 -61 157 hintmask 01100010
          1114 575 28 callsubr
          -74 hlineto
          -96 -35 -84 -113 -25 hvcurveto
          -14 -66 -39 -127 -144 -34 rrcurveto
          hintmask 00010001
          96 451 -93 callsubr
          -69 -88 callgsubr
          hintmask 01100010
          -96 -451 -137 38 30 144 11 53 rlinecurve
          132 27 -20 57 -81 hhcurveto
          -74 hlineto
          -19 -25 0 -38 -8 hvcurveto
          -1 -8 -6 -27 28 -3 22 -2 22 -3 -28 -135 -12 -58 10 -83 36 -47 rrcurveto
          hintmask 01000100
          41 -52 58 -36 109 -14 rrcurveto
          hintmask 10001000
          -14 -63 -97 callgsubr
          69 -93 callgsubr
          hintmask 01000100
          14 63 131 15 73 49 27 20 rlinecurve
          107 85 24 97 5 23 11 51 19 85 40 5 15 1 21 3 7 34 rrcurveto
          endchar
        </CharString>
        <CharString name="Q">
          1059 -101 -21 101 79 568 79 hstem
          148 158 411 158 21 158 vstem
          67 callsubr
          -192 -41 159 -168 259 hhcurveto
          11 50 0 12 59 hvcurveto
          72 -99 rlineto
          -14 12 13 0 18 hhcurveto
          97 hlineto
          13 18 0 18 4 hvcurveto
          1 7 0 1 -18 21 -96 109 rcurveline
          134 62 113 112 28 131 rrcurveto
          -158 hmoveto
          -19 -89 -56 -95 -101 -52 -68 77 rcurveline
          12 -10 -5 0 -20 hhcurveto
          -62 hlineto
          -14 -18 0 -19 -4 hvcurveto
          -3 -11 31 -38 16 -21 rrcurveto
          4 -4 24 -36 0 vvcurveto
          -5 -1 -45 0 -4 hhcurveto
          -165 -108 104 177 38 hvcurveto
          179 38 152 108 166 hhcurveto
          166 106 -108 -179 -38 hvcurveto
          endchar
        </CharString>
        <CharString name="R">
          58 callgsubr
          78 callsubr
          hintmask 11110100
          -73 callsubr
          hintmask 11101000
          170 -285 rlineto
          -19 11 14 0 19 hhcurveto
          74 hlineto
          20 12 0 25 5 hvcurveto
          -74 455 rmoveto
          -100 -21 -157 0 -37 hhcurveto
          -213 hlineto
          42 200 rlineto
          215 hlineto
          hintmask 00000100
          79 callsubr
          endchar
        </CharString>
        <CharString name="Racute">
          58 callgsubr
          92 -21 90 -20 78 callsubr
          hintmask 11100101
          -69 callsubr
          hintmask 00000001
          79 callsubr
          hintmask 00011000
          88 352 -96 callgsubr
        </CharString>
        <CharString name="Rcaron">
          58 callgsubr
          82 -21 104 -20 78 callsubr
          hintmask 11100101
          -69 callsubr
          hintmask 00000001
          79 callsubr
          hintmask 00011000
          71 355 -86 callsubr
        </CharString>
        <CharString name="Rcedilla">
          898 79 callgsubr
          304 76 200 104 78 callsubr
          hintmask 00111101
          -73 callsubr
          hintmask 00111010
          170 -285 rlineto
          -19 11 14 0 19 hhcurveto
          74 hlineto
          20 12 0 25 5 hvcurveto
          -74 455 rmoveto
          -100 -21 -157 0 -37 hhcurveto
          -213 hlineto
          42 200 rlineto
          215 hlineto
          hintmask 11000001
          79 callsubr
          -293 -658 -99 callgsubr
        </CharString>
        <CharString name="Rcommaaccent">
          898 79 callgsubr
          304 76 200 104 78 callsubr
          hintmask 00111101
          -73 callsubr
          hintmask 00111010
          170 -285 rlineto
          -19 11 14 0 19 hhcurveto
          74 hlineto
          20 12 0 25 5 hvcurveto
          -74 455 rmoveto
          -100 -21 -157 0 -37 hhcurveto
          -213 hlineto
          42 200 rlineto
          215 hlineto
          hintmask 00000001
          79 callsubr
          hintmask 11000000
          -293 -658 -99 callgsubr
        </CharString>
        <CharString name="Rdblgrave">
          58 callgsubr
          92 -21 104 -20 78 callsubr
          hintmask 11100101
          -69 callsubr
          hintmask 00000001
          79 callsubr
          hintmask 00011000
          -3 289 -76 callsubr
        </CharString>
        <CharString name="Rdotaccent">
          58 callgsubr
          76 63 hstemhm
          110 158 268 161 -10 155 -74 155 hintmask 11101001
          -69 callsubr
          hintmask 00000001
          79 callsubr
          hintmask 00010100
          -71 311 -37 callgsubr
        </CharString>
        <CharString name="Rdotbelow">
          58 callgsubr
          hstemhm
          110 158 64 161 194 155 -74 155 hintmask 11110010
          -73 callsubr
          hintmask 11100100
          170 -285 rlineto
          -19 11 14 0 19 hhcurveto
          74 hlineto
          20 12 0 25 5 hvcurveto
          -74 455 rmoveto
          -100 -21 -157 0 -37 hhcurveto
          -213 hlineto
          42 200 rlineto
          215 hlineto
          hintmask 00000010
          79 callsubr
          hintmask 00001000
          -275 -649 -104 callsubr
        </CharString>
        <CharString name="Rdotbelowmacron">
          58 callgsubr
          81 90 hstemhm
          110 158 64 161 194 155 -74 155 hintmask 11101001
          -69 callsubr
          hintmask 00000101
          79 callsubr
          -275 -649 -103 callgsubr
          hintmask 00010000
          373 962 -79 callsubr
        </CharString>
        <CharString name="Rho">
          3 callsubr
        </CharString>
        <CharString name="S">
          195 callsubr
          hintmask 01100000
          -87 callsubr
          hintmask 10000000
          -44 callgsubr
          endchar
        </CharString>
        <CharString name="S_S">
          1528 -21 95 -95 98 533 95 hstemhm
          713 129 -70 129 hintmask 00110000
          731 205 rmoveto
          12 57 -16 47 -30 35 -54 62 -54 10 -150 28 -51 9 -84 15 13 57 rrcurveto
          47 10 88 38 97 hhcurveto
          115 41 -49 -42 31 hvcurveto
          -8 7 1 -2 6 hhcurveto
          11 4 9 12 5 hvcurveto
          hintmask 01101000
          39 100 rlineto
          4 8 0 4 0 vvcurveto
          2 9 -6 4 0 vvcurveto
          -5 3 -50 24 -62 12 rrcurveto
          3 -16 -37 8 -66 hhcurveto
          -189 -143 -103 -110 -23 hvcurveto
          -10 -45 10 -49 37 -39 54 -54 62 -11 78 -15 93 -17 rcurveline
          46 -10 55 -27 -11 -51 rrcurveto
          -33 callsubr
          hintmask 10100000
          -44 callgsubr
          764 hmoveto
          12 57 -16 47 -30 35 -54 62 -54 10 -150 28 -51 9 -84 15 13 57 rrcurveto
          47 10 88 38 97 hhcurveto
          115 41 -49 -42 31 hvcurveto
          -8 7 1 -2 6 75 callsubr
          -5 3 -50 24 -62 12 rrcurveto
          3 -16 -37 8 -66 hhcurveto
          -189 -143 -103 -110 -23 hvcurveto
          -10 -45 10 -49 37 -39 54 -54 62 -11 78 -15 93 -17 rcurveline
          46 -10 55 -27 -11 -51 rrcurveto
          hintmask 01001000
          -33 callsubr
          hintmask 10010000
          -44 callgsubr
          endchar
        </CharString>
        <CharString name="Sacute">
          90 callsubr
          71 -21 90 -20 hstemhm
          hintmask 01100000
          -87 callsubr
          hintmask 10000000
          -44 callgsubr
          hintmask 00011000
          58 627 -96 callgsubr
        </CharString>
        <CharString name="Scaron">
          90 callsubr
          61 -21 104 -20 hstemhm
          hintmask 01100000
          -87 callsubr
          hintmask 10000000
          -44 callgsubr
          hintmask 00011000
          41 630 -86 callsubr
        </CharString>
        <CharString name="Scedilla">
          195 callsubr
          118 129 54 129 hintmask 01110000
          -87 callsubr
          hintmask 10011000
          -44 callgsubr
          -301 -263 rmoveto
          14 3 -12 0 -16 hhcurveto
          -28 callgsubr
        </CharString>
        <CharString name="Scircumflex">
          90 callsubr
          61 -21 104 -20 hstemhm
          hintmask 01100000
          -87 callsubr
          hintmask 10000000
          -44 callgsubr
          hintmask 00011000
          25 554 -77 callgsubr
        </CharString>
        <CharString name="Sdotbelow">
          195 callsubr
          265 161 hintmask 01100000
          -87 callsubr
          hintmask 10000000
          -44 callgsubr
          hintmask 00010000
          -305 -374 -104 callsubr
        </CharString>
        <CharString name="Sigma">
          993 0 98 503 83 hstem
          212 840 vstem
          925 44 rmoveto
          2 10 rlineto
          34 8 -6 -48 callgsubr
          -529 hlineto
          274 217 13 10 5 9 2 8 rlinecurve
          2 13 -4 6 -7 7 -194 233 rcurveline
          545 -25 callgsubr
          8 -22 callgsubr
          -752 hlineto
          -24 -20 -1 -41 -9 hvcurveto
          -3 -16 -2 -8 12 -14 229 -272 rcurveline
          -344 -273 -10 -8 -8 -6 -3 -13 rlinecurve
          -32 -7 31 0 13 hhcurveto
          770 hlineto
          27 6 5 22 3 16 rrcurveto
          endchar
        </CharString>
        <CharString name="T">
          983 21 126 callsubr
          hintmask 01010000
          -41 callsubr
          hintmask 10100000
          -118 -554 -53 callsubr
          hintmask 01010000
          14 callgsubr
          endchar
        </CharString>
        <CharString name="T_uni0303">
          162 callgsubr
          61 75 -35 75 104 callgsubr
          hintmask 01000100
          -41 callsubr
          hintmask 10001000
          -118 -554 -53 callsubr
          hintmask 01000100
          14 callgsubr
          hintmask 00010000
          -210 203 -82 callsubr
        </CharString>
        <CharString name="T_uni0308">
          162 callgsubr
          61 57 hstemhm
          420 160 -153 145 -34 160 43 145 hintmask 01000100
          -41 callsubr
          hintmask 10010000
          -118 -554 -53 callsubr
          hintmask 01000100
          14 callgsubr
          hintmask 00100100
          -496 134 90 callgsubr
          hintmask 00101010
          55 callsubr
        </CharString>
        <CharString name="Tau">
          983 21 126 callsubr
          hintmask 01010000
          -41 callsubr
          hintmask 10100000
          -118 -554 -53 callsubr
          hintmask 01010000
          14 callgsubr
          endchar
        </CharString>
        <CharString name="Tcaron">
          162 callgsubr
          82 -21 104 -20 104 callgsubr
          hintmask 01000100
          -41 callsubr
          hintmask 10001000
          -118 -554 -53 callsubr
          hintmask 01000100
          14 callgsubr
          hintmask 00110000
          -186 196 -86 callsubr
        </CharString>
        <CharString name="Tcedilla">
          983 -143 120 44 191 callgsubr
          hstemhm
          314 188 -82 160 -42 160 hintmask 00100100
          -41 callsubr
          hintmask 01001000
          -118 -554 -53 callsubr
          hintmask 10110100
          14 callgsubr
          -547 -676 rmoveto
          14 3 -12 0 -16 hhcurveto
          -28 callgsubr
        </CharString>
        <CharString name="Tdotbelow">
          162 callgsubr
          hstemhm
          374 161 -115 160 -42 160 hintmask 01001000
          -41 callsubr
          hintmask 10010000
          -118 -554 -53 callsubr
          hintmask 01001000
          14 callgsubr
          hintmask 00100000
          -533 -808 -104 callsubr
        </CharString>
        <CharString name="Theta">
          1069 -21 78 214 144 -76 76 214 76 hstemhm
          148 157 84 157 122 157 82 157 hintmask 10111111
          1064 35 callgsubr
          -157 173 -264 hhcurveto
          -264 -231 -173 -193 -41 hvcurveto
          -192 -41 161 -168 262 hhcurveto
          262 231 19 callsubr
          -157 hmoveto
          -175 -37 -154 -107 -170 hhcurveto
          -172 -106 108 174 37 hvcurveto
          180 38 156 110 169 hhcurveto
          170 107 -111 -179 -38 hvcurveto
          -82 -24 rmoveto
          12 56 rlineto
          36 8 -10 8 -36 hhcurveto
          -354 hlineto
          -35 -13 -7 -37 -8 hvcurveto
          -12 -56 rlineto
          hintmask 01000010
          -36 -8 10 -8 36 hhcurveto
          354 hlineto
          35 13 7 37 8 hvcurveto
          endchar
        </CharString>
        <CharString name="Thorn">
          765 21 -21 134 97 238 97 118 -20 hstem
          761 343 rmoveto
          123 26 -126 100 -173 hhcurveto
          -107 hlineto
          16 74 rlineto
          32 7 -10 12 -32 103 callgsubr
          19 90 rlineto
          108 hlineto
          170 169 92 117 25 hvcurveto
          -154 7 rmoveto
          -95 -20 -91 -24 -99 hhcurveto
          -89 hlineto
          51 238 rlineto
          91 hlineto
          101 77 -24 -95 -21 hvcurveto
          endchar
        </CharString>
        <CharString name="Tlinebelow">
          983 -213 90 144 126 callsubr
          hintmask 00101000
          -41 callsubr
          hintmask 01010000
          -118 -554 -53 callsubr
          hintmask 00101000
          14 callgsubr
          hintmask 10000000
          -367 -824 -79 callsubr
        </CharString>
        <CharString name="U">
          37 callsubr
          hstem
          -10 callsubr
          vstem
          22 callsubr
          -103 callsubr
          endchar
        </CharString>
        <CharString name="U_uni032F">
          894 -206 -21 30 89 87 104 601 -20 -14 callsubr
          hintmask 00111110
          22 callsubr
          -103 callsubr
          hintmask 11000000
          -230 -427 -19 callsubr
        </CharString>
        <CharString name="Uacute">
          196 callsubr
          90 -20 -14 callsubr
          hintmask 11001110
          22 callsubr
          -103 callsubr
          hintmask 00110000
          13 600 -96 callgsubr
        </CharString>
        <CharString name="Ubreve">
          37 callsubr
          91 89 30 -20 -14 callsubr
          hintmask 11001110
          22 callsubr
          -103 callsubr
          hintmask 00110010
          -10 610 -83 callgsubr
        </CharString>
        <CharString name="Ucaron">
          37 callsubr
          102 -21 104 -20 -14 callsubr
          hintmask 11001110
          22 callsubr
          -103 callsubr
          hintmask 00110000
          -3 603 -86 callsubr
        </CharString>
        <CharString name="Ucircumflex">
          37 callsubr
          102 -21 104 -20 -14 callsubr
          hintmask 11001110
          22 callsubr
          -103 callsubr
          hintmask 00110000
          -20 527 -77 callgsubr
        </CharString>
        <CharString name="Udblgrave">
          196 callsubr
          104 -20 -14 callsubr
          hintmask 11001110
          22 callsubr
          -103 callsubr
          hintmask 00110000
          -40 537 -76 callsubr
        </CharString>
        <CharString name="Udieresis">
          37 callsubr
          81 57 hstemhm
          92 callgsubr
          -15 145 -58 146 81 145 -59 146 hintmask 01000001
          22 callsubr
          hintmask 11010110
          -103 callsubr
          hintmask 00101010
          -2 callsubr
          endchar
        </CharString>
        <CharString name="Udieresisacute">
          37 callsubr
          81 57 92 -21 90 -63 callgsubr
          38 177 -96 callgsubr
        </CharString>
        <CharString name="Udieresiscaron">
          37 callsubr
          81 57 82 -21 104 -63 callgsubr
          21 180 -86 callsubr
        </CharString>
        <CharString name="Udieresisgrave">
          37 callsubr
          81 57 92 -21 90 -63 callgsubr
          -91 112 -76 callgsubr
        </CharString>
        <CharString name="Udotbelow">
          37 callsubr
          156 callgsubr
          hintmask 11101100
          22 callsubr
          -103 callsubr
          hintmask 00010000
          -350 -401 -104 callsubr
        </CharString>
        <CharString name="Ugrave">
          196 callsubr
          90 -20 -14 callsubr
          hintmask 11001110
          22 callsubr
          -103 callsubr
          hintmask 00110000
          -116 535 -76 callgsubr
        </CharString>
        <CharString name="Uhookabove">
          37 callsubr
          92 -21 200 -20 -14 callsubr
          hintmask 11001110
          22 callsubr
          -103 callsubr
          hintmask 00110000
          -92 618 -87 callgsubr
        </CharString>
        <CharString name="Uhorn">
          121 callsubr
          59 callgsubr
          hintmask 01000100
          -35 callgsubr
          hintmask 01001000
          89 callsubr
          hintmask 01000100
          -58 hlineto
          hintmask 11111000
          -72 callgsubr
          endchar
        </CharString>
        <CharString name="Uhornacute">
          121 callsubr
          92 -21 90 -20 -75 callgsubr
          hintmask 00110000
          -290 120 -96 callgsubr
        </CharString>
        <CharString name="Uhorndotbelow">
          121 callsubr
          156 callgsubr
          -93 160 hintmask 01000010
          -35 callgsubr
          hintmask 01000100
          89 callsubr
          hintmask 01000010
          -58 hlineto
          hintmask 11101100
          -72 callgsubr
          hintmask 00010000
          -615 -881 -104 callsubr
        </CharString>
        <CharString name="Uhorngrave">
          121 callsubr
          92 -21 90 -20 -75 callgsubr
          hintmask 00110000
          -381 55 -76 callgsubr
        </CharString>
        <CharString name="Uhornhookabove">
          121 callsubr
          72 -21 200 -20 -75 callgsubr
          hintmask 00110000
          -357 138 -87 callgsubr
        </CharString>
        <CharString name="Uhorntilde">
          121 callsubr
          61 75 -35 75 -75 callgsubr
          hintmask 00010000
          -293 130 -82 callsubr
        </CharString>
        <CharString name="Uhungarumlaut">
          196 callsubr
          104 -20 -14 callsubr
          hintmask 11001110
          22 callsubr
          -103 callsubr
          hintmask 00110000
          -215 613 rmoveto
          -37 callsubr
          229 hmoveto
          -37 callsubr
          endchar
        </CharString>
        <CharString name="Umacron">
          37 callsubr
          101 90 -14 callsubr
          hintmask 11011100
          22 callsubr
          -103 callsubr
          hintmask 00100000
          23 561 -79 callsubr
        </CharString>
        <CharString name="Uogonek">
          894 -204 79 104 104 601 -20 hstemhm
          92 callgsubr
          -2 146 -72 146 167 146 hintmask 01110110
          22 callsubr
          -86 -405 -4 -20 -13 -58 -64 -38 rlinecurve
          -33 -57 -60 -3 -29 hhcurveto
          -26 -59 2 30 -40 hvcurveto
          -31 24 -15 35 13 60 86 406 rcurveline
          -53 callgsubr
          -87 -408 rlineto
          hintmask 10001000
          -28 -133 110 -100 163 -17 -34 -28 -34 -36 -8 -36 56 callgsubr
          -11 -30 -27 -6 -24 hhcurveto
          -20 -26 3 27 6 hvcurveto
          5 25 24 28 28 22 177 8 164 103 30 141 rrcurveto
          endchar
        </CharString>
        <CharString name="Upsilon">
          1069 21 -21 585 120 hstemhm
          338 160 -35 160 -95 160 hintmask 01101000
          1109 551 rmoveto
          93 20 -95 61 -124 hhcurveto
          -141 -88 -128 -93 -43 hvcurveto
          -1 hlineto
          98 -4 -37 123 -138 hhcurveto
          -125 -120 -61 -93 -20 hvcurveto
          -35 -7 27 0 15 hhcurveto
          62 hlineto
          15 23 0 29 10 hvcurveto
          19 6 7 21 76 hhcurveto
          151 -45 -213 -25 -5 hvcurveto
          hintmask 00010000
          -65 -303 rlineto
          hintmask 10100000
          -94 callgsubr
          72 hlineto
          hintmask 00010000
          34 12 8 36 7 hvcurveto
          hintmask 01001000
          65 303 rlineto
          25 5 45 213 151 hhcurveto
          76 -2 -20 -21 -1 hvcurveto
          -28 -2 23 0 15 hhcurveto
          62 hlineto
          15 27 0 35 7 hvcurveto
          endchar
        </CharString>
        <CharString name="Uring">
          37 callsubr
          30 27 50 27 -14 callsubr
          hintmask 11001110
          22 callsubr
          -103 callsubr
          hintmask 00110000
          -160 514 -67 callsubr
          88 168 callgsubr
          95 167 callgsubr
          endchar
        </CharString>
        <CharString name="Utilde">
          37 callsubr
          81 75 -35 75 -14 callsubr
          hintmask 11001110
          22 callsubr
          -103 callsubr
          hintmask 00010000
          -28 610 -82 callsubr
        </CharString>
        <CharString name="V">
          889 14 -21 691 -20 hstem
          997 662 rmoveto
          22 4 -20 0 -15 hhcurveto
          -64 hlineto
          -18 -27 0 -34 -23 hvcurveto
          -354 -525 -132 520 rlineto
          22 -5 -5 17 -45 hhcurveto
          -81 hlineto
          -20 -15 0 -28 -6 hvcurveto
          158 -624 rlineto
          -22 5 5 -17 45 hhcurveto
          118 hlineto
          21 25 0 37 24 hvcurveto
          415 614 8 12 1 2 1 4 rlinecurve
          endchar
        </CharString>
        <CharString name="W">
          172 callgsubr
          hstem
          169 1212 vstem
          -74 callsubr
          endchar
        </CharString>
        <CharString name="Wacute">
          172 callgsubr
          112 -21 90 -20 hstemhm
          169 1212 hintmask 11001000
          -74 callsubr
          hintmask 00110000
          -338 172 -96 callgsubr
        </CharString>
        <CharString name="Wcircumflex">
          172 callgsubr
          102 -21 104 -20 hstemhm
          169 1212 hintmask 11001000
          -74 callsubr
          hintmask 00110000
          -371 99 -77 callgsubr
        </CharString>
        <CharString name="Wdieresis">
          172 callgsubr
          81 57 hstemhm
          169 1212 -810 99 callgsubr
          hintmask 11010000
          -74 callsubr
          hintmask 00101100
          -665 113 rmoveto
          29 6 -29 0 -11 hhcurveto
          -65 hlineto
          55 callsubr
        </CharString>
        <CharString name="Wgrave">
          172 callgsubr
          112 -21 90 -20 hstemhm
          169 1212 hintmask 11001000
          -74 callsubr
          hintmask 00110000
          -467 107 -76 callgsubr
        </CharString>
        <CharString name="X">
          -11 callsubr
        </CharString>
        <CharString name="Xi">
          917 0 130 159 130 132 130 hstemhm
          66 802 -793 802 hintmask 10101000
          977 595 rmoveto
          9 42 rlineto
          34 8 -6 -48 callgsubr
          -698 26 callgsubr
          -8 hvcurveto
          -9 -42 -97 callgsubr
          698 -93 callgsubr
          -109 -551 rmoveto
          9 42 rlineto
          34 8 -6 -48 callgsubr
          -714 26 callgsubr
          -8 hvcurveto
          hintmask 11010000
          -9 -42 -97 callgsubr
          714 -93 callgsubr
          -34 289 rmoveto
          9 42 -93 callsubr
          -522 26 callgsubr
          -7 191 callsubr
          -34 -7 5 -50 callsubr
          522 hlineto
          34 12 8 36 8 hvcurveto
          endchar
        </CharString>
        <CharString name="Y">
          889 74 callgsubr
          109 callsubr
          hintmask 01010000
          1002 665 rmoveto
          19 4 -17 0 -15 hhcurveto
          -84 hlineto
          -18 -33 0 -33 -36 hvcurveto
          -261 -240 -160 240 rlineto
          33 -22 -34 0 -17 hhcurveto
          -105 hlineto
          -15 -17 0 -19 -4 hvcurveto
          -1 -6 1 -4 6 -9 249 -372 rcurveline
          hintmask 10100000
          -49 -230 27 callsubr
          35 7 hvcurveto
          hintmask 00010000
          49 230 406 373 14 11 0 2 1 6 rlinecurve
          endchar
        </CharString>
        <CharString name="Yacute">
          889 74 callgsubr
          112 -21 90 -20 -68 callsubr
          hintmask 00110000
          -150 167 -96 callgsubr
        </CharString>
        <CharString name="Ycircumflex">
          889 74 callgsubr
          102 -21 104 -20 -68 callsubr
          hintmask 00110000
          -183 94 -77 callgsubr
        </CharString>
        <CharString name="Ydieresis">
          889 74 callgsubr
          81 57 hstemhm
          374 158 -152 145 -102 158 113 145 hintmask 01000100
          1002 665 rmoveto
          19 4 -17 0 -15 hhcurveto
          -84 hlineto
          -18 -33 0 -33 -36 hvcurveto
          -261 -240 -160 240 rlineto
          33 -22 -34 0 -17 hhcurveto
          -105 hlineto
          -15 -17 0 -19 -4 hvcurveto
          -1 -6 1 -4 6 -9 249 -372 rcurveline
          hintmask 10010000
          -49 -230 27 callsubr
          35 7 hvcurveto
          hintmask 00000100
          49 230 406 373 14 11 0 2 1 6 rlinecurve
          hintmask 00101010
          -477 108 rmoveto
          29 6 -29 0 -11 hhcurveto
          -65 hlineto
          55 callsubr
        </CharString>
        <CharString name="Ydotbelow">
          889 74 callgsubr
          hstemhm
          327 161 -114 158 -109 158 hintmask 01001000
          1002 665 rmoveto
          19 4 -17 0 -15 hhcurveto
          -84 hlineto
          -18 -33 0 -33 -36 hvcurveto
          -261 -240 -160 240 rlineto
          33 -22 -34 0 -17 hhcurveto
          -105 hlineto
          -15 -17 0 -19 -4 hvcurveto
          -1 -6 1 -4 6 -9 249 -372 rcurveline
          hintmask 10010000
          -49 -230 27 callsubr
          35 7 hvcurveto
          hintmask 00001000
          49 230 406 373 14 11 0 2 1 6 rlinecurve
          hintmask 00100000
          -514 -834 -104 callsubr
        </CharString>
        <CharString name="Ygrave">
          889 74 callgsubr
          112 -21 90 -20 -68 callsubr
          hintmask 00110000
          -279 102 -76 callgsubr
        </CharString>
        <CharString name="Yhookabove">
          889 74 callgsubr
          92 -21 200 -20 -68 callsubr
          hintmask 00110000
          -255 185 -87 callgsubr
        </CharString>
        <CharString name="Ytilde">
          889 74 callgsubr
          81 75 -35 75 -68 callsubr
          hintmask 00010000
          -191 177 -82 callsubr
        </CharString>
        <CharString name="Z">
          122 callsubr
          hstem
          85 694 vstem
          -63 callsubr
          endchar
        </CharString>
        <CharString name="Zacute">
          122 callsubr
          92 -21 90 -20 hstemhm
          85 694 hintmask 11001000
          -63 callsubr
          hintmask 00110000
          48 790 -96 callgsubr
        </CharString>
        <CharString name="Zcaron">
          122 callsubr
          82 -21 104 -20 hstemhm
          85 694 hintmask 11001000
          -63 callsubr
          hintmask 00110000
          32 793 -86 callsubr
        </CharString>
        <CharString name="Zdotaccent">
          122 callsubr
          76 63 hstemhm
          85 694 -272 161 hintmask 11010000
          -63 callsubr
          hintmask 00101000
          -111 749 -37 callgsubr
        </CharString>
        <CharString name="Zdotbelow">
          122 callsubr
          hstemhm
          85 694 -476 161 hintmask 11100000
          -63 callsubr
          hintmask 00010000
          -315 -211 -104 callsubr
        </CharString>
        <CharString name="Zeta">
          122 callsubr
          hstem
          85 694 vstem
          -63 callsubr
          endchar
        </CharString>
        <CharString name="a">
          10 callgsubr
          hstem
          -107 callgsubr
          endchar
        </CharString>
        <CharString name="aacute">
          10 callgsubr
          98 -21 104 -97 callsubr
          171 428 -90 callsubr
        </CharString>
        <CharString name="abreve">
          10 callgsubr
          70 89 30 -97 callsubr
          184 418 -83 callgsubr
        </CharString>
        <CharString name="abreveacute">
          10 callgsubr
          70 89 170 -97 callsubr
          184 418 -104 callgsubr
          2 159 21 callsubr
          258 62 7 2 6 3 2 10 rlinecurve
          endchar
        </CharString>
        <CharString name="abrevedotbelow">
          10 callgsubr
          70 89 30 -20 hstemhm
          206 161 hintmask 11110000
          -107 callgsubr
          184 418 -104 callgsubr
          hintmask 00001000
          -312 -879 -104 callsubr
        </CharString>
        <CharString name="abrevegrave">
          10 callgsubr
          70 89 30 -97 callsubr
          184 418 -104 callgsubr
          -12 94 rmoveto
          -9 -2 -10 114 callsubr
          -230 62 -7 2 -4 3 2 10 rlinecurve
          7 1 -3 callgsubr
        </CharString>
        <CharString name="abrevehookabove">
          10 callgsubr
          70 89 30 89 0 89 52 -101 callgsubr
          hintmask 00110100
          184 418 -8 callsubr
          hintmask 00001000
          -26 callsubr
          -2 -3 -4 vvcurveto
          -91 callsubr
        </CharString>
        <CharString name="abrevetilde">
          10 callgsubr
          70 89 100 75 -35 75 -105 callgsubr
          hintmask 00101000
          184 418 -104 callgsubr
          25 199 7 callsubr
          hintmask 00010000
          -27 callgsubr
          hintmask 00001000
          184 callsubr
          hintmask 00010000
          -18 -3 81 callsubr
        </CharString>
        <CharString name="acaron">
          10 callgsubr
          98 -21 104 -97 callsubr
          194 428 -80 callgsubr
        </CharString>
        <CharString name="acircumflex">
          10 callgsubr
          98 -21 104 -97 callsubr
          9 callgsubr
          endchar
        </CharString>
        <CharString name="acircumflexacute">
          10 callgsubr
          98 -21 244 -97 callsubr
          9 callgsubr
          5 217 rmoveto
          7 1 -6 6 -7 hhcurveto
          -174 hlineto
          -9 -2 -154 -62 -5 -2 -3 -5 -2 -7 rlinecurve
          -9 -2 9 -3 8 hhcurveto
          72 hlineto
          257 62 7 2 6 3 2 10 rlinecurve
          endchar
        </CharString>
        <CharString name="acircumflexdotbelow">
          10 callgsubr
          98 -21 104 -20 hstemhm
          206 161 hintmask 11110000
          -107 callgsubr
          9 callgsubr
          hintmask 00001000
          -306 -813 -104 callsubr
        </CharString>
        <CharString name="acircumflexgrave">
          10 callgsubr
          98 -21 104 -97 callsubr
          9 callgsubr
          -8 152 rmoveto
          -9 -2 -9 114 callsubr
          -231 62 -7 2 -4 3 2 10 rlinecurve
          7 1 10 6 7 hhcurveto
          174 hlineto
          7 -2 128 -62 5 -2 1 -5 -2 -7 rlinecurve
          endchar
        </CharString>
        <CharString name="acircumflexhookabove">
          10 callgsubr
          98 -21 334 -97 callsubr
          178 352 -71 callgsubr
        </CharString>
        <CharString name="acircumflextilde">
          10 callgsubr
          98 -21 174 75 -35 75 -105 callgsubr
          hintmask 00101000
          178 352 40 callsubr
          hintmask 00010000
          -27 callgsubr
          hintmask 00001000
          28 callgsubr
          hintmask 00010000
          5 callsubr
          hintmask 00001000
          -23 callgsubr
          hintmask 00010000
          166 callsubr
        </CharString>
        <CharString name="acute">
          120 callsubr
          687 720 -90 callsubr
        </CharString>
        <CharString name="acute.cap">
          688 630 -21 90 -20 hstem
          720 686 -96 callgsubr
        </CharString>
        <CharString name="acute.dup">
          120 callsubr
          687 720 -90 callsubr
        </CharString>
        <CharString name="acute.ts1">
          688 652 -21 105 -20 hstem
          725 721 rmoveto
          11 1 -11 3 -10 hhcurveto
          -76 hlineto
          -7 -7 1 -8 hhcurveto
          -6 -6 -1 -1 -5 hvcurveto
          7 1 -174 -65 -25 vvcurveto
          -11 1 7 -3 13 hhcurveto
          28 hlineto
          14 12 3 4 13 hvcurveto
          195 66 9 3 11 3 -1 11 rlinecurve
          endchar
        </CharString>
        <CharString name="adblgrave">
          10 callgsubr
          98 -21 104 -97 callsubr
          156 352 -79 callgsubr
        </CharString>
        <CharString name="adieresis">
          10 callgsubr
          101 57 hstemhm
          263 71 callsubr
          hintmask 11000000
          -107 callgsubr
          hintmask 00111000
          -87 390 -69 callgsubr
        </CharString>
        <CharString name="adotbelow">
          10 callgsubr
          hstemhm
          206 161 hintmask 11000000
          -107 callgsubr
          hintmask 00100000
          -128 -461 -104 callsubr
        </CharString>
        <CharString name="ae">
          -46 callgsubr
        </CharString>
        <CharString name="ae.dup">
          -46 callgsubr
        </CharString>
        <CharString name="aeacute">
          993 -10 76 9 76 114 57 -41 57 -16 57 -41 76 63 76 98 -21 104 -20 hstemhm
          75 143 263 146 120 146 -80 146 hintmask 0000011000100000
          1022 320 rmoveto
          109 23 -36 124 -178 hhcurveto
          -92 -73 -40 -28 -39 hvcurveto
          43 -41 -54 25 -91 hhcurveto
          -83 -60 -14 -21 -62 hvcurveto
          -33 -12 -2 -1 -2 -12 -3 -12 -6 -52 -1 -13 rrcurveto
          -5 -1 -11 12 4 2 0 14 19 vhcurveto
          42 57 65 27 79 hhcurveto
          hintmask 1100100001001000
          52 41 -32 -72 -15 hvcurveto
          -13 -57 rlineto
          -76 -308 -19 -153 -32 hvcurveto
          -67 -14 33 -93 130 hhcurveto
          73 148 12 73 81 hvcurveto
          -69 61 81 -16 61 hhcurveto
          80 76 26 42 70 hvcurveto
          3 3 2 7 1 3 2 10 3 27 1 11 rrcurveto
          28 3 1 7 -12 hhcurveto
          -5 -1 -1 -14 -18 hvcurveto
          hintmask 1001000000010000
          -73 -89 -85 0 -14 hhcurveto
          -76 -73 69 146 31 hvcurveto
          341 hlineto
          20 24 0 39 8 hvcurveto
          -129 18 rmoveto
          -244 hlineto
          hintmask 0000001000001000
          80 35 67 59 62 hhcurveto
          hintmask 1101000001010000
          88 0 -87 -52 -8 hvcurveto
          -412 -173 rmoveto
          -82 -27 -107 -17 -44 hhcurveto
          -64 -30 42 43 9 hvcurveto
          hintmask 0010000000100000
          12 54 77 49 172 11 -5 -35 -1 -28 8 -37 rrcurveto
          hintmask 0000000110000000
          359 555 -90 callsubr
        </CharString>
        <CharString name="agrave">
          10 callgsubr
          98 -21 104 -97 callsubr
          60 352 -64 callgsubr
        </CharString>
        <CharString name="ahookabove">
          10 callgsubr
          80 -21 200 -97 callsubr
          104 435 -24 callsubr
          -26 callsubr
          -2 -3 -4 vvcurveto
          -91 callsubr
        </CharString>
        <CharString name="amacron">
          10 callgsubr
          84 90 -105 callgsubr
          hintmask 00100000
          217 373 -59 callsubr
        </CharString>
        <CharString name="ampersand">
          1028 -21 83 -33 76 160 76 298 76 hstemhm
          343 121 92 121 hintmask 01000000
          957 29 rmoveto
          10 48 rlineto
          15 4 2 13 -14 hhcurveto
          -3 -2 0 -8 -11 hvcurveto
          hintmask 10111100
          -26 -48 -45 -9 -37 hhcurveto
          -27 -52 4 33 -57 hvcurveto
          37 24 57 39 72 74 114 119 60 121 1 6 2 6 -3 5 -7 2 rrcurveto
          2 -4 -54 16 -3 hhcurveto
          -11 -2 -5 -24 -14 hvcurveto
          -109 -200 -143 -101 -63 -35 -37 33 -63 63 -43 91 144 76 110 64 17 78 rrcurveto
          88 18 -68 74 -111 hhcurveto
          -107 -122 -76 -122 -26 hvcurveto
          -14 -63 4 -66 12 -47 -18 -10 -121 -63 -4 -3 -49 -32 -31 -40 -9 -44 rrcurveto
          -102 -22 89 -68 148 hhcurveto
          96 92 27 28 64 hvcurveto
          -49 96 94 -6 49 hhcurveto
          73 56 17 4 12 hvcurveto
          hintmask 01010000
          16 5 1 3 4 21 rrcurveto
          -344 522 rmoveto
          -9 -41 -43 -47 -118 -60 -10 45 -3 48 11 49 rrcurveto
          73 15 69 21 32 hhcurveto
          48 17 -46 -42 -9 hvcurveto
          -137 -464 rmoveto
          hintmask 10001000
          -23 -77 -58 -2 -17 hhcurveto
          -75 -20 58 46 9 hvcurveto
          13 60 42 22 50 26 25 -58 41 -69 67 -60 rrcurveto
          endchar
        </CharString>
        <CharString name="anglearc">
          1069 -160 -21 918 -20 hstemhm
          719 90 -8 90 hintmask 01010000
          1002 45 rmoveto
          4 21 -10 17 -18 5 -135 41 rcurveline
          22 48 15 50 11 51 11 51 6 50 -1 48 151 41 rcurveline
          21 5 17 17 5 21 rrcurveto
          25 5 -16 20 -25 hhcurveto
          -4 -4 197 callsubr
          -153 -40 -10 74 -23 70 -37 62 rlinecurve
          10 -6 -11 7 -14 hhcurveto
          -25 -25 -20 -25 -5 hvcurveto
          -2 -11 2 -9 4 -8 rrcurveto
          hintmask 10100000
          31 -53 20 -59 10 -63 -632 -168 rcurveline
          -20 -5 -17 -17 -5 -21 -4 -21 10 -17 18 -5 560 -168 rcurveline
          -36 -63 -46 -59 -53 -53 -8 -8 -6 -9 -2 -11 rrcurveto
          -25 -5 16 -20 25 hhcurveto
          14 14 7 10 10 hvcurveto
          63 62 53 70 42 74 135 -40 rcurveline
          -1 4 4 -1 4 hhcurveto
          25 24 20 25 6 hvcurveto
          -201 233 rmoveto
          -9 -42 -13 -42 -17 -41 -416 125 rcurveline
          469 125 rlineto
          hintmask 00010000
          -41 -5 -42 -9 -42 vhcurveto
          endchar
        </CharString>
        <CharString name="angleleft">
          168 callsubr
          423 -163 rmoveto
          26 -13 29 -7 25 vhcurveto
          -41 149 -39 144 rlineto
          -5 18 -10 22 16 vvcurveto
          3 vlineto
          5 4 4 3 4 vhcurveto
          263 376 rlineto
          13 19 20 20 24 vvcurveto
          24 -1 -20 20 -24 hhcurveto
          hintmask 11000000
          -3 -2 -1 -3 hhcurveto
          -24 -4 -12 -22 -13 -19 -238 -340 rcurveline
          -40 -57 -8 -12 -10 -11 -2 -15 rlinecurve
          -4 vlineto
          -18 10 -25 5 -21 vhcurveto
          102 -368 rlineto
          -30 8 9 -26 33 hhcurveto
          27 18 21 24 hvcurveto
          endchar
        </CharString>
        <CharString name="angleright">
          168 callsubr
          441 273 rmoveto
          3 vlineto
          20 -10 29 -7 23 vhcurveto
          -100 364 rlineto
          26 -8 -9 27 -32 hhcurveto
          hintmask 11000000
          -3 -2 -1 -3 hhcurveto
          -23 -4 -15 -19 -23 vvcurveto
          -6 vlineto
          14 -64 21 -64 18 -63 19 -70 17 -72 22 -69 rrcurveto
          1 -6 3 -8 -6 vvcurveto
          -2 vlineto
          -4 -4 -4 -2 -4 vhcurveto
          -64 -91 -179 -256 -34 -48 rlineto
          -9 -13 -10 -12 -18 vvcurveto
          -24 19 -21 25 -1 vhcurveto
          27 13 22 20 14 hvcurveto
          89 127 152 217 40 57 8 12 10 11 2 15 rlinecurve
          endchar
        </CharString>
        <CharString name="aogonek">
          183 callgsubr
          hstem
          562 -152 -35 callsubr
          30 -93 callgsubr
          70 330 rlineto
          105 23 -90 74 -140 hhcurveto
          -59 -63 -7 -28 -80 hvcurveto
          -11 -4 -15 -5 -5 -4 -8 -4 -1 -7 -1 -3 -2 -12 -6 -52 -1 -13 rrcurveto
          -5 -1 -11 12 5 2 0 13 16 vhcurveto
          33 42 65 39 96 hhcurveto
          54 38 -38 -73 -16 hvcurveto
          -8 -37 -150 -2 -240 -41 -29 -137 rlinecurve
          -88 -19 61 -77 105 hhcurveto
          93 85 43 48 42 hvcurveto
          -8 -37 -3 -14 -1 -10 4 -7 rlinecurve
          -41 -25 -67 -54 -11 -52 -55 callgsubr
          -92 327 rmoveto
          -109 -23 -131 0 -4 hhcurveto
          -59 -35 41 49 10 hvcurveto
          16 75 105 52 146 9 rrcurveto
          endchar
        </CharString>
        <CharString name="aogonekacute">
          183 callgsubr
          98 -21 104 -20 hstemhm
          hintmask 11100000
          562 -152 -35 callsubr
          30 -93 callgsubr
          70 330 rlineto
          105 23 -90 74 -140 hhcurveto
          -59 -63 -7 -28 -80 hvcurveto
          -11 -4 -15 -5 -5 -4 -8 -4 -1 -7 -1 -3 -2 -12 -6 -52 -1 -13 rrcurveto
          -5 -1 -11 12 5 2 0 13 16 vhcurveto
          33 42 65 39 96 hhcurveto
          54 38 -38 -73 -16 hvcurveto
          -8 -37 -150 -2 -240 -41 -29 -137 rlinecurve
          -88 -19 61 -77 105 hhcurveto
          93 85 43 48 42 hvcurveto
          -8 -37 -3 -14 -1 -10 4 -7 rlinecurve
          -41 -25 -67 -54 -11 -52 -55 callgsubr
          -92 327 rmoveto
          -109 -23 -131 0 -4 hhcurveto
          -59 -35 41 49 10 hvcurveto
          16 75 105 52 146 9 rrcurveto
          hintmask 00011000
          171 428 -90 callsubr
        </CharString>
        <CharString name="aring">
          10 callgsubr
          66 27 50 27 -105 callgsubr
          hintmask 00110000
          46 379 5 callgsubr
        </CharString>
        <CharString name="aringacute">
          10 callgsubr
          66 27 50 27 140 -101 callgsubr
          hintmask 00111000
          46 379 -67 callsubr
          89 168 callgsubr
          94 167 callgsubr
          58 179 rmoveto
          7 1 -40 callsubr
          6 3 2 10 rlinecurve
          endchar
        </CharString>
        <CharString name="asciicircum">
          556 583 -21 123 59 hstem
          119 566 vstem
          685 584 rmoveto
          -249 160 -317 -160 6 -22 298 123 245 -123 rlineto
          endchar
        </CharString>
        <CharString name="asciitilde">
          556 221 192 callgsubr
          623 318 rmoveto
          -11 17 rlineto
          -41 -58 -59 27 callgsubr
        </CharString>
        <CharString name="asciitilde.low">
          556 0 192 callgsubr
          576 97 rmoveto
          -11 17 rlineto
          -41 -57 -60 27 callgsubr
        </CharString>
        <CharString name="asterisk">
          688 247 167 callsubr
          hstemhm
          171 511 -466 511 hintmask 01010000
          682 390 rmoveto
          5 24 -8 16 -22 8 -164 57 rcurveline
          187 57 12 3 27 9 8 36 rlinecurve
          35 7 -24 26 -27 hhcurveto
          -13 -8 -4 -10 -14 hvcurveto
          -172 -118 71 173 rlineto
          2 3 3 8 3 vvcurveto
          28 6 -24 20 -28 hhcurveto
          -32 -29 -22 -26 -6 hvcurveto
          -1 -4 0 -2 -13 vvcurveto
          -3 -168 -121 118 rlineto
          9 -11 -4 5 -15 hhcurveto
          -27 -34 -26 -35 -7 hvcurveto
          -6 -24 8 -16 22 -8 164 -57 rcurveline
          -187 -57 rlineto
          hintmask 10100000
          -12 -3 -26 -9 -8 -36 rrcurveto
          -35 -8 24 -26 27 hhcurveto
          13 9 4 10 14 hvcurveto
          171 118 -71 -173 -1 -3 -3 -8 -1 -3 rlinecurve
          -28 -6 24 -20 28 hhcurveto
          32 30 22 26 5 hvcurveto
          1 4 1 2 -1 13 3 168 rcurveline
          122 -118 rlineto
          -9 10 4 -5 15 hhcurveto
          27 34 26 35 8 hvcurveto
          endchar
        </CharString>
        <CharString name="asterisk.math">
          688 31 167 callsubr
          hstem
          682 397 rmoveto
          23 -16 25 -28 -21 -20 -17 -11 -17 vhcurveto
          -149 -103 59 145 rlineto
          6 15 10 18 17 vvcurveto
          26 -24 13 -22 -39 -30 -27 -44 vhcurveto
          -10 1 -11 -9 vvcurveto
          -3 -133 -97 94 rlineto
          15 -17 -12 22 -26 hhcurveto
          -37 -32 -42 -31 -32 28 -3 30 -12 hvcurveto
          38 -13 39 -11 37 -16 6 -2 6 -1 5 -4 -17 -2 -16 -7 -16 -5 -43 -14 -44 -12 -44 -14 rrcurveto
          -33 -9 -21 -21 -33 vvcurveto
          -22 15 -26 31 21 19 17 12 17 vhcurveto
          148 102 -18 -49 -21 -47 -19 -48 rlinecurve
          -6 -15 -11 -18 -17 vvcurveto
          -27 24 -13 23 37 30 26 40 vhcurveto
          28 vlineto
          3 46 0 48 46 vvcurveto
          -42 42 75 -89 35 hhcurveto
          38 31 42 32 22 -14 8 -18 7 hvcurveto
          -27 9 -130 46 141 43 39 12 rlineto
          33 9 21 21 33 vvcurveto
          endchar
        </CharString>
        <CharString name="at">
          917 -10 76 52 76 306 76 52 76 hstem
          150 124 120 124 vstem
          859 91 -50 callgsubr
          -44 hlineto
          -16 -2 0 -7 -22 hvcurveto
          -28 -88 -72 -4 -39 hhcurveto
          -199 -109 135 146 31 hvcurveto
          155 33 178 126 179 hhcurveto
          40 60 -9 -57 26 hvcurveto
          14 -44 -31 0 -13 hhcurveto
          -147 -135 -105 -124 -26 hvcurveto
          -123 -26 90 -106 147 hhcurveto
          121 156 79 160 34 hvcurveto
          206 44 -47 141 -230 hhcurveto
          -259 -234 -166 -191 -40 hvcurveto
          -191 -41 162 -166 260 hhcurveto
          88 112 20 71 123 hvcurveto
          0 4 5 1 5 vhcurveto
          -69 256 rmoveto
          -86 -19 -77 -67 -73 hhcurveto
          -73 -49 67 86 19 hvcurveto
          86 18 77 67 73 hhcurveto
          73 49 -67 -86 -18 hvcurveto
          endchar
        </CharString>
        <CharString name="atilde">
          10 callgsubr
          72 75 -35 75 -105 callgsubr
          hintmask 00010000
          168 430 rmoveto
          18 4 -66 callgsubr
          51 50 47 10 hvcurveto
          endchar
        </CharString>
        <CharString name="b">
          681 -10 76 406 76 146 -20 hstem
          179 146 vstem
          132 callgsubr
          35 165 rlineto
          34 7 -5 10 -36 hhcurveto
          -56 hlineto
          -34 -12 -8 -36 -8 hvcurveto
          -129 -606 48 callgsubr
          125 callgsubr
        </CharString>
        <CharString name="backslash">
          575 750 -20 hstem
          463 -219 rmoveto
          2 6 -1 1 -2 13 -182 919 rcurveline
          17 -3 -3 13 -21 hhcurveto
          -14 -18 -11 -20 -4 hvcurveto
          -1 -6 0 -1 3 -13 181 -919 rcurveline
          -15 3 3 -15 21 hhcurveto
          14 18 11 20 4 hvcurveto
          endchar
        </CharString>
        <CharString name="baht">
          903 0 104 214 76 186 104 hstemhm
          290 157 -59 84 -71 84 -62 84 39 84 -70 84 -59 155 -27 155 hintmask 0000000100000000
          868 196 rmoveto
          20 94 -130 53 -107 16 84 15 141 43 18 85 21 98 -129 74 -156 9 rrcurveto
          hintmask 0000000010000000
          14 64 185 callsubr
          hintmask 0000000001000000
          -43 hlineto
          hintmask 0000000010000000
          -11 -12 -9 -12 -2 hvcurveto
          hintmask 1011000100000000
          -14 -63 rlineto
          -256 -74 callgsubr
          hintmask 1000010000000000
          256 hlineto
          hintmask 0000100000000000
          -13 -63 rlineto
          -12 -3 8 -9 11 hhcurveto
          hintmask 0001000000000000
          43 hlineto
          hintmask 0000100000000000
          11 189 callgsubr
          hintmask 1000010000100000
          13 63 rlineto
          6 hlineto
          175 178 85 111 24 hvcurveto
          -128 304 rmoveto
          -10 -49 -77 -37 -83 -14 37 175 rcurveline
          hintmask 0110010001000000
          67 -8 76 -22 -10 -45 rrcurveto
          -255 -106 rmoveto
          -143 hlineto
          39 186 rlineto
          143 hlineto
          189 -383 rmoveto
          hintmask 1100001000100000
          -12 -56 -108 -30 -86 -6 45 209 rcurveline
          106 -13 67 -48 -12 -56 rrcurveto
          -290 -93 rmoveto
          -143 hlineto
          46 214 rlineto
          143 hlineto
          endchar
        </CharString>
        <CharString name="bar">
          319 750 -20 hstem
          85 61 133 61 vstem
          146 -206 rmoveto
          39 callsubr
          endchar
        </CharString>
        <CharString name="bigcircle">
          116 callsubr
          530 -61 callgsubr
          endchar
        </CharString>
        <CharString name="blanksymbol">
          681 -10 76 406 76 0 76 70 -20 hstemhm
          179 146 hintmask 10111000
          132 callgsubr
          7 32 112 75 10 7 5 13 -5 9 rlinecurve
          -19 34 -6 9 -12 2 -11 -7 rlinecurve
          -51 -35 5 26 -57 callsubr
          -29 -139 -81 -54 -10 -7 -5 -13 5 -9 rlinecurve
          20 -34 5 -9 13 -1 10 7 rlinecurve
          20 13 -77 -360 48 callgsubr
          hintmask 01000000
          125 callgsubr
        </CharString>
        <CharString name="braceleft">
          183 callsubr
          hstem
          253 111 cntrmask 11100000
          447 -232 rmoveto
          2 13 -4 4 -11 1 -83 5 -30 35 -4 36 -1 10 1 8 4 17 50 237 rcurveline
          8 42 -21 51 -81 23 126 32 15 69 9 45 45 210 rcurveline
          4 22 7 29 45 29 12 7 33 18 53 3 14 1 8 0 4 17 rrcurveto
          18 3 -9 0 -22 hhcurveto
          -142 -100 -50 -77 -18 hvcurveto
          -43 -206 -14 -62 -4 -21 -39 -29 rlinecurve
          -28 -21 -38 -14 -41 -2 -14 -1 -8 0 -4 -17 -3 -13 5 -4 11 -1 89 -5 27 -45 1 -36 rrcurveto
          -8 0 -2 -8 -37 vhcurveto
          -45 -210 rlineto
          -128 -27 164 -11 67 hhcurveto
          22 9 0 18 4 hvcurveto
          endchar
        </CharString>
        <CharString name="braceright">
          183 callsubr
          hstemhm
          254 111 -55 111 -104 111 cntrmask 11100000
          hintmask 11101000
          549 250 rmoveto
          3 13 -4 4 -12 1 -63 3 -47 26 -5 55 rrcurveto
          hintmask 11100100
          -1 8 0 2 8 39 45 210 rcurveline
          123 26 -149 16 -82 hhcurveto
          -21 -10 0 -18 -3 hvcurveto
          -3 -13 4 -4 12 -1 rrcurveto
          hintmask 11110000
          80 -4 34 -33 4 -39 rrcurveto
          -10 -1 -8 -4 -17 vhcurveto
          hintmask 11101000
          -50 -237 -8 -42 20 -50 82 -24 rlinecurve
          hintmask 11110000
          -126 -32 -14 -68 -10 -46 -45 -210 rcurveline
          -4 -23 -6 -26 -43 -29 -12 -7 -35 -20 -54 -3 -15 -1 -8 0 -3 -17 rrcurveto
          -18 -4 10 0 21 hhcurveto
          hintmask 11100100
          150 94 54 73 17 hvcurveto
          44 206 13 65 4 17 41 31 rlinecurve
          13 11 38 22 53 3 15 1 8 0 3 17 rrcurveto
          endchar
        </CharString>
        <CharString name="bracketleft">
          417 -208 76 820 76 hstem
          350 -170 28 callsubr
          -80 hlineto
          174 820 rlineto
          80 -22 callsubr
          -13 callgsubr
          -179 -88 callgsubr
          -188 -884 -97 callgsubr
          179 64 callgsubr
        </CharString>
        <CharString name="bracketright">
          417 -208 76 820 76 hstem
          262 -164 rmoveto
          188 884 -93 callsubr
          -179 -26 callgsubr
          80 hlineto
          -174 -820 rlineto
          -80 -26 callgsubr
          179 hlineto
          34 11 8 36 8 hvcurveto
          endchar
        </CharString>
        <CharString name="breve">
          190 callgsubr
          30 -20 hstem
          51 callgsubr
          endchar
        </CharString>
        <CharString name="breve.cap">
          688 609 89 30 -20 hstem
          697 696 -83 callgsubr
        </CharString>
        <CharString name="breve.ts1">
          840 821 731 rmoveto
          18 4 -12 14 -23 hhcurveto
          -13 -9 -5 -5 -7 hvcurveto
          -30 -21 -93 10 -71 hhcurveto
          -85 -78 10 11 -15 hvcurveto
          5 -6 -7 4 -10 hhcurveto
          -23 -19 -14 -18 -4 hvcurveto
          -77 -16 110 -10 134 hhcurveto
          135 113 197 callgsubr
        </CharString>
        <CharString name="brokenbar">
          319 750 -20 hstemhm
          85 61 17 61 -23 61 17 61 hintmask 10011000
          262 341 rmoveto
          78 365 rlineto
          14 3 6 30 -30 hhcurveto
          -31 -6 -29 -15 -3 hvcurveto
          -78 -365 rlineto
          hintmask 00100000
          -21 -4 7 -21 20 hhcurveto
          hintmask 00010000
          19 15 21 21 4 hvcurveto
          -116 -547 rmoveto
          hintmask 01100000
          78 365 rlineto
          21 4 -6 21 -19 hhcurveto
          -20 -16 -21 -21 -4 hvcurveto
          -78 -365 rlineto
          66 callgsubr
          endchar
        </CharString>
        <CharString name="bullet">
          1069 139 348 hstem
          450 348 vstem
          73 callsubr
          endchar
        </CharString>
        <CharString name="c">
          187 callsubr
          hstem
          103 146 vstem
          -78 callgsubr
          endchar
        </CharString>
        <CharString name="cacute">
          187 callsubr
          98 -21 104 -20 176 callsubr
          hintmask 11001000
          -78 callgsubr
          hintmask 00110000
          93 653 -90 callsubr
        </CharString>
        <CharString name="caron">
          687 83 callgsubr
          710 720 -80 callgsubr
        </CharString>
        <CharString name="caron.cap">
          687 620 130 callgsubr
          703 689 -86 callsubr
        </CharString>
        <CharString name="caron.ts1">
          840 633 -21 145 -20 hstem
          791 742 rmoveto
          6 -6 7 -6 1 vhcurveto
          -44 hlineto
          -18 -17 -11 -8 -15 hvcurveto
          -106 -52 rlineto
          -3 -5 -7 -5 -6 hhcurveto
          -13 2 -17 14 -11 8 -59 37 rcurveline
          8 -14 -12 11 -17 -6 -6 -1 -6 -5 -5 1 -5 hhcurveto
          -4 -4 197 callsubr
          -6 -2 -2 -6 -5 vvcurveto
          -1 -12 15 -9 10 -8 35 -32 rcurveline
          48 -44 rlineto
          -10 12 10 -15 18 5 5 1 5 hhcurveto
          64 hlineto
          21 19 18 12 21 hvcurveto
          37 24 35 25 38 23 10 7 18 8 1 12 rrcurveto
          endchar
        </CharString>
        <CharString name="ccaron">
          187 callsubr
          98 -21 104 -20 176 callsubr
          hintmask 11001000
          -78 callgsubr
          hintmask 00110000
          117 653 -80 callgsubr
        </CharString>
        <CharString name="ccedilla">
          187 callsubr
          176 callsubr
          -45 146 hintmask 11100000
          -78 callgsubr
          -192 -125 97 callsubr
          hintmask 00010000
          -28 callgsubr
        </CharString>
        <CharString name="ccircumflex">
          187 callsubr
          98 -21 104 -20 176 callsubr
          hintmask 11001000
          -78 callgsubr
          hintmask 00110000
          100 577 -78 callsubr
        </CharString>
        <CharString name="cdotaccent">
          187 callsubr
          98 63 176 callsubr
          151 161 hintmask 11010000
          -78 callgsubr
          hintmask 00101000
          -25 615 -104 callsubr
        </CharString>
        <CharString name="cedilla">
          35 callsubr
        </CharString>
        <CharString name="cedilla.dup">
          35 callsubr
        </CharString>
        <CharString name="cent">
          611 103 146 32 84 46 84 -73 84 75 84 hintmask 00101000
          586 67 rmoveto
          2 9 7 59 1 9 rrcurveto
          8 -1 -3 5 -8 hhcurveto
          -5 -2 0 -18 -21 hvcurveto
          -59 -47 -59 -17 -45 -4 86 402 rcurveline
          59 -4 29 -17 39 -35 rrcurveto
          -11 10 2 0 5 hhcurveto
          11 3 8 14 6 hvcurveto
          21 54 rlineto
          4 8 1 2 3 vvcurveto
          2 9 -6 4 0 vvcurveto
          -11 6 -55 34 -104 4 rrcurveto
          hintmask 00010000
          11 50 rlineto
          11 2 -7 9 -12 hhcurveto
          -42 hlineto
          -12 -11 -9 -11 -2 hvcurveto
          hintmask 11101000
          -11 -53 -166 -26 -116 -131 -26 -123 rlinecurve
          -28 -132 76 -120 142 -23 -12 -57 rcurveline
          -12 -3 7 -9 12 hhcurveto
          42 hlineto
          12 189 callgsubr
          11 54 54 4 69 15 82 45 rlinecurve
          2 3 2 5 1 4 rrcurveto
          -275 11 rmoveto
          -51 21 -35 58 24 113 16 74 40 93 88 28 rrcurveto
          endchar
        </CharString>
        <CharString name="cent.oldstyle">
          611 -10 79 -71 79 397 79 176 callsubr
          hintmask 10000000
          586 67 rmoveto
          2 9 7 59 1 9 rrcurveto
          8 -1 -3 5 -8 hhcurveto
          -5 -2 0 -18 -21 hvcurveto
          -59 -75 -72 -11 -47 hhcurveto
          hintmask 01110000
          -16 -17 3 5 -15 hvcurveto
          206 390 35 -8 22 -16 29 -26 rlinecurve
          -11 10 2 0 5 hhcurveto
          11 3 8 14 6 hvcurveto
          21 54 rlineto
          4 8 1 2 3 vvcurveto
          2 9 -6 4 0 vvcurveto
          -8 5 -34 20 -62 12 30 57 rcurveline
          10 5 -5 10 -10 hhcurveto
          -47 hlineto
          -12 -12 -8 -12 -7 hvcurveto
          -25 -49 rlineto
          -8 hlineto
          -197 -141 -147 -137 -29 hvcurveto
          -21 -100 37 -92 82 -50 -49 -91 rcurveline
          -10 -5 5 -10 10 hhcurveto
          47 hlineto
          12 13 8 12 6 hvcurveto
          33 62 rlineto
          hintmask 10010000
          -5 22 24 -3 25 hhcurveto
          57 81 10 55 99 hvcurveto
          2 3 2 5 1 4 rrcurveto
          -150 406 rmoveto
          -181 -341 -14 31 -5 45 13 62 rlinecurve
          18 85 50 109 119 9 rrcurveto
          endchar
        </CharString>
        <CharString name="centigrade">
          1184 -20 84 316 91 123 91 -63 84 1 -20 hstemhm
          hintmask 10010000
          1116 36 rmoveto
          11 8 10 73 26 vvcurveto
          7 -2 8 -10 1 vhcurveto
          -3 hlineto
          -11 -22 -20 -10 -14 hvcurveto
          -45 -66 -61 -20 -97 hhcurveto
          -111 -131 68 153 190 192 147 179 74 64 -26 -61 44 hvcurveto
          -5 4 5 -6 7 hhcurveto
          22 38 134 0 hvcurveto
          hintmask 00001000
          32 -172 17 -84 vhcurveto
          hintmask 10010000
          -7 -7 0 -1 -7 hvcurveto
          -160 -16 -152 -54 -109 -125 rrcurveto
          -54 -63 -38 -80 -84 vvcurveto
          -118 80 -95 105 -50 vhcurveto
          -30 64 74 -11 71 hhcurveto
          84 74 10 33 83 hvcurveto
          11 4 12 4 10 5 rrcurveto
          -695 518 rmoveto
          hintmask 01100000
          67 -46 64 -88 vhcurveto
          -11 hlineto
          -85 -9 -79 -74 -90 vvcurveto
          -63 42 -69 91 vhcurveto
          11 hlineto
          86 8 79 75 91 vvcurveto
          -92 -5 rmoveto
          -40 -4 -40 -38 -40 hhcurveto
          -24 -18 13 30 hvcurveto
          40 4 41 40 40 hhcurveto
          19 23 -12 -26 hvcurveto
          endchar
        </CharString>
        <CharString name="circumflex">
          44 callsubr
        </CharString>
        <CharString name="circumflex.cap">
          189 callsubr
          104 -20 hstem
          687 613 -77 callgsubr
        </CharString>
        <CharString name="circumflex.dup">
          44 callsubr
        </CharString>
        <CharString name="colon">
          382 0 142 254 142 hstemhm
          126 111 callsubr
          -76 111 callsubr
          hintmask 01000100
          123 callgsubr
          hintmask 01001000
          -18 -85 rlineto
          -26 -5 0 -2 27 hhcurveto
          86 19 callgsubr
          -84 -396 rmoveto
          hintmask 10010000
          148 callgsubr
          hintmask 10100000
          41 callgsubr
        </CharString>
        <CharString name="colonmonetary">
          879 -21 83 14 83 463 83 hstem
          149 160 110 84 106 84 99 callsubr
          -15 hlineto
          119 560 rlineto
          10 hlineto
          69 callsubr
          -15 hlineto
          18 84 185 callsubr
          -43 hlineto
          -12 -11 -9 -12 -2 hvcurveto
          -20 -92 -234 -36 -172 -158 -34 -161 rlinecurve
          -34 -159 103 -160 220 -36 -19 -92 rcurveline
          -12 -3 7 -9 12 hhcurveto
          43 hlineto
          11 189 callgsubr
          18 84 rlineto
          16 hlineto
          164 callgsubr
          -362 25 rmoveto
          -120 39 -53 113 25 114 26 122 106 107 129 37 rrcurveto
          endchar
        </CharString>
        <CharString name="comma">
          382 -101 -21 122 142 hstemhm
          122 142 -138 111 callsubr
          hintmask 00001000
          268 28 rmoveto
          18 86 rlineto
          hintmask 01100000
          26 6 -1 2 -27 hhcurveto
          -86 hlineto
          hintmask 00001000
          80 callgsubr
          hintmask 01010000
          140 callsubr
          hintmask 10100000
          -14 -3 13 0 15 hhcurveto
          15 hlineto
          21 1 1 17 14 hvcurveto
          76 94 rlineto
          hintmask 00010000
          15 19 0 2 4 17 rrcurveto
          endchar
        </CharString>
        <CharString name="copyleft">
          116 callsubr
          192 77 261 -61 callgsubr
          -71 hmoveto
          87 18 -68 85 -134 hhcurveto
          -29 -19 -2 -1 -6 hvcurveto
          -30 -4 -34 -9 -2 -1 rrcurveto
          0 -4 -2 -1 -4 vhcurveto
          0 0 -2 -4 vvcurveto
          -2 -47 rlineto
          -6 0 -4 5 4 1 1 3 3 vhcurveto
          27 31 31 16 46 hhcurveto
          81 48 -61 -72 -15 hvcurveto
          -67 -15 -70 -66 -88 hhcurveto
          -52 -19 11 30 -29 hvcurveto
          5 -4 -1 0 -2 hhcurveto
          -6 -1 -5 -2 -1 hvcurveto
          -3 -7 -8 -31 -2 -6 rrcurveto
          0 -1 -5 1 -1 vhcurveto
          -28 48 46 0 25 hhcurveto
          136 103 86 86 19 hvcurveto
          endchar
        </CharString>
        <CharString name="copyright">
          116 callsubr
          530 -61 callgsubr
          -142 -138 rmoveto
          2 6 3 31 2 7 rrcurveto
          2 -1 1 5 -6 hhcurveto
          -2 -1 0 -5 -7 hvcurveto
          -30 -40 -25 -11 -52 hhcurveto
          -88 -42 66 67 15 hvcurveto
          72 15 75 61 80 hhcurveto
          45 25 -16 -27 20 hvcurveto
          -3 1 1 -1 4 hhcurveto
          5 2 4 6 2 hvcurveto
          18 47 rlineto
          2 4 0 2 0 vvcurveto
          1 4 -2 2 0 vvcurveto
          -2 1 -30 9 -28 4 rrcurveto
          1 -6 -19 2 -29 hhcurveto
          -134 -103 -85 -87 -18 hvcurveto
          -86 -19 66 -86 136 hhcurveto
          25 46 0 28 60 hvcurveto
          1 1 1 5 0 vvcurveto
          endchar
        </CharString>
        <CharString name="copyright.alt">
          927 -194 77 144 77 -68 77 542 77 hstemhm
          57 77 103 113 362 77 118 77 hintmask 10111011
          984 269 rmoveto
          284 61 -141 179 -285 hhcurveto
          -284 -217 -179 -284 -61 hvcurveto
          -284 -60 141 -179 284 hhcurveto
          285 217 179 284 60 hvcurveto
          -77 hmoveto
          -237 -50 -182 -149 -237 hhcurveto
          -237 -117 149 237 50 hvcurveto
          237 51 180 149 237 hhcurveto
          237 119 -149 -237 -51 hvcurveto
          -195 -233 rmoveto
          2 9 5 46 10 vvcurveto
          4 1 1 8 -9 hhcurveto
          hintmask 01000110
          -3 -1 -1 -8 -10 hvcurveto
          -45 -60 -38 -15 -77 hhcurveto
          -132 -62 98 100 21 hvcurveto
          107 23 111 91 121 hhcurveto
          68 36 -23 -40 30 hvcurveto
          -5 1 3 -2 5 hhcurveto
          7 3 7 8 3 hvcurveto
          28 71 rlineto
          2 6 1 3 0 vvcurveto
          1 6 -4 3 0 vvcurveto
          -3 2 -44 13 -43 5 rrcurveto
          2 -8 -28 3 -43 hhcurveto
          -201 -154 -127 -130 -28 hvcurveto
          -128 -27 99 -129 203 hhcurveto
          37 69 0 42 90 hvcurveto
          hintmask 00100010
          1 2 2 5 1 2 rrcurveto
          endchar
        </CharString>
        <CharString name="currency">
          1069 -26 90 428 90 hstemhm
          200 90 0 90 428 90 hintmask 11101000
          848 -47 rmoveto
          40 33 -26 32 -6 8 -56 71 rcurveline
          48 51 36 62 14 68 15 68 -9 62 -28 50 87 72 rcurveline
          20 16 24 28 -21 27 -25 33 -40 -33 -9 -7 -86 -71 rcurveline
          37 -43 -57 22 -67 hhcurveto
          -68 -67 -22 -38 -59 hvcurveto
          -56 72 -5 7 -27 33 -39 -32 rlinecurve
          -39 -32 25 -33 7 -7 56 -72 rcurveline
          -47 -50 -36 -63 -14 -67 -14 -67 8 -63 27 -50 -88 -73 rcurveline
          -20 -16 -24 -28 21 -27 25 -33 40 33 9 7 87 72 rcurveline
          -37 43 57 -22 68 hhcurveto
          67 67 22 37 59 hvcurveto
          56 -71 5 -7 26 -34 39 32 rlinecurve
          -40 325 rmoveto
          -118 -25 -116 -96 -118 hhcurveto
          hintmask 01011000
          -118 -76 96 118 25 hvcurveto
          118 25 117 96 118 hhcurveto
          118 75 -96 -118 -25 hvcurveto
          endchar
        </CharString>
        <CharString name="cwm">
          0 endchar
        </CharString>
        <CharString name="cwmascender">
          0 endchar
        </CharString>
        <CharString name="cwmcapital">
          0 endchar
        </CharString>
        <CharString name="d">
          681 -10 119 callsubr
          hintmask 10111000
          -62 callgsubr
          hintmask 01000000
          endchar
        </CharString>
        <CharString name="dagger">
          511 388 111 203 -20 hstemhm
          249 111 -23 111 -87 111 hintmask 11010000
          541 443 170 callsubr
          -36 -16 -10 -2 -13 -3 9 28 11 23 15 27 19 36 19 37 7 33 rrcurveto
          49 10 -35 10 -18 hhcurveto
          -22 -37 -13 -46 -9 hvcurveto
          -7 -33 3 -36 3 -32 3 -33 2 -23 -2 -27 -10 2 -10 3 -17 9 rrcurveto
          12 -22 -26 14 -27 hhcurveto
          -41 -22 -30 -25 -6 hvcurveto
          -29 -6 14 -27 37 hhcurveto
          21 26 9 10 23 hvcurveto
          36 16 9 2 14 3 -9 -27 -16 -28 -11 -20 rrcurveto
          hintmask 10101000
          -35 -64 -3 -15 -9 -43 -27 -129 -18 -130 -11 -128 -2 -16 -2 -28 3 -4 rrcurveto
          -7 1 8 0 9 hhcurveto
          11 10 0 11 5 hvcurveto
          5 12 74 208 45 211 10 46 2 12 -8 70 -2 21 -3 25 2 23 10 -2 10 -3 17 -9 rrcurveto
          -12 21 26 -14 27 hhcurveto
          41 23 30 25 5 hvcurveto
          endchar
        </CharString>
        <CharString name="daggerdbl">
          511 -32 111 323 111 -92 110 171 -20 hstemhm
          169 111 -97 111 -53 111 -87 111 -82 111 -81 111 -98 111 -107 111 hintmask 0010000000000000
          548 476 rmoveto
          28 6 -13 27 -37 hhcurveto
          hintmask 0100000001000000
          -18 -24 -6 -12 -27 hvcurveto
          hintmask 0000000100000000
          -35 -15 -7 -2 -17 -4 rrcurveto
          hintmask 0000000010000000
          6 18 3 8 20 33 rrcurveto
          hintmask 0000000000100000
          20 34 17 31 6 28 rrcurveto
          hintmask 0001000010000000
          44 9 -31 14 -21 hhcurveto
          hintmask 0000000000100000
          -26 -33 -16 -42 -9 hvcurveto
          hintmask 0010010000010000
          -7 -31 7 -36 4 -27 5 -33 0 -6 -1 -19 -15 4 -5 1 -17 9 rrcurveto
          12 -22 -25 13 -28 hhcurveto
          -37 -25 -27 -28 -6 hvcurveto
          -13 -3 -3 -42 51 hhcurveto
          13 16 0 24 55 hvcurveto
          22 10 5 1 17 4 -7 -18 -3 -8 -20 -33 rrcurveto
          hintmask 0100000100000000
          -20 -34 -17 -31 -6 -28 rrcurveto
          -44 -9 31 -14 21 hhcurveto
          26 34 16 42 8 hvcurveto
          7 31 -6 36 -5 27 -5 33 1 6 1 19 14 -4 6 -1 17 -9 rrcurveto
          hintmask 1010001000000000
          -21 37 16 -4 20 hhcurveto
          51 15 42 13 3 hvcurveto
          -96 -453 170 callsubr
          -31 -13 -13 -4 -15 -4 8 20 2 6 25 44 22 36 11 25 5 21 rrcurveto
          44 9 -31 14 -21 hhcurveto
          -26 -33 -16 -42 -9 hvcurveto
          -6 -28 4 -31 5 -30 6 -37 -1 -7 -1 -19 -12 3 -10 4 -14 8 rrcurveto
          12 -23 -25 13 -26 hhcurveto
          -41 -23 -30 -25 -5 hvcurveto
          -29 -6 14 -27 37 hhcurveto
          hintmask 0000010000000000
          21 26 9 10 22 hvcurveto
          24 10 18 7 17 4 -8 -20 -2 -6 -25 -44 rrcurveto
          hintmask 1000100001000000
          -22 -36 -11 -25 -5 -21 rrcurveto
          -44 -9 31 -14 21 hhcurveto
          26 33 16 42 9 hvcurveto
          6 28 -4 31 -5 30 -6 37 1 7 1 19 17 -5 13 -7 21 -10 rrcurveto
          -9 16 22 -9 21 hhcurveto
          hintmask 0000000000010000
          41 23 30 25 5 hvcurveto
          endchar
        </CharString>
        <CharString name="dblbracketleft">
          554 -207 91 790 91 hstem
          491 -148 rmoveto
          19 -12 13 -27 vhcurveto
          -69 hlineto
          61 286 96 455 rlineto
          26 7 -3 24 19 5 5 -1 4 hhcurveto
          53 hlineto
          23 25 6 54 30 -27 1 -18 hvcurveto
          -289 hlineto
          -35 -4 -5 -64 -14 hvcurveto
          -177 -830 rlineto
          -2 -14 -5 -14 -14 vvcurveto
          -26 23 -5 20 vhcurveto
          297 hlineto
          35 9 32 27 hvcurveto
          -200 32 132 callsubr
        </CharString>
        <CharString name="dblbracketright">
          554 -207 91 790 91 hstem
          378 -149 rmoveto
          114 537 66 309 rlineto
          2 11 4 13 12 vvcurveto
          25 -21 7 -22 vhcurveto
          -297 hlineto
          -37 -6 -35 -25 -21 16 -10 23 hvcurveto
          68 hlineto
          -167 -790 rlineto
          -84 hlineto
          -37 -6 -36 -23 -15 9 -17 26 hvcurveto
          306 hlineto
          39 -1 34 24 5 hvcurveto
          -85 33 132 callsubr
        </CharString>
        <CharString name="dblgrave.ts1">
          688 630 105 -104 105 hstemhm
          hintmask 01000000
          442 646 rmoveto
          1 17 -16 28 -8 17 rrcurveto
          30 callsubr
          229 hmoveto
          1 17 -16 28 -8 17 rrcurveto
          hintmask 01000000
          30 callsubr
          endchar
        </CharString>
        <CharString name="dblverticalbar">
          589 750 -20 hstem
          85 61 133 61 15 61 133 61 vstem
          146 -206 rmoveto
          39 callsubr
          270 hmoveto
          39 callsubr
          endchar
        </CharString>
        <CharString name="dcaron">
          681 -10 76 0 76 330 76 -70 -21 110 127 176 callsubr
          hintmask 10101100
          -62 callgsubr
          hintmask 01011000
          359 159 1 callgsubr
        </CharString>
        <CharString name="dcroat">
          681 -10 76 0 76 330 76 -58 84 0 84 36 -20 176 callsubr
          hintmask 00001100
          829 605 rmoveto
          128 callsubr
          -66 156 callsubr
          -156 75 callgsubr
          156 hlineto
          hintmask 00010000
          -18 -84 rlineto
          hintmask 10101010
          39 -35 -48 19 -56 hhcurveto
          -140 -147 -120 -159 -34 hvcurveto
          -158 -33 92 -121 137 hhcurveto
          68 59 32 38 44 hvcurveto
          -44 -10 -3 -16 44 -8 callgsubr
          113 530 rlineto
          66 161 callsubr
          -342 -463 rmoveto
          -3 -16 -3 -13 -44 -25 rrcurveto
          -18 -32 -28 -4 -20 hhcurveto
          -30 -51 10 46 -25 hvcurveto
          -21 40 9 57 10 48 11 52 16 53 40 41 rrcurveto
          47 46 59 12 37 hhcurveto
          37 33 -14 -25 21 hvcurveto
          hintmask 01000000
          endchar
        </CharString>
        <CharString name="ddotbelow">
          681 -10 119 callsubr
          -26 161 hintmask 10111000
          -62 callgsubr
          hintmask 01000000
          hintmask 00000100
          -165 -602 -104 callsubr
        </CharString>
        <CharString name="degree">
          516 302 90 202 90 hstem
          172 90 202 90 vstem
          554 493 rmoveto
          105 22 -68 86 -105 hhcurveto
          -106 -103 -86 -105 -22 hvcurveto
          -105 -23 67 -86 106 hhcurveto
          105 104 86 105 23 hvcurveto
          -90 hmoveto
          -56 -12 -55 -45 -56 hhcurveto
          -56 -35 45 56 12 hvcurveto
          56 12 54 45 56 hhcurveto
          56 36 -45 -56 -12 hvcurveto
          endchar
        </CharString>
        <CharString name="diameter">
          1069 -160 90 696 90 hstem
          155 90 696 90 vstem
          1139 691 rmoveto
          25 5 -16 20 -25 hhcurveto
          -12 -13 -5 -8 -9 hvcurveto
          -128 -105 rlineto
          61 -62 -88 37 -105 hhcurveto
          -242 -237 -196 -242 -52 hvcurveto
          -22 -105 16 -96 45 -76 -127 -105 rcurveline
          -10 -8 -7 -12 -3 -12 rrcurveto
          -25 -5 16 -20 25 hhcurveto
          12 13 5 8 9 hvcurveto
          128 106 rlineto
          -61 63 87 -37 105 hhcurveto
          242 238 196 242 51 hvcurveto
          22 105 -16 96 -45 75 127 105 rcurveline
          10 8 7 12 3 12 rrcurveto
          -198 -413 rmoveto
          -192 -41 -189 -156 -192 hhcurveto
          -80 -67 27 45 -50 hvcurveto
          592 488 33 -59 11 -73 -17 -80 rlinecurve
          -77 276 rmoveto
          -591 -489 -34 59 -11 74 17 80 rlinecurve
          192 41 189 156 192 hhcurveto
          80 68 -27 -45 49 hvcurveto
          endchar
        </CharString>
        <CharString name="died">
          688 347 111 -110 111 -104 96 hstem
          cntrmask 11100000
          725 388 rmoveto
          2 12 5 14 13 vvcurveto
          14 -7 18 -26 vhcurveto
          -62 -62 -8 -62 hhcurveto
          25 119 rlineto
          3 11 5 14 13 vvcurveto
          23 -18 10 -21 vhcurveto
          -68 hlineto
          -20 -17 -7 -27 -3 hvcurveto
          -6 -28 -17 -80 -4 -16 -5 -16 -1 -16 rlinecurve
          -61 -63 2 5 -61 hvcurveto
          -4 -4 1 -4 hhcurveto
          -28 -4 -23 -17 -4 hvcurveto
          -2 -12 -5 -14 -13 vvcurveto
          -14 7 -19 25 vhcurveto
          62 63 8 62 hhcurveto
          -23 -106 -19 -108 -26 -105 rrcurveto
          -2 -7 -1 -6 -7 vvcurveto
          -24 21 -8 23 vhcurveto
          11 10 1 11 9 10 -1 10 hhcurveto
          39 1 28 30 7 hvcurveto
          21 92 15 93 23 91 2 12 4 13 1 12 rrcurveto
          61 63 -2 -5 61 hvcurveto
          4 4 -1 4 hhcurveto
          28 4 23 18 4 hvcurveto
          endchar
        </CharString>
        <CharString name="dieresis">
          688 654 57 hstem
          284 71 callsubr
          vstem
          -45 callsubr
          endchar
        </CharString>
        <CharString name="dieresis.cap">
          688 599 57 hstem
          248 99 callgsubr
          vstem
          -2 callgsubr
          endchar
        </CharString>
        <CharString name="dieresis.dup">
          688 654 57 hstem
          284 71 callsubr
          vstem
          -45 callsubr
          endchar
        </CharString>
        <CharString name="dieresis.ts1">
          688 673 63 hstem
          705 705 rmoveto
          17 -1 -11 14 -26 hhcurveto
          -80 hlineto
          -5 -4 0 -1 -4 hvcurveto
          -15 -3 -11 -15 -14 vvcurveto
          -16 13 -14 23 vhcurveto
          82 hlineto
          25 14 13 19 hvcurveto
          -267 hmoveto
          20 -1 -17 11 -21 hhcurveto
          -79 hlineto
          -5 -5 0 -1 -4 hvcurveto
          -15 -3 -9 -13 -14 vvcurveto
          -18 -1 13 -14 23 hhcurveto
          82 hlineto
          25 14 13 19 hvcurveto
          endchar
        </CharString>
        <CharString name="discount">
          688 22 -21 30 173 359 170 31 -20 21 -20 hstemhm
          hintmask 00001000
          764 721 rmoveto
          24 -1 -20 20 -24 hhcurveto
          hintmask 11110000
          -3 -2 -1 -3 hhcurveto
          -23 -3 -14 -23 -14 -16 -97 -111 rcurveline
          -386 -442 -59 -68 rlineto
          -13 -16 -19 -14 -24 vvcurveto
          -24 19 -22 26 27 15 24 18 16 vhcurveto
          414 475 134 153 18 21 rlineto
          5 8 4 11 10 vvcurveto
          -211 -634 rmoveto
          -48 -7 -25 -7 -32 hhcurveto
          -18 hlineto
          -10 -10 -1 -11 hhcurveto
          -25 -35 8 37 11 3 11 2 11 hvcurveto
          9 43 7 31 10 18 28 3 rlinecurve
          64 hlineto
          27 37 -5 -41 -10 -3 -9 -2 -10 hvcurveto
          -96 534 rmoveto
          -78 -16 -5 -22 -48 hhcurveto
          -54 hlineto
          -27 -34 8 37 20 8 28 6 22 hvcurveto
          4 24 8 29 30 2 rrcurveto
          1 5 6 0 6 hhcurveto
          54 hlineto
          26 35 -6 -39 -8 -2 -9 -2 -9 hvcurveto
          endchar
        </CharString>
</ttFont>
